<svg width="1215" height="240" viewBox="0 0 1215 240" fill="none" xmlns="http://www.w3.org/2000/svg">
<path d="M176 64H160V80H176V64Z" fill="#FCBE1D"/>
<path d="M176 48H160V64H176V48Z" fill="#FCBE1D"/>
<path d="M160 48H144V64H160V48Z" fill="#FCBE1D"/>
<path d="M48 48H32V64H48V48Z" fill="#FCBE1D"/>
<path d="M32 64H16V80H32V64Z" fill="#FCBE1D"/>
<path d="M48 80H32V96H48V80Z" fill="#FCBE1D"/>
<path d="M64 80H48V96H64V80Z" fill="#FCBE1D"/>
<path d="M48 96H32V112H48V96Z" fill="#FCBE1D"/>
<path d="M64 96H48V112H64V96Z" fill="#FCBE1D"/>
<path d="M48 112H32V128H48V112Z" fill="#FCBE1D"/>
<path d="M64 112H48V128H64V112Z" fill="#FCBE1D"/>
<path d="M32 160H16V176H32V160Z" fill="#FCBE1D"/>
<path d="M64 160H48V176H64V160Z" fill="#FCBE1D"/>
<path d="M64 176H48V192H64V176Z" fill="#FCBE1D"/>
<path d="M64 192H48V208H64V192Z" fill="#FCBE1D"/>
<path d="M48 176H32V192H48V176Z" fill="#FCBE1D"/>
<path d="M80 176H64V192H80V176Z" fill="#FCBE1D"/>
<path d="M80 160H64V176H80V160Z" fill="#FCBE1D"/>
<path d="M48 144H32V160H48V144Z" fill="#FCBE1D"/>
<path d="M48 160H32V176H48V160Z" fill="#FCBE1D"/>
<path d="M32 80H16V96H32V80Z" fill="#FCBE1D"/>
<path d="M32 96H16V112H32V96Z" fill="#FCBE1D"/>
<path d="M32 112H16V128H32V112Z" fill="#FCBE1D"/>
<path d="M32 144H16V160H32V144Z" fill="#FCBE1D"/>
<path d="M64 144H48V160H64V144Z" fill="#FCBE1D"/>
<path d="M128 208H112V224H128V208Z" fill="#FCBE1D"/>
<path d="M112 208H96V224H112V208Z" fill="#FCBE1D"/>
<path d="M96 208H80V224H96V208Z" fill="#FCBE1D"/>
<path d="M80 208H64V224H80V208Z" fill="#FCBE1D"/>
<path d="M96 176H80V192H96V176Z" fill="#FCBE1D"/>
<path d="M112 176H96V192H112V176Z" fill="#FCBE1D"/>
<path d="M128 176H112V192H128V176Z" fill="#FCBE1D"/>
<path d="M80 192H64V208H80V192Z" fill="#FCBE1D"/>
<path d="M96 192H80V208H96V192Z" fill="#FCBE1D"/>
<path d="M112 192H96V208H112V192Z" fill="#FCBE1D"/>
<path d="M128 192H112V208H128V192Z" fill="#FCBE1D"/>
<path d="M144 192H128V208H144V192Z" fill="#FCBE1D"/>
<path d="M160 192H144V208H160V192Z" fill="#FCBE1D"/>
<path d="M144 208H128V224H144V208Z" fill="#FCBE1D"/>
<path d="M128 48H112V64H128V48Z" fill="#FCBE1D"/>
<path d="M112 48H96V64H112V48Z" fill="#FCBE1D"/>
<path d="M96 48H80V64H96V48Z" fill="#FCBE1D"/>
<path d="M80 64H64V80H80V64Z" fill="#FCBE1D"/>
<path d="M64 64H48V80H64V64Z" fill="#FCBE1D"/>
<path d="M48 64H32V80H48V64Z" fill="#FCBE1D"/>
<path d="M80 48H64V64H80V48Z" fill="#FCBE1D"/>
<path d="M64 48H48V64H64V48Z" fill="#FCBE1D"/>
<path d="M144 48H128V64H144V48Z" fill="#FCBE1D"/>
<path d="M128 64H112V80H128V64Z" fill="#1E1848"/>
<path d="M128 80H112V96H128V80Z" fill="#1E1848"/>
<path d="M192 80H176V96H192V80Z" fill="#1E1848"/>
<path d="M128 144H112V160H128V144Z" fill="#1E1848"/>
<path d="M144 80H128V96H144V80Z" fill="#1E1848"/>
<path d="M160 80H144V96H160V80Z" fill="#1E1848"/>
<path d="M176 80H160V96H176V80Z" fill="#1E1848"/>
<path d="M192 64H176V80H192V64Z" fill="#1E1848"/>
<path d="M192 48H176V64H192V48Z" fill="#1E1848"/>
<path d="M192 32H176V48H192V32Z" fill="#1E1848"/>
<path d="M176 16H160V32H176V16Z" fill="#1E1848"/>
<path d="M160 0H144V16H160V0Z" fill="#1E1848"/>
<path d="M176 32H160V48H176V32Z" fill="#1E1848"/>
<path d="M160 16H144V32H160V16Z" fill="#1E1848"/>
<path d="M144 0H128V16H144V0Z" fill="#1E1848"/>
<path d="M128 0H112V16H128V0Z" fill="#1E1848"/>
<path d="M112 0H96V16H112V0Z" fill="#1E1848"/>
<path d="M96 0H80V16H96V0Z" fill="#1E1848"/>
<path d="M80 0H64V16H80V0Z" fill="#1E1848"/>
<path d="M64 16H48V32H64V16Z" fill="#1E1848"/>
<path d="M48 16H32V32H48V16Z" fill="#1E1848"/>
<path d="M32 32H16V48H32V32Z" fill="#1E1848"/>
<path d="M16 48H0V64H16V48Z" fill="#1E1848"/>
<path d="M64 0H48V16H64V0Z" fill="#1E1848"/>
<path d="M48 32H32V48H48V32Z" fill="#1E1848"/>
<path d="M32 48H16V64H32V48Z" fill="#1E1848"/>
<path d="M16 64H0V80H16V64Z" fill="#1E1848"/>
<path d="M16 80H0V96H16V80Z" fill="#1E1848"/>
<path d="M16 96H0V112H16V96Z" fill="#1E1848"/>
<path d="M16 112H0V128H16V112Z" fill="#1E1848"/>
<path d="M16 144H0V160H16V144Z" fill="#1E1848"/>
<path d="M16 160H0V176H16V160Z" fill="#1E1848"/>
<path d="M16 176H0V192H16V176Z" fill="#1E1848"/>
<path d="M32 192H16V208H32V192Z" fill="#1E1848"/>
<path d="M48 208H32V224H48V208Z" fill="#1E1848"/>
<path d="M64 224H48V240H64V224Z" fill="#1E1848"/>
<path d="M160 224H144V240H160V224Z" fill="#1E1848"/>
<path d="M176 208H160V224H176V208Z" fill="#1E1848"/>
<path d="M192 192H176V208H192V192Z" fill="#1E1848"/>
<path d="M192 144H176V160H192V144Z" fill="#1E1848"/>
<path d="M32 176H16V192H32V176Z" fill="#1E1848"/>
<path d="M48 192H32V208H48V192Z" fill="#1E1848"/>
<path d="M64 208H48V224H64V208Z" fill="#1E1848"/>
<path d="M80 224H64V240H80V224Z" fill="#1E1848"/>
<path d="M96 224H80V240H96V224Z" fill="#1E1848"/>
<path d="M112 224H96V240H112V224Z" fill="#1E1848"/>
<path d="M128 224H112V240H128V224Z" fill="#1E1848"/>
<path d="M144 224H128V240H144V224Z" fill="#1E1848"/>
<path d="M160 208H144V224H160V208Z" fill="#1E1848"/>
<path d="M176 192H160V208H176V192Z" fill="#1E1848"/>
<path d="M192 176H176V192H192V176Z" fill="#1E1848"/>
<path d="M192 160H176V176H192V160Z" fill="#1E1848"/>
<path d="M176 144H160V160H176V144Z" fill="#1E1848"/>
<path d="M160 144H144V160H160V144Z" fill="#1E1848"/>
<path d="M144 144H128V160H144V144Z" fill="#1E1848"/>
<path d="M112 64H96V80H112V64Z" fill="#1E1848"/>
<path d="M96 64H80V80H96V64Z" fill="#1E1848"/>
<path d="M80 64H64V80H80V64Z" fill="#1E1848"/>
<path d="M80 160H64V176H80V160Z" fill="#1E1848"/>
<path d="M80 80H64V96H80V80Z" fill="#1E1848"/>
<path d="M80 96H64V112H80V96Z" fill="#1E1848"/>
<path d="M80 112H64V128H80V112Z" fill="#1E1848"/>
<path d="M48 128H32V144H48V128Z" fill="#FCBE1D"/>
<path d="M64 128H48V144H64V128Z" fill="#FCBE1D"/>
<path d="M32 128H16V144H32V128Z" fill="#FCBE1D"/>
<path d="M16 128H0V144H16V128Z" fill="#1E1848"/>
<path d="M80 128H64V144H80V128Z" fill="#1E1848"/>
<path d="M80 144H64V160H80V144Z" fill="#1E1848"/>
<path d="M80 144H64V160H80V144Z" fill="#1E1848"/>
<path d="M96 160H80V176H96V160Z" fill="#1E1848"/>
<path d="M112 160H96V176H112V160Z" fill="#1E1848"/>
<path d="M128 160H112V176H128V160Z" fill="#1E1848"/>
<path d="M160 32H144V48H160V32Z" fill="#FCBE1D"/>
<path d="M144 16H128V32H144V16Z" fill="#FCBE1D"/>
<path d="M128 16H112V32H128V16Z" fill="#FCBE1D"/>
<path d="M112 16H96V32H112V16Z" fill="#FCBE1D"/>
<path d="M96 16H80V32H96V16Z" fill="#FCBE1D"/>
<path d="M96 16H80V32H96V16Z" fill="#FCBE1D"/>
<path d="M80 16H64V32H80V16Z" fill="#FCBE1D"/>
<path d="M144 32H128V48H144V32Z" fill="#FCBE1D"/>
<path d="M128 32H112V48H128V32Z" fill="#FCBE1D"/>
<path d="M112 32H96V48H112V32Z" fill="#FCBE1D"/>
<path d="M96 32H80V48H96V32Z" fill="#FCBE1D"/>
<path d="M96 32H80V48H96V32Z" fill="#FCBE1D"/>
<path d="M80 32H64V48H80V32Z" fill="#FCBE1D"/>
<path d="M64 32H48V48H64V32Z" fill="#FCBE1D"/>
<path d="M160 64H144V80H160V64Z" fill="#FCBE1D"/>
<path d="M144 64H128V80H144V64Z" fill="#FCBE1D"/>
<path d="M176 160H160V176H176V160Z" fill="#FCBE1D"/>
<path d="M160 160H144V176H160V160Z" fill="#FCBE1D"/>
<path d="M144 160H128V176H144V160Z" fill="#FCBE1D"/>
<path d="M176 176H160V192H176V176Z" fill="#FCBE1D"/>
<path d="M160 176H144V192H160V176Z" fill="#FCBE1D"/>
<path d="M144 176H128V192H144V176Z" fill="#FCBE1D"/>
<path d="M304 72H288V88H304V72Z" fill="#FCBE1D"/>
<path d="M288 72H272V88H288V72Z" fill="#FCBE1D"/>
<path d="M272 72H256V88H272V72Z" fill="#FCBE1D"/>
<path d="M256 72H240V88H256V72Z" fill="#FCBE1D"/>
<path d="M304 88H288V104H304V88Z" fill="#FCBE1D"/>
<path d="M288 88H272V104H288V88Z" fill="#FCBE1D"/>
<path d="M272 88H256V104H272V88Z" fill="#FCBE1D"/>
<path d="M256 88H240V104H256V88Z" fill="#FCBE1D"/>
<path d="M240 88H224V104H240V88Z" fill="#FCBE1D"/>
<path d="M256 104H240V120H256V104Z" fill="#FCBE1D"/>
<path d="M240 104H224V120H240V104Z" fill="#FCBE1D"/>
<path d="M256 120H240V136H256V120Z" fill="#FCBE1D"/>
<path d="M240 120H224V136H240V120Z" fill="#FCBE1D"/>
<path d="M256 136H240V152H256V136Z" fill="#FCBE1D"/>
<path d="M240 136H224V152H240V136Z" fill="#FCBE1D"/>
<path d="M256 152H240V168H256V152Z" fill="#FCBE1D"/>
<path d="M240 152H224V168H240V152Z" fill="#FCBE1D"/>
<path d="M256 168H240V184H256V168Z" fill="#FCBE1D"/>
<path d="M240 168H224V184H240V168Z" fill="#FCBE1D"/>
<path d="M336 88H320V104H336V88Z" fill="#FCBE1D"/>
<path d="M304 104H288V120H304V104Z" fill="#1E1848"/>
<path d="M336 104H320V120H336V104Z" fill="#FCBE1D"/>
<path d="M304 120H288V136H304V120Z" fill="#1E1848"/>
<path d="M336 120H320V136H336V120Z" fill="#FCBE1D"/>
<path d="M304 136H288V152H304V136Z" fill="#1E1848"/>
<path d="M336 136H320V152H336V136Z" fill="#FCBE1D"/>
<path d="M304 152H288V168H304V152Z" fill="#1E1848"/>
<path d="M336 152H320V168H336V152Z" fill="#FCBE1D"/>
<path d="M304 168H288V184H304V168Z" fill="#1E1848"/>
<path d="M336 168H320V184H336V168Z" fill="#FCBE1D"/>
<path d="M352 104H336V120H352V104Z" fill="#FCBE1D"/>
<path d="M432 72H416V88H432V72Z" fill="#FCBE1D"/>
<path d="M432 88H416V104H432V88Z" fill="#FCBE1D"/>
<path d="M448 88H432V104H448V88Z" fill="#FCBE1D"/>
<path d="M464 88H448V104H464V88Z" fill="#FCBE1D"/>
<path d="M416 88H400V104H416V88Z" fill="#FCBE1D"/>
<path d="M432 104H416V120H432V104Z" fill="#FCBE1D"/>
<path d="M416 104H400V120H416V104Z" fill="#FCBE1D"/>
<path d="M432 120H416V136H432V120Z" fill="#FCBE1D"/>
<path d="M416 120H400V136H416V120Z" fill="#FCBE1D"/>
<path d="M432 136H416V152H432V136Z" fill="#FCBE1D"/>
<path d="M416 136H400V152H416V136Z" fill="#FCBE1D"/>
<path d="M432 152H416V168H432V152Z" fill="#FCBE1D"/>
<path d="M416 152H400V168H416V152Z" fill="#FCBE1D"/>
<path d="M432 168H416V184H432V168Z" fill="#FCBE1D"/>
<path d="M416 168H400V184H416V168Z" fill="#FCBE1D"/>
<path d="M400 104H384V120H400V104Z" fill="#FCBE1D"/>
<path d="M400 120H384V136H400V120Z" fill="#FCBE1D"/>
<path d="M400 136H384V152H400V136Z" fill="#FCBE1D"/>
<path d="M400 152H384V168H400V152Z" fill="#FCBE1D"/>
<path d="M400 168H384V184H400V168Z" fill="#FCBE1D"/>
<path d="M576 120H560V136H576V120Z" fill="#FCBE1D"/>
<path d="M576 136H560V152H576V136Z" fill="#FCBE1D"/>
<path d="M576 152H560V168H576V152Z" fill="#FCBE1D"/>
<path d="M576 168H560V184H576V168Z" fill="#FCBE1D"/>
<path d="M592 184H576V200H592V184Z" fill="#FCBE1D"/>
<path d="M608 200H592V216H608V200Z" fill="#FCBE1D"/>
<path d="M416 184H400V200H416V184Z" fill="#FCBE1D"/>
<path d="M432 200H416V216H432V200Z" fill="#FCBE1D"/>
<path d="M448 200H432V216H448V200Z" fill="#FCBE1D"/>
<path d="M464 200H448V216H464V200Z" fill="#FCBE1D"/>
<path d="M480 200H464V216H480V200Z" fill="#FCBE1D"/>
<path d="M432 184H416V200H432V184Z" fill="#FCBE1D"/>
<path d="M448 184H432V200H448V184Z" fill="#FCBE1D"/>
<path d="M464 184H448V200H464V184Z" fill="#FCBE1D"/>
<path d="M480 184H464V200H480V184Z" fill="#FCBE1D"/>
<path d="M448 72H432V88H448V72Z" fill="#FCBE1D"/>
<path d="M464 72H448V88H464V72Z" fill="#FCBE1D"/>
<path d="M480 72H464V88H480V72Z" fill="#FCBE1D"/>
<path d="M496 72H480V88H496V72Z" fill="#FCBE1D"/>
<path d="M496 56H480V72H496V56Z" fill="#FCBE1D"/>
<path d="M496 40H480V56H496V40Z" fill="#FCBE1D"/>
<path d="M496 24H480V40H496V24Z" fill="#FCBE1D"/>
<path d="M512 24H496V40H512V24Z" fill="#FCBE1D"/>
<path d="M512 40H496V56H512V40Z" fill="#FCBE1D"/>
<path d="M512 56H496V72H512V56Z" fill="#FCBE1D"/>
<path d="M528 56H512V72H528V56Z" fill="#FCBE1D"/>
<path d="M528 40H512V56H528V40Z" fill="#FCBE1D"/>
<path d="M528 24H512V40H528V24Z" fill="#FCBE1D"/>
<path d="M512 72H496V88H512V72Z" fill="#FCBE1D"/>
<path d="M528 72H512V88H528V72Z" fill="#FCBE1D"/>
<path d="M480 88H464V104H480V88Z" fill="#FCBE1D"/>
<path d="M496 88H480V104H496V88Z" fill="#FCBE1D"/>
<path d="M512 88H496V104H512V88Z" fill="#FCBE1D"/>
<path d="M528 88H512V104H528V88Z" fill="#FCBE1D"/>
<path d="M496 152H480V168H496V152Z" fill="#FCBE1D"/>
<path d="M496 136H480V152H496V136Z" fill="#FCBE1D"/>
<path d="M496 120H480V136H496V120Z" fill="#FCBE1D"/>
<path d="M496 104H480V120H496V104Z" fill="#FCBE1D"/>
<path d="M512 104H496V120H512V104Z" fill="#FCBE1D"/>
<path d="M512 120H496V136H512V120Z" fill="#FCBE1D"/>
<path d="M512 136H496V152H512V136Z" fill="#FCBE1D"/>
<path d="M528 136H512V152H528V136Z" fill="#FCBE1D"/>
<path d="M528 120H512V136H528V120Z" fill="#FCBE1D"/>
<path d="M528 104H512V120H528V104Z" fill="#FCBE1D"/>
<path d="M512 152H496V168H512V152Z" fill="#FCBE1D"/>
<path d="M528 152H512V168H528V152Z" fill="#FCBE1D"/>
<path d="M496 168H480V184H496V168Z" fill="#FCBE1D"/>
<path d="M512 168H496V184H512V168Z" fill="#FCBE1D"/>
<path d="M528 168H512V184H528V168Z" fill="#FCBE1D"/>
<path d="M496 184H480V200H496V184Z" fill="#FCBE1D"/>
<path d="M512 184H496V200H512V184Z" fill="#FCBE1D"/>
<path d="M528 184H512V200H528V184Z" fill="#FCBE1D"/>
<path d="M496 200H480V216H496V200Z" fill="#FCBE1D"/>
<path d="M512 200H496V216H512V200Z" fill="#FCBE1D"/>
<path d="M528 200H512V216H528V200Z" fill="#FCBE1D"/>
<path d="M752 136H736V152H752V136Z" fill="#FCBE1D"/>
<path d="M752 120H736V136H752V120Z" fill="#FCBE1D"/>
<path d="M752 104H736V120H752V104Z" fill="#FCBE1D"/>
<path d="M752 152H736V168H752V152Z" fill="#FCBE1D"/>
<path d="M752 168H736V184H752V168Z" fill="#FCBE1D"/>
<path d="M752 184H736V200H752V184Z" fill="#FCBE1D"/>
<path d="M768 168H752V184H768V168Z" fill="#FCBE1D"/>
<path d="M768 184H752V200H768V184Z" fill="#FCBE1D"/>
<path d="M752 200H736V216H752V200Z" fill="#FCBE1D"/>
<path d="M768 200H752V216H768V200Z" fill="#FCBE1D"/>
<path d="M784 184H768V200H784V184Z" fill="#FCBE1D"/>
<path d="M784 200H768V216H784V200Z" fill="#FCBE1D"/>
<path d="M784 168H768V184H784V168Z" fill="#FCBE1D"/>
<path d="M800 168H784V184H800V168Z" fill="#FCBE1D"/>
<path d="M816 168H800V184H816V168Z" fill="#FCBE1D"/>
<path d="M832 168H816V184H832V168Z" fill="#FCBE1D"/>
<path d="M800 152H784V168H800V152Z" fill="#FCBE1D"/>
<path d="M816 152H800V168H816V152Z" fill="#FCBE1D"/>
<path d="M800 104H784V120H800V104Z" fill="#1E1848"/>
<path d="M816 104H800V120H816V104Z" fill="#1E1848"/>
<path d="M800 120H784V136H800V120Z" fill="#1E1848"/>
<path d="M816 120H800V136H816V120Z" fill="#1E1848"/>
<path d="M800 136H784V152H800V136Z" fill="#1E1848"/>
<path d="M816 136H800V152H816V136Z" fill="#1E1848"/>
<path d="M832 152H816V168H832V152Z" fill="#FCBE1D"/>
<path d="M224 104H208V120H224V104Z" fill="#FCBE1D"/>
<path d="M224 120H208V136H224V120Z" fill="#FCBE1D"/>
<path d="M224 136H208V152H224V136Z" fill="#FCBE1D"/>
<path d="M224 152H208V168H224V152Z" fill="#FCBE1D"/>
<path d="M224 168H208V184H224V168Z" fill="#FCBE1D"/>
<path d="M352 120H336V136H352V120Z" fill="#FCBE1D"/>
<path d="M352 136H336V152H352V136Z" fill="#FCBE1D"/>
<path d="M352 152H336V168H352V152Z" fill="#FCBE1D"/>
<path d="M352 168H336V184H352V168Z" fill="#FCBE1D"/>
<path d="M240 184H224V200H240V184Z" fill="#FCBE1D"/>
<path d="M256 184H240V200H256V184Z" fill="#FCBE1D"/>
<path d="M336 184H320V200H336V184Z" fill="#FCBE1D"/>
<path d="M304 184H288V200H304V184Z" fill="#FCBE1D"/>
<path d="M272 104H256V120H272V104Z" fill="#1E1848"/>
<path d="M256 56H240V72H256V56Z" fill="#1E1848"/>
<path d="M240 72H224V88H240V72Z" fill="#1E1848"/>
<path d="M224 72H208V88H224V72Z" fill="#1E1848"/>
<path d="M208 72H192V88H208V72Z" fill="#1E1848"/>
<path d="M208 88H192V104H208V88Z" fill="#1E1848"/>
<path d="M208 104H192V120H208V104Z" fill="#1E1848"/>
<path d="M208 120H192V136H208V120Z" fill="#1E1848"/>
<path d="M208 136H192V152H208V136Z" fill="#1E1848"/>
<path d="M208 152H192V168H208V152Z" fill="#1E1848"/>
<path d="M208 168H192V184H208V168Z" fill="#1E1848"/>
<path d="M368 88H352V104H368V88Z" fill="#1E1848"/>
<path d="M352 88H336V104H352V88Z" fill="#1E1848"/>
<path d="M336 72H320V88H336V72Z" fill="#1E1848"/>
<path d="M352 72H336V88H352V72Z" fill="#1E1848"/>
<path d="M272 56H256V72H272V56Z" fill="#1E1848"/>
<path d="M288 56H272V72H288V56Z" fill="#1E1848"/>
<path d="M304 56H288V72H304V56Z" fill="#1E1848"/>
<path d="M320 56H304V72H320V56Z" fill="#1E1848"/>
<path d="M336 56H320V72H336V56Z" fill="#1E1848"/>
<path d="M368 104H352V120H368V104Z" fill="#1E1848"/>
<path d="M368 120H352V136H368V120Z" fill="#1E1848"/>
<path d="M368 136H352V152H368V136Z" fill="#1E1848"/>
<path d="M368 152H352V168H368V152Z" fill="#1E1848"/>
<path d="M368 168H352V184H368V168Z" fill="#1E1848"/>
<path d="M208 184H192V200H208V184Z" fill="#1E1848"/>
<path d="M224 184H208V200H224V184Z" fill="#1E1848"/>
<path d="M224 200H208V216H224V200Z" fill="#1E1848"/>
<path d="M240 200H224V216H240V200Z" fill="#1E1848"/>
<path d="M240 216H224V232H240V216Z" fill="#1E1848"/>
<path d="M256 216H240V232H256V216Z" fill="#1E1848"/>
<path d="M272 216H256V232H272V216Z" fill="#1E1848"/>
<path d="M288 216H272V232H288V216Z" fill="#1E1848"/>
<path d="M304 216H288V232H304V216Z" fill="#1E1848"/>
<path d="M320 216H304V232H320V216Z" fill="#1E1848"/>
<path d="M336 216H320V232H336V216Z" fill="#1E1848"/>
<path d="M352 200H336V216H352V200Z" fill="#1E1848"/>
<path d="M336 200H320V216H336V200Z" fill="#1E1848"/>
<path d="M368 184H352V200H368V184Z" fill="#1E1848"/>
<path d="M352 184H336V200H352V184Z" fill="#1E1848"/>
<path d="M240 56H224V72H240V56Z" fill="#1E1848"/>
<path d="M224 88H208V104H224V88Z" fill="#1E1848"/>
<path d="M288 104H272V120H288V104Z" fill="#1E1848"/>
<path d="M480 104H464V120H480V104Z" fill="#1E1848"/>
<path d="M448 104H432V120H448V104Z" fill="#1E1848"/>
<path d="M464 104H448V120H464V104Z" fill="#1E1848"/>
<path d="M480 104H464V120H480V104Z" fill="#1E1848"/>
<path d="M448 104H432V120H448V104Z" fill="#1E1848"/>
<path d="M464 104H448V120H464V104Z" fill="#1E1848"/>
<path d="M480 56H464V72H480V56Z" fill="#1E1848"/>
<path d="M480 40H464V56H480V40Z" fill="#1E1848"/>
<path d="M480 24H464V40H480V24Z" fill="#1E1848"/>
<path d="M480 8H464V24H480V8Z" fill="#1E1848"/>
<path d="M448 56H432V72H448V56Z" fill="#1E1848"/>
<path d="M432 56H416V72H432V56Z" fill="#1E1848"/>
<path d="M416 72H400V88H416V72Z" fill="#1E1848"/>
<path d="M400 88H384V104H400V88Z" fill="#1E1848"/>
<path d="M400 72H384V88H400V72Z" fill="#1E1848"/>
<path d="M384 88H368V104H384V88Z" fill="#1E1848"/>
<path d="M384 120H368V136H384V120Z" fill="#1E1848"/>
<path d="M384 104H368V120H384V104Z" fill="#1E1848"/>
<path d="M384 136H368V152H384V136Z" fill="#1E1848"/>
<path d="M384 168H368V184H384V168Z" fill="#1E1848"/>
<path d="M400 184H384V200H400V184Z" fill="#1E1848"/>
<path d="M384 184H368V200H384V184Z" fill="#1E1848"/>
<path d="M416 200H400V216H416V200Z" fill="#1E1848"/>
<path d="M400 200H384V216H400V200Z" fill="#1E1848"/>
<path d="M384 152H368V168H384V152Z" fill="#1E1848"/>
<path d="M416 56H400V72H416V56Z" fill="#1E1848"/>
<path d="M464 56H448V72H464V56Z" fill="#1E1848"/>
<path d="M480 216H464V232H480V216Z" fill="#1E1848"/>
<path d="M448 216H432V232H448V216Z" fill="#1E1848"/>
<path d="M432 216H416V232H432V216Z" fill="#1E1848"/>
<path d="M416 216H400V232H416V216Z" fill="#1E1848"/>
<path d="M464 216H448V232H464V216Z" fill="#1E1848"/>
<path d="M528 216H512V232H528V216Z" fill="#1E1848"/>
<path d="M496 216H480V232H496V216Z" fill="#1E1848"/>
<path d="M512 216H496V232H512V216Z" fill="#1E1848"/>
<path d="M528 8H512V24H528V8Z" fill="#1E1848"/>
<path d="M496 8H480V24H496V8Z" fill="#1E1848"/>
<path d="M512 8H496V24H512V8Z" fill="#1E1848"/>
<path d="M544.024 24L544 8L528 8.02386L528.024 24.0238L544.024 24Z" fill="#1E1848"/>
<path d="M544.095 71.9999L544.072 55.9999L528.072 56.0237L528.095 72.0237L544.095 71.9999Z" fill="#1E1848"/>
<path d="M544.048 39.9999L544.024 23.9999L528.024 24.0237L528.048 40.0237L544.048 39.9999Z" fill="#1E1848"/>
<path d="M544.071 55.9999L544.048 39.9999L528.048 40.0237L528.071 56.0237L544.071 55.9999Z" fill="#1E1848"/>
<path d="M544.024 88L544 72L528 72.0239L528.024 88.0238L544.024 88Z" fill="#1E1848"/>
<path d="M544.095 136L544.072 120L528.072 120.024L528.095 136.024L544.095 136Z" fill="#1E1848"/>
<path d="M544.048 104L544.024 87.9999L528.024 88.0237L528.048 104.024L544.048 104Z" fill="#1E1848"/>
<path d="M544.071 120L544.048 104L528.048 104.024L528.071 120.024L544.071 120Z" fill="#1E1848"/>
<path d="M544.024 152L544 136L528 136.024L528.024 152.024L544.024 152Z" fill="#1E1848"/>
<path d="M544.095 200L544.072 184L528.072 184.024L528.095 200.024L544.095 200Z" fill="#1E1848"/>
<path d="M544.048 168L544.024 152L528.024 152.024L528.048 168.024L544.048 168Z" fill="#1E1848"/>
<path d="M560.095 136L560.072 120L544.072 120.024L544.095 136.024L560.095 136Z" fill="#1E1848"/>
<path d="M560.024 152L560 136L544 136.024L544.024 152.024L560.024 152Z" fill="#1E1848"/>
<path d="M560.048 168L560.024 152L544.024 152.024L544.048 168.024L560.048 168Z" fill="#1E1848"/>
<path d="M560.024 184L560 168L544 168.024L544.024 184.024L560.024 184Z" fill="#1E1848"/>
<path d="M560.024 200L560 184L544 184.024L544.024 200.024L560.024 200Z" fill="#1E1848"/>
<path d="M576.024 200L576 184L560 184.024L560.024 200.024L576.024 200Z" fill="#1E1848"/>
<path d="M576.024 216L576 200L560 200.024L560.024 216.024L576.024 216Z" fill="#1E1848"/>
<path d="M592.024 216L592 200L576 200.024L576.024 216.024L592.024 216Z" fill="#1E1848"/>
<path d="M592.024 232L592 216L576 216.024L576.024 232.024L592.024 232Z" fill="#1E1848"/>
<path d="M656.024 232L656 216L640 216.024L640.024 232.024L656.024 232Z" fill="#1E1848"/>
<path d="M672.024 232L672 216L656 216.024L656.024 232.024L672.024 232Z" fill="#1E1848"/>
<path d="M688.024 232L688 216L672 216.024L672.024 232.024L688.024 232Z" fill="#1E1848"/>
<path d="M752.024 232L752 216L736 216.024L736.024 232.024L752.024 232Z" fill="#1E1848"/>
<path d="M736.024 232L736 216L720 216.024L720.024 232.024L736.024 232Z" fill="#1E1848"/>
<path d="M736.024 216L736 200L720 200.024L720.024 216.024L736.024 216Z" fill="#1E1848"/>
<path d="M784.024 232L784 216L768 216.024L768.024 232.024L784.024 232Z" fill="#1E1848"/>
<path d="M800.024 232L800 216L784 216.024L784.024 232.024L800.024 232Z" fill="#1E1848"/>
<path d="M736.024 200L736 184L720 184.024L720.024 200.024L736.024 200Z" fill="#1E1848"/>
<path d="M736.024 184L736 168L720 168.024L720.024 184.024L736.024 184Z" fill="#1E1848"/>
<path d="M736.024 168L736 152L720 152.024L720.024 168.024L736.024 168Z" fill="#1E1848"/>
<path d="M720.024 168L720 152L704 152.024L704.024 168.024L720.024 168Z" fill="#1E1848"/>
<path d="M736.024 152L736 136L720 136.024L720.024 152.024L736.024 152Z" fill="#1E1848"/>
<path d="M736.024 136L736 120L720 120.024L720.024 136.024L736.024 136Z" fill="#1E1848"/>
<path d="M736.024 120L736 104L720 104.024L720.024 120.024L736.024 120Z" fill="#1E1848"/>
<path d="M736.024 104L736 88L720 88.0239L720.024 104.024L736.024 104Z" fill="#1E1848"/>
<path d="M736.024 88L736 72L720 72.0239L720.024 88.0238L736.024 88Z" fill="#1E1848"/>
<path d="M736.024 72L736 56L720 56.0239L720.024 72.0238L736.024 72Z" fill="#1E1848"/>
<path d="M768.024 232L768 216L752 216.024L752.024 232.024L768.024 232Z" fill="#1E1848"/>
<path d="M768.024 72L768 56L752 56.0239L752.024 72.0238L768.024 72Z" fill="#1E1848"/>
<path d="M752.024 72L752 56L736 56.0239L736.024 72.0238L752.024 72Z" fill="#1E1848"/>
<path d="M784.024 72L784 56L768 56.0239L768.024 72.0238L784.024 72Z" fill="#1E1848"/>
<path d="M816.024 72L816 56L800 56.0239L800.024 72.0238L816.024 72Z" fill="#1E1848"/>
<path d="M800.024 72L800 56L784 56.0239L784.024 72.0238L800.024 72Z" fill="#1E1848"/>
<path d="M832.024 72L832 56L816 56.0239L816.024 72.0238L832.024 72Z" fill="#1E1848"/>
<path d="M864.024 72L864 56L848 56.0239L848.024 72.0238L864.024 72Z" fill="#1E1848"/>
<path d="M800.024 216L800 200L784 200.024L784.024 216.024L800.024 216Z" fill="#1E1848"/>
<path d="M816.024 200L816 184L800 184.024L800.024 200.024L816.024 200Z" fill="#1E1848"/>
<path d="M800.024 200L800 184L784 184.024L784.024 200.024L800.024 200Z" fill="#1E1848"/>
<path d="M832.024 200L832 184L816 184.024L816.024 200.024L832.024 200Z" fill="#1E1848"/>
<path d="M864.024 200L864 184L848 184.024L848.024 200.024L864.024 200Z" fill="#1E1848"/>
<path d="M864.024 88L864 72L848 72.0239L848.024 88.0238L864.024 88Z" fill="#1E1848"/>
<path d="M880.024 88L880 72L864 72.0239L864.024 88.0238L880.024 88Z" fill="#1E1848"/>
<path d="M880.024 104L880 88L864 88.0239L864.024 104.024L880.024 104Z" fill="#1E1848"/>
<path d="M896.024 104L896 88L880 88.0239L880.024 104.024L896.024 104Z" fill="#1E1848"/>
<path d="M896.024 120L896 104L880 104.024L880.024 120.024L896.024 120Z" fill="#1E1848"/>
<path d="M896.024 136L896 120L880 120.024L880.024 136.024L896.024 136Z" fill="#1E1848"/>
<path d="M896.024 152L896 136L880 136.024L880.024 152.024L896.024 152Z" fill="#1E1848"/>
<path d="M896.024 168L896 152L880 152.024L880.024 168.024L896.024 168Z" fill="#1E1848"/>
<path d="M896.024 184L896 168L880 168.024L880.024 184.024L896.024 184Z" fill="#1E1848"/>
<path d="M880.024 168L880 152L864 152.024L864.024 168.024L880.024 168Z" fill="#1E1848"/>
<path d="M880.024 184L880 168L864 168.024L864.024 184.024L880.024 184Z" fill="#1E1848"/>
<path d="M896.024 200L896 184L880 184.024L880.024 200.024L896.024 200Z" fill="#1E1848"/>
<path d="M880.024 200L880 184L864 184.024L864.024 200.024L880.024 200Z" fill="#1E1848"/>
<path d="M864.024 184L864 168L848 168.024L848.024 184.024L864.024 184Z" fill="#1E1848"/>
<path d="M688.024 216L688 200L672 200.024L672.024 216.024L688.024 216Z" fill="#1E1848"/>
<path d="M704.024 216L704 200L688 200.024L688.024 216.024L704.024 216Z" fill="#1E1848"/>
<path d="M704.024 200L704 184L688 184.024L688.024 200.024L704.024 200Z" fill="#1E1848"/>
<path d="M720.024 184L720 168L704 168.024L704.024 184.024L720.024 184Z" fill="#1E1848"/>
<path d="M720.024 200L720 184L704 184.024L704.024 200.024L720.024 200Z" fill="#1E1848"/>
<path d="M608.024 232L608 216L592 216.024L592.024 232.024L608.024 232Z" fill="#1E1848"/>
<path d="M624.024 232L624 216L608 216.024L608.024 232.024L624.024 232Z" fill="#1E1848"/>
<path d="M640.024 232L640 216L624 216.024L624.024 232.024L640.024 232Z" fill="#1E1848"/>
<path d="M544.071 184L544.048 168L528.048 168.024L528.071 184.024L544.071 184Z" fill="#1E1848"/>
<path d="M544.048 232L544.024 216L528.024 216.024L528.048 232.024L544.048 232Z" fill="#1E1848"/>
<path d="M544.024 216L544 200L528 200.024L528.024 216.024L544.024 216Z" fill="#1E1848"/>
<path d="M480 120H464V136H480V120Z" fill="#1E1848"/>
<path d="M448 120H432V136H448V120Z" fill="#1E1848"/>
<path d="M464 120H448V136H464V120Z" fill="#1E1848"/>
<path d="M480 136H464V152H480V136Z" fill="#1E1848"/>
<path d="M448 136H432V152H448V136Z" fill="#1E1848"/>
<path d="M464 136H448V152H464V136Z" fill="#1E1848"/>
<path d="M480 152H464V168H480V152Z" fill="#1E1848"/>
<path d="M448 152H432V168H448V152Z" fill="#1E1848"/>
<path d="M464 152H448V168H464V152Z" fill="#1E1848"/>
<path d="M480 168H464V184H480V168Z" fill="#1E1848"/>
<path d="M448 168H432V184H448V168Z" fill="#1E1848"/>
<path d="M464 168H448V184H464V168Z" fill="#1E1848"/>
<path d="M272 120H256V136H272V120Z" fill="#1E1848"/>
<path d="M288 120H272V136H288V120Z" fill="#1E1848"/>
<path d="M272 136H256V152H272V136Z" fill="#1E1848"/>
<path d="M288 136H272V152H288V136Z" fill="#1E1848"/>
<path d="M272 152H256V168H272V152Z" fill="#1E1848"/>
<path d="M288 152H272V168H288V152Z" fill="#1E1848"/>
<path d="M272 168H256V184H272V168Z" fill="#1E1848"/>
<path d="M288 168H272V184H288V168Z" fill="#1E1848"/>
<path d="M272 184H256V200H272V184Z" fill="#FCBE1D"/>
<path d="M288 184H272V200H288V184Z" fill="#FCBE1D"/>
<path d="M256 200H240V216H256V200Z" fill="#FCBE1D"/>
<path d="M272 200H256V216H272V200Z" fill="#FCBE1D"/>
<path d="M288 200H272V216H288V200Z" fill="#FCBE1D"/>
<path d="M304 200H288V216H304V200Z" fill="#FCBE1D"/>
<path d="M320 72H304V88H320V72Z" fill="#FCBE1D"/>
<path d="M656 72H640V88H656V72Z" fill="#FCBE1D"/>
<path d="M640 72H624V88H640V72Z" fill="#FCBE1D"/>
<path d="M624 72H608V88H624V72Z" fill="#FCBE1D"/>
<path d="M608 72H592V88H608V72Z" fill="#FCBE1D"/>
<path d="M592 88H576V104H592V88Z" fill="#FCBE1D"/>
<path d="M672 72H656V88H672V72Z" fill="#FCBE1D"/>
<path d="M656 200H640V216H656V200Z" fill="#FCBE1D"/>
<path d="M640 200H624V216H640V200Z" fill="#FCBE1D"/>
<path d="M624 200H608V216H624V200Z" fill="#FCBE1D"/>
<path d="M608 184H592V200H608V184Z" fill="#FCBE1D"/>
<path d="M656 184H640V200H656V184Z" fill="#FCBE1D"/>
<path d="M640 184H624V200H640V184Z" fill="#FCBE1D"/>
<path d="M624 184H608V200H624V184Z" fill="#FCBE1D"/>
<path d="M672 200H656V216H672V200Z" fill="#FCBE1D"/>
<path d="M672 200H656V216H672V200Z" fill="#FCBE1D"/>
<path d="M688 184H672V200H688V184Z" fill="#FCBE1D"/>
<path d="M688 184H672V200H688V184Z" fill="#FCBE1D"/>
<path d="M704 168H688V184H704V168Z" fill="#FCBE1D"/>
<path d="M704 168H688V184H704V168Z" fill="#FCBE1D"/>
<path d="M688 168H672V184H688V168Z" fill="#FCBE1D"/>
<path d="M688 168H672V184H688V168Z" fill="#FCBE1D"/>
<path d="M672 168H656V184H672V168Z" fill="#FCBE1D"/>
<path d="M672 168H656V184H672V168Z" fill="#FCBE1D"/>
<path d="M672 184H656V200H672V184Z" fill="#FCBE1D"/>
<path d="M672 184H656V200H672V184Z" fill="#FCBE1D"/>
<path d="M656 88H640V104H656V88Z" fill="#FCBE1D"/>
<path d="M640 88H624V104H640V88Z" fill="#FCBE1D"/>
<path d="M624 88H608V104H624V88Z" fill="#FCBE1D"/>
<path d="M656 104H640V120H656V104Z" fill="#1E1848"/>
<path d="M640 104H624V120H640V104Z" fill="#1E1848"/>
<path d="M624 104H608V120H624V104Z" fill="#1E1848"/>
<path d="M656 168H640V184H656V168Z" fill="#1E1848"/>
<path d="M640 168H624V184H640V168Z" fill="#1E1848"/>
<path d="M624 168H608V184H624V168Z" fill="#1E1848"/>
<path d="M656 152H640V168H656V152Z" fill="#1E1848"/>
<path d="M640 152H624V168H640V152Z" fill="#1E1848"/>
<path d="M624 152H608V168H624V152Z" fill="#1E1848"/>
<path d="M704 152H688V168H704V152Z" fill="#1E1848"/>
<path d="M720 136H704V152H720V136Z" fill="#1E1848"/>
<path d="M720 120H704V136H720V120Z" fill="#1E1848"/>
<path d="M720 104H704V120H720V104Z" fill="#1E1848"/>
<path d="M720 88H704V104H720V88Z" fill="#1E1848"/>
<path d="M704 88H688V104H704V88Z" fill="#1E1848"/>
<path d="M704 72H688V88H704V72Z" fill="#1E1848"/>
<path d="M688 72H672V88H688V72Z" fill="#1E1848"/>
<path d="M688 56H672V72H688V56Z" fill="#1E1848"/>
<path d="M672 56H656V72H672V56Z" fill="#1E1848"/>
<path d="M656 56H640V72H656V56Z" fill="#1E1848"/>
<path d="M640 56H624V72H640V56Z" fill="#1E1848"/>
<path d="M624 56H608V72H624V56Z" fill="#1E1848"/>
<path d="M608 56H592V72H608V56Z" fill="#1E1848"/>
<path d="M592 56H576V72H592V56Z" fill="#1E1848"/>
<path d="M592 72H576V88H592V72Z" fill="#1E1848"/>
<path d="M576 88H560V104H576V88Z" fill="#1E1848"/>
<path d="M576 72H560V88H576V72Z" fill="#1E1848"/>
<path d="M560 88H544V104H560V88Z" fill="#1E1848"/>
<path d="M560 104H544V120H560V104Z" fill="#1E1848"/>
<path d="M688 152H672V168H688V152Z" fill="#1E1848"/>
<path d="M672 152H656V168H672V152Z" fill="#1E1848"/>
<path d="M608 88H592V104H608V88Z" fill="#FCBE1D"/>
<path d="M576 104H560V120H576V104Z" fill="#FCBE1D"/>
<path d="M592 120H576V136H592V120Z" fill="#FCBE1D"/>
<path d="M592 136H576V152H592V136Z" fill="#FCBE1D"/>
<path d="M592 152H576V168H592V152Z" fill="#FCBE1D"/>
<path d="M592 168H576V184H592V168Z" fill="#FCBE1D"/>
<path d="M608 120H592V136H608V120Z" fill="#FCBE1D"/>
<path d="M608 136H592V152H608V136Z" fill="#FCBE1D"/>
<path d="M608 152H592V168H608V152Z" fill="#FCBE1D"/>
<path d="M608 168H592V184H608V168Z" fill="#FCBE1D"/>
<path d="M592 104H576V120H592V104Z" fill="#FCBE1D"/>
<path d="M608 104H592V120H608V104Z" fill="#FCBE1D"/>
<path d="M672 104H656V120H672V104Z" fill="#FCBE1D"/>
<path d="M688 104H672V120H688V104Z" fill="#FCBE1D"/>
<path d="M704 104H688V120H704V104Z" fill="#FCBE1D"/>
<path d="M624 120H608V136H624V120Z" fill="#FCBE1D"/>
<path d="M640 120H624V136H640V120Z" fill="#FCBE1D"/>
<path d="M656 120H640V136H656V120Z" fill="#FCBE1D"/>
<path d="M624 136H608V152H624V136Z" fill="#FCBE1D"/>
<path d="M640 136H624V152H640V136Z" fill="#FCBE1D"/>
<path d="M656 136H640V152H656V136Z" fill="#FCBE1D"/>
<path d="M672 120H656V136H672V120Z" fill="#FCBE1D"/>
<path d="M688 120H672V136H688V120Z" fill="#FCBE1D"/>
<path d="M688 120H672V136H688V120Z" fill="#FCBE1D"/>
<path d="M704 120H688V136H704V120Z" fill="#FCBE1D"/>
<path d="M672 136H656V152H672V136Z" fill="#FCBE1D"/>
<path d="M688 136H672V152H688V136Z" fill="#FCBE1D"/>
<path d="M688 136H672V152H688V136Z" fill="#FCBE1D"/>
<path d="M704 136H688V152H704V136Z" fill="#FCBE1D"/>
<path d="M672 88H656V104H672V88Z" fill="#FCBE1D"/>
<path d="M688 88H672V104H688V88Z" fill="#FCBE1D"/>
<path d="M928 120H912V136H928V120Z" fill="#FCBE1D"/>
<path d="M928 136H912V152H928V136Z" fill="#FCBE1D"/>
<path d="M928 152H912V168H928V152Z" fill="#FCBE1D"/>
<path d="M928 168H912V184H928V168Z" fill="#FCBE1D"/>
<path d="M944 184H928V200H944V184Z" fill="#FCBE1D"/>
<path d="M960 200H944V216H960V200Z" fill="#FCBE1D"/>
<path d="M912.095 136L912.072 120L896.072 120.024L896.095 136.024L912.095 136Z" fill="#1E1848"/>
<path d="M912.024 152L912 136L896 136.024L896.024 152.024L912.024 152Z" fill="#1E1848"/>
<path d="M912.048 168L912.024 152L896.024 152.024L896.048 168.024L912.048 168Z" fill="#1E1848"/>
<path d="M912.024 184L912 168L896 168.024L896.024 184.024L912.024 184Z" fill="#1E1848"/>
<path d="M912.024 200L912 184L896 184.024L896.024 200.024L912.024 200Z" fill="#1E1848"/>
<path d="M928.024 200L928 184L912 184.024L912.024 200.024L928.024 200Z" fill="#1E1848"/>
<path d="M928.024 216L928 200L912 200.024L912.024 216.024L928.024 216Z" fill="#1E1848"/>
<path d="M944.024 216L944 200L928 200.024L928.024 216.024L944.024 216Z" fill="#1E1848"/>
<path d="M944.024 232L944 216L928 216.024L928.024 232.024L944.024 232Z" fill="#1E1848"/>
<path d="M1008.02 232L1008 216L992 216.024L992.024 232.024L1008.02 232Z" fill="#1E1848"/>
<path d="M1024.02 232L1024 216L1008 216.024L1008.02 232.024L1024.02 232Z" fill="#1E1848"/>
<path d="M1040.02 232L1040 216L1024 216.024L1024.02 232.024L1040.02 232Z" fill="#1E1848"/>
<path d="M1072.02 168L1072 152L1056 152.024L1056.02 168.024L1072.02 168Z" fill="#1E1848"/>
<path d="M1103.02 136L1103 120L1087 120.024L1087.02 136.024L1103.02 136Z" fill="#1E1848"/>
<path d="M1103.02 152L1103 136L1087 136.024L1087.02 152.024L1103.02 152Z" fill="#1E1848"/>
<path d="M1103.02 168L1103 152L1087 152.024L1087.02 168.024L1103.02 168Z" fill="#1E1848"/>
<path d="M1040.02 216L1040 200L1024 200.024L1024.02 216.024L1040.02 216Z" fill="#1E1848"/>
<path d="M1056.02 216L1056 200L1040 200.024L1040.02 216.024L1056.02 216Z" fill="#1E1848"/>
<path d="M1056.02 200L1056 184L1040 184.024L1040.02 200.024L1056.02 200Z" fill="#1E1848"/>
<path d="M1072.02 184L1072 168L1056 168.024L1056.02 184.024L1072.02 184Z" fill="#1E1848"/>
<path d="M1072.02 200L1072 184L1056 184.024L1056.02 200.024L1072.02 200Z" fill="#1E1848"/>
<path d="M960.024 232L960 216L944 216.024L944.024 232.024L960.024 232Z" fill="#1E1848"/>
<path d="M976.024 232L976 216L960 216.024L960.024 232.024L976.024 232Z" fill="#1E1848"/>
<path d="M992.024 232L992 216L976 216.024L976.024 232.024L992.024 232Z" fill="#1E1848"/>
<path d="M1008 72H992V88H1008V72Z" fill="#FCBE1D"/>
<path d="M992 72H976V88H992V72Z" fill="#FCBE1D"/>
<path d="M976 72H960V88H976V72Z" fill="#FCBE1D"/>
<path d="M960 72H944V88H960V72Z" fill="#FCBE1D"/>
<path d="M944 88H928V104H944V88Z" fill="#FCBE1D"/>
<path d="M1024 72H1008V88H1024V72Z" fill="#FCBE1D"/>
<path d="M1008 200H992V216H1008V200Z" fill="#FCBE1D"/>
<path d="M992 200H976V216H992V200Z" fill="#FCBE1D"/>
<path d="M976 200H960V216H976V200Z" fill="#FCBE1D"/>
<path d="M960 184H944V200H960V184Z" fill="#FCBE1D"/>
<path d="M1008 184H992V200H1008V184Z" fill="#FCBE1D"/>
<path d="M992 184H976V200H992V184Z" fill="#FCBE1D"/>
<path d="M976 184H960V200H976V184Z" fill="#FCBE1D"/>
<path d="M1024 200H1008V216H1024V200Z" fill="#FCBE1D"/>
<path d="M1024 200H1008V216H1024V200Z" fill="#FCBE1D"/>
<path d="M1040 184H1024V200H1040V184Z" fill="#FCBE1D"/>
<path d="M1040 184H1024V200H1040V184Z" fill="#FCBE1D"/>
<path d="M1056 168H1040V184H1056V168Z" fill="#FCBE1D"/>
<path d="M1056 168H1040V184H1056V168Z" fill="#FCBE1D"/>
<path d="M1040 168H1024V184H1040V168Z" fill="#FCBE1D"/>
<path d="M1040 168H1024V184H1040V168Z" fill="#FCBE1D"/>
<path d="M1024 168H1008V184H1024V168Z" fill="#FCBE1D"/>
<path d="M1024 168H1008V184H1024V168Z" fill="#FCBE1D"/>
<path d="M1024 184H1008V200H1024V184Z" fill="#FCBE1D"/>
<path d="M1024 184H1008V200H1024V184Z" fill="#FCBE1D"/>
<path d="M1008 88H992V104H1008V88Z" fill="#FCBE1D"/>
<path d="M992 88H976V104H992V88Z" fill="#FCBE1D"/>
<path d="M976 88H960V104H976V88Z" fill="#FCBE1D"/>
<path d="M1008 104H992V120H1008V104Z" fill="#1E1848"/>
<path d="M992 104H976V120H992V104Z" fill="#1E1848"/>
<path d="M976 104H960V120H976V104Z" fill="#1E1848"/>
<path d="M1008 168H992V184H1008V168Z" fill="#1E1848"/>
<path d="M992 168H976V184H992V168Z" fill="#1E1848"/>
<path d="M976 168H960V184H976V168Z" fill="#1E1848"/>
<path d="M1008 152H992V168H1008V152Z" fill="#1E1848"/>
<path d="M992 152H976V168H992V152Z" fill="#1E1848"/>
<path d="M976 152H960V168H976V152Z" fill="#1E1848"/>
<path d="M1056 152H1040V168H1056V152Z" fill="#1E1848"/>
<path d="M1072 136H1056V152H1072V136Z" fill="#1E1848"/>
<path d="M1072 120H1056V136H1072V120Z" fill="#1E1848"/>
<path d="M1087 120H1071V136H1087V120Z" fill="#1E1848"/>
<path d="M1088 136H1072V152H1088V136Z" fill="#1E1848"/>
<path d="M1088 152H1072V168H1088V152Z" fill="#1E1848"/>
<path d="M1088 152H1072V168H1088V152Z" fill="#1E1848"/>
<path d="M1088 168H1072V184H1088V168Z" fill="#1E1848"/>
<path d="M1072 104H1056V120H1072V104Z" fill="#1E1848"/>
<path d="M1072 88H1056V104H1072V88Z" fill="#1E1848"/>
<path d="M1056 88H1040V104H1056V88Z" fill="#1E1848"/>
<path d="M1056 72H1040V88H1056V72Z" fill="#1E1848"/>
<path d="M1072 72H1056V88H1072V72Z" fill="#1E1848"/>
<path d="M1040 72H1024V88H1040V72Z" fill="#1E1848"/>
<path d="M1040 56H1024V72H1040V56Z" fill="#1E1848"/>
<path d="M1024 56H1008V72H1024V56Z" fill="#1E1848"/>
<path d="M1008 56H992V72H1008V56Z" fill="#1E1848"/>
<path d="M992 56H976V72H992V56Z" fill="#1E1848"/>
<path d="M976 56H960V72H976V56Z" fill="#1E1848"/>
<path d="M960 56H944V72H960V56Z" fill="#1E1848"/>
<path d="M944 56H928V72H944V56Z" fill="#1E1848"/>
<path d="M944 72H928V88H944V72Z" fill="#1E1848"/>
<path d="M928 88H912V104H928V88Z" fill="#1E1848"/>
<path d="M928 72H912V88H928V72Z" fill="#1E1848"/>
<path d="M912 88H896V104H912V88Z" fill="#1E1848"/>
<path d="M912 104H896V120H912V104Z" fill="#1E1848"/>
<path d="M1040 152H1024V168H1040V152Z" fill="#1E1848"/>
<path d="M1024 152H1008V168H1024V152Z" fill="#1E1848"/>
<path d="M960 88H944V104H960V88Z" fill="#FCBE1D"/>
<path d="M928 104H912V120H928V104Z" fill="#FCBE1D"/>
<path d="M944 120H928V136H944V120Z" fill="#FCBE1D"/>
<path d="M944 136H928V152H944V136Z" fill="#FCBE1D"/>
<path d="M944 152H928V168H944V152Z" fill="#FCBE1D"/>
<path d="M944 168H928V184H944V168Z" fill="#FCBE1D"/>
<path d="M960 120H944V136H960V120Z" fill="#FCBE1D"/>
<path d="M960 136H944V152H960V136Z" fill="#FCBE1D"/>
<path d="M960 152H944V168H960V152Z" fill="#FCBE1D"/>
<path d="M960 168H944V184H960V168Z" fill="#FCBE1D"/>
<path d="M944 104H928V120H944V104Z" fill="#FCBE1D"/>
<path d="M960 104H944V120H960V104Z" fill="#FCBE1D"/>
<path d="M1024 104H1008V120H1024V104Z" fill="#FCBE1D"/>
<path d="M1040 104H1024V120H1040V104Z" fill="#FCBE1D"/>
<path d="M1056 104H1040V120H1056V104Z" fill="#FCBE1D"/>
<path d="M1087 72H1071V88H1087V72Z" fill="#FCBE1D"/>
<path d="M1087 88H1071V104H1087V88Z" fill="#FCBE1D"/>
<path d="M1103 72H1087V88H1103V72Z" fill="#FCBE1D"/>
<path d="M1103 88H1087V104H1103V88Z" fill="#FCBE1D"/>
<path d="M1072 72H1056V88H1072V72Z" fill="#1E1848"/>
<path d="M1072 56H1056V72H1072V56Z" fill="#1E1848"/>
<path d="M1103 24H1087V40H1103V24Z" fill="#1E1848"/>
<path d="M1103 8H1087V24H1103V8Z" fill="#1E1848"/>
<path d="M1119 8H1103V24H1119V8Z" fill="#1E1848"/>
<path d="M1135 8H1119V24H1135V8Z" fill="#1E1848"/>
<path d="M1151 8H1135V24H1151V8Z" fill="#1E1848"/>
<path d="M1167 8H1151V24H1167V8Z" fill="#1E1848"/>
<path d="M1135 216H1119V232H1135V216Z" fill="#1E1848"/>
<path d="M1151 216H1135V232H1151V216Z" fill="#1E1848"/>
<path d="M1167 216H1151V232H1167V216Z" fill="#1E1848"/>
<path d="M1183 216H1167V232H1183V216Z" fill="#1E1848"/>
<path d="M1199 216H1183V232H1199V216Z" fill="#1E1848"/>
<path d="M1199 200H1183V216H1199V200Z" fill="#1E1848"/>
<path d="M1215 184H1199V200H1215V184Z" fill="#1E1848"/>
<path d="M1215 200H1199V216H1215V200Z" fill="#1E1848"/>
<path d="M1215 168H1199V184H1215V168Z" fill="#1E1848"/>
<path d="M1199 168H1183V184H1199V168Z" fill="#1E1848"/>
<path d="M1183 168H1167V184H1183V168Z" fill="#1E1848"/>
<path d="M1167 168H1151V184H1167V168Z" fill="#1E1848"/>
<path d="M1167 152H1151V168H1167V152Z" fill="#1E1848"/>
<path d="M1167 104H1151V120H1167V104Z" fill="#1E1848"/>
<path d="M1183 104H1167V120H1183V104Z" fill="#1E1848"/>
<path d="M1199 104H1183V120H1199V104Z" fill="#1E1848"/>
<path d="M1167 24H1151V40H1167V24Z" fill="#1E1848"/>
<path d="M1167 56H1151V72H1167V56Z" fill="#1E1848"/>
<path d="M1183 56H1167V72H1183V56Z" fill="#1E1848"/>
<path d="M1199 56H1183V72H1199V56Z" fill="#1E1848"/>
<path d="M1072 88H1056V104H1072V88Z" fill="#1E1848"/>
<path d="M1072 104H1056V120H1072V104Z" fill="#1E1848"/>
<path d="M1215 72H1199V88H1215V72Z" fill="#1E1848"/>
<path d="M1215 56H1199V72H1215V56Z" fill="#1E1848"/>
<path d="M1215 88H1199V104H1215V88Z" fill="#1E1848"/>
<path d="M1215 104H1199V120H1215V104Z" fill="#1E1848"/>
<path d="M1088 104H1072V120H1088V104Z" fill="#1E1848"/>
<path d="M1104 104H1088V120H1104V104Z" fill="#1E1848"/>
<path d="M1103 168H1087V184H1103V168Z" fill="#1E1848"/>
<path d="M1103 184H1087V200H1103V184Z" fill="#1E1848"/>
<path d="M1103 200H1087V216H1103V200Z" fill="#1E1848"/>
<path d="M1119 200H1103V216H1119V200Z" fill="#1E1848"/>
<path d="M1119 216H1103V232H1119V216Z" fill="#1E1848"/>
<path d="M1119 88H1103V104H1119V88Z" fill="#FCBE1D"/>
<path d="M1119 24H1103V40H1119V24Z" fill="#FCBE1D"/>
<path d="M1135 24H1119V40H1135V24Z" fill="#FCBE1D"/>
<path d="M1151 24H1135V40H1151V24Z" fill="#FCBE1D"/>
<path d="M1087 56H1071V72H1087V56Z" fill="#1E1848"/>
<path d="M1167 136H1151V152H1167V136Z" fill="#1E1848"/>
<path d="M1119 72H1103V88H1119V72Z" fill="#FCBE1D"/>
<path d="M1135 72H1119V88H1135V72Z" fill="#FCBE1D"/>
<path d="M1151 72H1135V88H1151V72Z" fill="#FCBE1D"/>
<path d="M1119 72H1103V88H1119V72Z" fill="#FCBE1D"/>
<path d="M1135 72H1119V88H1135V72Z" fill="#FCBE1D"/>
<path d="M1151 72H1135V88H1151V72Z" fill="#FCBE1D"/>
<path d="M1103 56H1087V72H1103V56Z" fill="#1E1848"/>
<path d="M1167 120H1151V136H1167V120Z" fill="#1E1848"/>
<path d="M1119 56H1103V72H1119V56Z" fill="#FCBE1D"/>
<path d="M1135 56H1119V72H1135V56Z" fill="#FCBE1D"/>
<path d="M1151 56H1135V72H1151V56Z" fill="#FCBE1D"/>
<path d="M1119 56H1103V72H1119V56Z" fill="#FCBE1D"/>
<path d="M1135 56H1119V72H1135V56Z" fill="#FCBE1D"/>
<path d="M1151 56H1135V72H1151V56Z" fill="#FCBE1D"/>
<path d="M1103 40H1087V56H1103V40Z" fill="#1E1848"/>
<path d="M1167 40H1151V56H1167V40Z" fill="#1E1848"/>
<path d="M1119 40H1103V56H1119V40Z" fill="#FCBE1D"/>
<path d="M1135 40H1119V56H1135V40Z" fill="#FCBE1D"/>
<path d="M1151 40H1135V56H1151V40Z" fill="#FCBE1D"/>
<path d="M1119 40H1103V56H1119V40Z" fill="#FCBE1D"/>
<path d="M1135 40H1119V56H1135V40Z" fill="#FCBE1D"/>
<path d="M1151 40H1135V56H1151V40Z" fill="#FCBE1D"/>
<path d="M1151 88H1135V104H1151V88Z" fill="#FCBE1D"/>
<path d="M1167 72H1151V88H1167V72Z" fill="#FCBE1D"/>
<path d="M1183 72H1167V88H1183V72Z" fill="#FCBE1D"/>
<path d="M1167 88H1151V104H1167V88Z" fill="#FCBE1D"/>
<path d="M1183 88H1167V104H1183V88Z" fill="#FCBE1D"/>
<path d="M1199 72H1183V88H1199V72Z" fill="#FCBE1D"/>
<path d="M1199 88H1183V104H1199V88Z" fill="#FCBE1D"/>
<path d="M1135 88H1119V104H1135V88Z" fill="#FCBE1D"/>
<path d="M1135 104H1119V120H1135V104Z" fill="#FCBE1D"/>
<path d="M1151 104H1135V120H1151V104Z" fill="#FCBE1D"/>
<path d="M1151 120H1135V136H1151V120Z" fill="#FCBE1D"/>
<path d="M1135 120H1119V136H1135V120Z" fill="#FCBE1D"/>
<path d="M1119 104H1103V120H1119V104Z" fill="#FCBE1D"/>
<path d="M1119 120H1103V136H1119V120Z" fill="#FCBE1D"/>
<path d="M1135 136H1119V152H1135V136Z" fill="#FCBE1D"/>
<path d="M1151 136H1135V152H1151V136Z" fill="#FCBE1D"/>
<path d="M1151 152H1135V168H1151V152Z" fill="#FCBE1D"/>
<path d="M1135 152H1119V168H1135V152Z" fill="#FCBE1D"/>
<path d="M1119 136H1103V152H1119V136Z" fill="#FCBE1D"/>
<path d="M1119 152H1103V168H1119V152Z" fill="#FCBE1D"/>
<path d="M1135 168H1119V184H1135V168Z" fill="#FCBE1D"/>
<path d="M1151 168H1135V184H1151V168Z" fill="#FCBE1D"/>
<path d="M1151 184H1135V200H1151V184Z" fill="#FCBE1D"/>
<path d="M1135 184H1119V200H1135V184Z" fill="#FCBE1D"/>
<path d="M1151 200H1135V216H1151V200Z" fill="#FCBE1D"/>
<path d="M1135 200H1119V216H1135V200Z" fill="#FCBE1D"/>
<path d="M1183 200H1167V216H1183V200Z" fill="#FCBE1D"/>
<path d="M1199 184H1183V200H1199V184Z" fill="#FCBE1D"/>
<path d="M1183 184H1167V200H1183V184Z" fill="#FCBE1D"/>
<path d="M1167 184H1151V200H1167V184Z" fill="#FCBE1D"/>
<path d="M1167 184H1151V200H1167V184Z" fill="#FCBE1D"/>
<path d="M1167 200H1151V216H1167V200Z" fill="#FCBE1D"/>
<path d="M1119 168H1103V184H1119V168Z" fill="#FCBE1D"/>
<path d="M1119 184H1103V200H1119V184Z" fill="#FCBE1D"/>
<path d="M976 120H960V136H976V120Z" fill="#FCBE1D"/>
<path d="M992 120H976V136H992V120Z" fill="#FCBE1D"/>
<path d="M1008 120H992V136H1008V120Z" fill="#FCBE1D"/>
<path d="M976 136H960V152H976V136Z" fill="#FCBE1D"/>
<path d="M992 136H976V152H992V136Z" fill="#FCBE1D"/>
<path d="M1008 136H992V152H1008V136Z" fill="#FCBE1D"/>
<path d="M1024 120H1008V136H1024V120Z" fill="#FCBE1D"/>
<path d="M1040 120H1024V136H1040V120Z" fill="#FCBE1D"/>
<path d="M1040 120H1024V136H1040V120Z" fill="#FCBE1D"/>
<path d="M1056 120H1040V136H1056V120Z" fill="#FCBE1D"/>
<path d="M1024 136H1008V152H1024V136Z" fill="#FCBE1D"/>
<path d="M1040 136H1024V152H1040V136Z" fill="#FCBE1D"/>
<path d="M1040 136H1024V152H1040V136Z" fill="#FCBE1D"/>
<path d="M1056 136H1040V152H1056V136Z" fill="#FCBE1D"/>
<path d="M1024 88H1008V104H1024V88Z" fill="#FCBE1D"/>
<path d="M1040 88H1024V104H1040V88Z" fill="#FCBE1D"/>
<path d="M320 88H304V104H320V88Z" fill="#FCBE1D"/>
<path d="M320 104H304V120H320V104Z" fill="#FCBE1D"/>
<path d="M320 120H304V136H320V120Z" fill="#FCBE1D"/>
<path d="M320 136H304V152H320V136Z" fill="#FCBE1D"/>
<path d="M320 152H304V168H320V152Z" fill="#FCBE1D"/>
<path d="M320 168H304V184H320V168Z" fill="#FCBE1D"/>
<path d="M320 184H304V200H320V184Z" fill="#FCBE1D"/>
<path d="M320 200H304V216H320V200Z" fill="#FCBE1D"/>
<path d="M800 72H784V88H800V72Z" fill="#FCBE1D"/>
<path d="M784 72H768V88H784V72Z" fill="#FCBE1D"/>
<path d="M768 72H752V88H768V72Z" fill="#FCBE1D"/>
<path d="M752 72H736V88H752V72Z" fill="#FCBE1D"/>
<path d="M752 88H736V104H752V88Z" fill="#FCBE1D"/>
<path d="M768 136H752V152H768V136Z" fill="#FCBE1D"/>
<path d="M768 120H752V136H768V120Z" fill="#FCBE1D"/>
<path d="M768 104H752V120H768V104Z" fill="#FCBE1D"/>
<path d="M768 152H752V168H768V152Z" fill="#FCBE1D"/>
<path d="M768 88H752V104H768V88Z" fill="#FCBE1D"/>
<path d="M784 136H768V152H784V136Z" fill="#FCBE1D"/>
<path d="M784 120H768V136H784V120Z" fill="#FCBE1D"/>
<path d="M784 104H768V120H784V104Z" fill="#FCBE1D"/>
<path d="M784 152H768V168H784V152Z" fill="#FCBE1D"/>
<path d="M784 88H768V104H784V88Z" fill="#FCBE1D"/>
<path d="M816 72H800V88H816V72Z" fill="#FCBE1D"/>
<path d="M832 72H816V88H832V72Z" fill="#FCBE1D"/>
<path d="M800 88H784V104H800V88Z" fill="#FCBE1D"/>
<path d="M816 88H800V104H816V88Z" fill="#FCBE1D"/>
<path d="M832 88H816V104H832V88Z" fill="#FCBE1D"/>
<path d="M864 88H848V104H864V88Z" fill="#FCBE1D"/>
<path d="M880 104H864V120H880V104Z" fill="#FCBE1D"/>
<path d="M880 120H864V136H880V120Z" fill="#FCBE1D"/>
<path d="M880 136H864V152H880V136Z" fill="#FCBE1D"/>
<path d="M864 104H848V120H864V104Z" fill="#FCBE1D"/>
<path d="M864 120H848V136H864V120Z" fill="#FCBE1D"/>
<path d="M864 136H848V152H864V136Z" fill="#FCBE1D"/>
<path d="M864 136H848V152H864V136Z" fill="#FCBE1D"/>
<path d="M832 104H816V120H832V104Z" fill="#1E1848"/>
<path d="M832 120H816V136H832V120Z" fill="#1E1848"/>
<path d="M832 136H816V152H832V136Z" fill="#1E1848"/>
<path d="M832 136H816V152H832V136Z" fill="#1E1848"/>
<path d="M848 168H832V184H848V168Z" fill="#FCBE1D"/>
<path d="M848 152H832V168H848V152Z" fill="#FCBE1D"/>
<path d="M848.024 72L848 56L832 56.0239L832.024 72.0238L848.024 72Z" fill="#1E1848"/>
<path d="M848.024 200L848 184L832 184.024L832.024 200.024L848.024 200Z" fill="#1E1848"/>
<path d="M848 72H832V88H848V72Z" fill="#FCBE1D"/>
<path d="M848 88H832V104H848V88Z" fill="#FCBE1D"/>
<path d="M848 104H832V120H848V104Z" fill="#FCBE1D"/>
<path d="M848 120H832V136H848V120Z" fill="#FCBE1D"/>
<path d="M848 136H832V152H848V136Z" fill="#1E1848"/>
<path d="M848 136H832V152H848V136Z" fill="#FCBE1D"/>
<path d="M864 152H848V168H864V152Z" fill="#FCBE1D"/>
</svg>
