<?xml version="1.0" encoding="UTF-8"?>
<svg xmlns="http://www.w3.org/2000/svg" viewBox="0 0 124 240" fill="none"><ellipse cx="62" cy="228" rx="38" ry="7" fill="#26215C" opacity="0.10"></ellipse><g><rect x="36" y="168" width="20" height="36" rx="3" fill="#3C3489"></rect><rect x="62" y="168" width="20" height="36" rx="3" fill="#3C3489"></rect><rect x="28" y="195" width="30" height="14" rx="4" fill="#26215C"></rect><rect x="58" y="195" width="30" height="14" rx="4" fill="#26215C"></rect><rect x="33" y="198" width="7" height="5" rx="1" fill="#534AB7" opacity="0.6"></rect><rect x="43" y="198" width="7" height="5" rx="1" fill="#534AB7" opacity="0.6"></rect><rect x="63" y="198" width="7" height="5" rx="1" fill="#534AB7" opacity="0.6"></rect><rect x="73" y="198" width="7" height="5" rx="1" fill="#534AB7" opacity="0.6"></rect></g><g style="animation: byte-storm-body 3s ease-in-out infinite; transform-origin: center;"><rect x="22" y="95" width="80" height="80" rx="6" fill="#7F77DD"></rect><rect x="22" y="105" width="80" height="2" fill="#3C3489" opacity="0.35"></rect><rect x="22" y="113" width="80" height="2" fill="#3C3489" opacity="0.35"></rect><rect x="22" y="121" width="80" height="2" fill="#3C3489" opacity="0.35"></rect><rect x="22" y="129" width="80" height="2" fill="#3C3489" opacity="0.35"></rect><rect x="22" y="137" width="80" height="2" fill="#3C3489" opacity="0.35"></rect><rect x="38" y="138" width="48" height="28" rx="4" fill="#3C3489" opacity="0.5"></rect><rect x="46" y="143" width="14" height="3" rx="1" fill="#AFA9EC" opacity="0.7"></rect><rect x="46" y="149" width="10" height="3" rx="1" fill="#AFA9EC" opacity="0.5"></rect><rect x="2" y="105" width="22" height="16" rx="5" fill="#7F77DD"></rect><rect x="0" y="116" width="16" height="14" rx="4" fill="#534AB7"></rect><rect x="100" y="105" width="22" height="16" rx="5" fill="#7F77DD"></rect><rect x="108" y="116" width="16" height="14" rx="4" fill="#534AB7"></rect><g><rect x="40" y="28" width="5" height="20" rx="2" fill="#534AB7"></rect><rect x="79" y="28" width="5" height="20" rx="2" fill="#534AB7"></rect><rect x="38" y="20" width="9" height="9" rx="2" fill="#FCDE5A" style="animation: tip-strobe 2s ease-in-out infinite; transform-origin: 42px 24px;"></rect><rect x="77" y="20" width="9" height="9" rx="2" fill="#FCDE5A" style="animation: tip-strobe 2s ease-in-out 0.5s infinite; transform-origin: 81px 24px;"></rect></g><rect x="18" y="40" width="88" height="62" rx="10" fill="#7F77DD"></rect><rect x="18" y="40" width="3" height="62" fill="#AFA9EC" opacity="0.3"></rect><rect x="28" y="52" width="24" height="18" rx="3" fill="white" opacity="0.95"></rect><rect x="72" y="52" width="24" height="18" rx="3" fill="white" opacity="0.95"></rect><rect x="29" y="52" width="22" height="8" rx="2" fill="#26215C" style="animation: byte-eye-flash 4s ease-in-out infinite; transform-origin: center bottom;"></rect><rect x="73" y="52" width="22" height="8" rx="2" fill="#26215C" style="animation: byte-eye-flash 4s ease-in-out 0.1s infinite; transform-origin: center bottom;"></rect><rect x="32" y="54" width="14" height="12" fill="#26215C"></rect><rect x="76" y="54" width="14" height="12" fill="#26215C"></rect><rect x="34" y="56" width="5" height="4" rx="1" fill="white" opacity="0.9"></rect><rect x="78" y="56" width="5" height="4" rx="1" fill="white" opacity="0.9"></rect><path d="M44 82 Q62 92 80 82" fill="none" stroke="#26215C" stroke-width="2.5" stroke-linecap="round"></path></g></svg>