<?xml version="1.0" encoding="UTF-8"?>
<svg xmlns="http://www.w3.org/2000/svg" viewBox="0 0 140 240" fill="none"><ellipse cx="62" cy="225" rx="42" ry="8" fill="#501313" opacity="0.10"></ellipse><rect x="32" y="168" width="24" height="38" rx="4" fill="#A32D2D"></rect><rect x="62" y="168" width="24" height="38" rx="4" fill="#A32D2D"></rect><rect x="24" y="196" width="36" height="16" rx="5" fill="#791F1F"></rect><rect x="58" y="196" width="36" height="16" rx="5" fill="#791F1F"></rect><g style="animation: fist-pump-l 0.9s ease-in-out 0s infinite; transform-origin: 10px 118px;"><rect x="-4" y="102" width="26" height="20" rx="6" fill="#E24B4A"></rect><rect x="-8" y="118" width="22" height="18" rx="6" fill="#F09595" opacity="0.7"></rect></g><g style="animation: fist-pump-r 0.9s ease-in-out 0.45s infinite; transform-origin: 114px 118px;"><rect x="102" y="102" width="26" height="20" rx="6" fill="#E24B4A"></rect><rect x="108" y="118" width="22" height="18" rx="6" fill="#F09595" opacity="0.7"></rect></g><g style="animation: crash-bounce 0.9s ease-in-out 0s infinite; transform-origin: 62px 200px;"><g style="animation: crash-squish 0.9s ease-in-out 0s infinite; transform-origin: 62px 160px;"><rect x="18" y="95" width="88" height="80" rx="8" fill="#E24B4A"></rect><rect x="32" y="110" width="60" height="44" rx="4" fill="#A32D2D" opacity="0.4"></rect><rect x="40" y="118" width="44" height="28" rx="4" fill="#A32D2D"></rect><rect x="46" y="123" width="20" height="3" rx="1" fill="#F09595" opacity="0.7"></rect><rect x="46" y="129" width="14" height="3" rx="1" fill="#F09595" opacity="0.5"></rect><rect x="46" y="135" width="10" height="3" rx="1" fill="#F09595" opacity="0.4"></rect><circle cx="24" cy="36" r="16" fill="#E24B4A"></circle><circle cx="24" cy="36" r="10" fill="#F09595" opacity="0.6"></circle><circle cx="100" cy="36" r="16" fill="#E24B4A"></circle><circle cx="100" cy="36" r="10" fill="#F09595" opacity="0.6"></circle><rect x="12" y="36" width="100" height="66" rx="12" fill="#E24B4A"></rect><rect x="34" y="74" width="56" height="24" rx="8" fill="#F09595" opacity="0.45"></rect><rect x="22" y="46" width="28" height="8" rx="3" fill="#501313"></rect><rect x="74" y="46" width="28" height="8" rx="3" fill="#501313"></rect><rect x="24" y="54" width="26" height="20" rx="4" fill="white" opacity="0.95"></rect><rect x="74" y="54" width="26" height="20" rx="4" fill="white" opacity="0.95"></rect><rect x="25" y="54" width="24" height="9" rx="2" fill="#501313"></rect><rect x="75" y="54" width="24" height="9" rx="2" fill="#501313"></rect><rect x="28" y="57" width="18" height="14" fill="#501313"></rect><rect x="78" y="57" width="18" height="14" fill="#501313"></rect><rect x="30" y="59" width="6" height="5" rx="1" fill="white" opacity="0.9"></rect><rect x="80" y="59" width="6" height="5" rx="1" fill="white" opacity="0.9"></rect><rect x="50" y="80" width="24" height="12" rx="5" fill="#791F1F" opacity="0.8"></rect><path d="M32 94 Q62 108 92 94" fill="none" stroke="#791F1F" stroke-width="3" stroke-linecap="round"></path></g></g></svg>