<?xml version="1.0" encoding="UTF-8"?>
<svg xmlns="http://www.w3.org/2000/svg" viewBox="0 0 140 240" fill="none"><ellipse cx="62" cy="225" rx="38" ry="7" fill="#26215C" opacity="0.10"></ellipse><rect x="36" y="168" width="20" height="38" rx="3" fill="#3C3489"></rect><rect x="62" y="168" width="20" height="38" rx="3" fill="#3C3489"></rect><rect x="28" y="196" width="32" height="14" rx="4" fill="#26215C"></rect><rect x="60" y="196" width="32" height="14" rx="4" fill="#26215C"></rect><g style="animation: phone-tilt 2s ease-in-out 0.3s infinite; transform-origin: 114px 130px;"><rect x="108" y="118" width="14" height="18" rx="3" fill="#FAEEDA"></rect><rect x="110" y="118" width="12" height="20" rx="3" fill="#2C2C2A"></rect><rect x="112" y="120" width="8" height="14" rx="2" fill="#7F77DD" opacity="0.7"></rect></g><g style="animation: luna-bop 0.8s ease-in-out 0s infinite; transform-origin: 62px 100px;"><rect x="22" y="97" width="80" height="76" rx="6" fill="#534AB7"></rect><rect x="59" y="97" width="6" height="76" fill="#3C3489" opacity="0.5"></rect><rect x="34" y="110" width="8" height="8" rx="2" fill="#7F77DD" opacity="0.5"></rect><rect x="34" y="122" width="8" height="3" rx="1" fill="#AFA9EC" opacity="0.4"></rect><rect x="38" y="142" width="48" height="22" rx="4" fill="#3C3489" opacity="0.6"></rect><rect x="62" y="142" width="2" height="22" fill="#26215C" opacity="0.4"></rect><rect x="2" y="106" width="22" height="16" rx="5" fill="#534AB7"></rect><rect x="0" y="118" width="16" height="14" rx="4" fill="#FAEEDA"></rect><rect x="100" y="106" width="22" height="16" rx="5" fill="#534AB7"></rect><rect x="16" y="34" width="92" height="68" rx="12" fill="#FAEEDA"></rect><path d="M16,58 Q14,34 30,22 Q46,10 62,10 Q78,10 94,22 Q110,34 108,58 Q100,42 62,38 Q24,42 16,58Z" fill="#2C2C2A"></path><rect x="16" y="56" width="10" height="40" rx="4" fill="#2C2C2A"></rect><rect x="18" y="90" width="8" height="10" rx="4" fill="#2C2C2A" opacity="0.7"></rect><rect x="22" y="42" width="8" height="30" rx="3" fill="#2C2C2A"></rect><path d="M16,58 Q16,34 62,32 Q108,34 108,58" fill="none" stroke="#534AB7" stroke-width="5" stroke-linecap="round" style="animation: hp-pulse 0.8s ease-in-out 0s infinite; transform-origin: 62px 44px;"></path><rect x="10" y="54" width="12" height="18" rx="5" fill="#534AB7"></rect><rect x="102" y="54" width="12" height="18" rx="5" fill="#534AB7"></rect><rect x="34" y="56" width="22" height="18" rx="4" fill="white" opacity="0.95"></rect><rect x="68" y="56" width="22" height="18" rx="4" fill="white" opacity="0.95"></rect><rect x="35" y="56" width="20" height="8" rx="2" fill="#3C3489"></rect><rect x="69" y="56" width="20" height="8" rx="2" fill="#3C3489"></rect><rect x="38" y="58" width="14" height="12" fill="#3C3489"></rect><rect x="72" y="58" width="14" height="12" fill="#3C3489"></rect><rect x="40" y="60" width="5" height="4" rx="1" fill="white" opacity="0.9"></rect><rect x="74" y="60" width="5" height="4" rx="1" fill="white" opacity="0.9"></rect><rect x="48" y="60" width="4" height="4" rx="1" fill="#7F77DD" opacity="0.6" style="animation: star-twinkle 1.2s ease-in-out 0s infinite; transform-origin: 50px 62px;"></rect><rect x="82" y="60" width="4" height="4" rx="1" fill="#7F77DD" opacity="0.6" style="animation: star-twinkle 1.2s ease-in-out 0.5s infinite; transform-origin: 84px 62px;"></rect><rect x="54" y="78" width="16" height="8" rx="3" fill="#EF9F27" opacity="0.4"></rect><path d="M42 88 Q62 96 82 88" fill="none" stroke="#BA7517" stroke-width="1.5" stroke-linecap="round" opacity="0.8"></path><rect x="4" y="20" width="8" height="8" rx="2" fill="#7F77DD" opacity="0.35" style="animation: star-twinkle 2.1s ease-in-out 0.2s infinite; transform-origin: 8px 24px;"></rect><rect x="112" y="28" width="6" height="6" rx="1" fill="#AFA9EC" opacity="0.4" style="animation: star-twinkle 1.7s ease-in-out 0.9s infinite; transform-origin: 115px 31px;"></rect></g></svg>