<?xml version="1.0" encoding="UTF-8"?>
<svg xmlns="http://www.w3.org/2000/svg" viewBox="0 0 140 240" fill="none"><ellipse cx="62" cy="228" rx="36" ry="6" fill="#1C1A12" opacity="0.10"></ellipse><g style="animation: leg-l-step 1.6s ease-in-out 0s infinite; transform-origin: 46px 170px;"><rect x="36" y="168" width="20" height="38" rx="3" fill="#3B6D11"></rect><rect x="38" y="170" width="16" height="34" rx="3" fill="#639922"></rect><rect x="38" y="172" width="16" height="2" rx="1" fill="#3B6D11" opacity="0.4"></rect><rect x="38" y="180" width="16" height="2" rx="1" fill="#3B6D11" opacity="0.4"></rect><rect x="38" y="188" width="16" height="2" rx="1" fill="#3B6D11" opacity="0.4"></rect><rect x="30" y="198" width="30" height="14" rx="5" fill="#3B6D11"></rect><rect x="32" y="200" width="26" height="10" rx="4" fill="#639922"></rect></g><g style="animation: leg-r-step 1.6s ease-in-out 0.8s infinite; transform-origin: 78px 170px;"><rect x="62" y="168" width="20" height="38" rx="3" fill="#3C3489"></rect><rect x="64" y="170" width="16" height="34" rx="3" fill="#7F77DD"></rect><rect x="64" y="173" width="16" height="2" rx="1" fill="#3C3489" opacity="0.4"></rect><rect x="64" y="181" width="16" height="2" rx="1" fill="#3C3489" opacity="0.4"></rect><rect x="64" y="189" width="16" height="2" rx="1" fill="#3C3489" opacity="0.4"></rect><rect x="58" y="198" width="32" height="14" rx="5" fill="#3C3489"></rect><rect x="60" y="200" width="26" height="10" rx="4" fill="#7F77DD"></rect><rect x="84" y="204" width="10" height="6" rx="3" fill="#3C3489"></rect></g><g style="animation: null-lean 3.2s ease-in-out 0.2s infinite; transform-origin: 62px 130px;"><rect x="22" y="100" width="42" height="72" rx="6" fill="#3B6D11"></rect><rect x="24" y="102" width="38" height="68" rx="5" fill="#639922"></rect><rect x="62" y="100" width="40" height="72" rx="6" fill="#3C3489"></rect><rect x="62" y="102" width="38" height="68" rx="5" fill="#7F77DD"></rect><rect x="59" y="98" width="6" height="76" fill="#1C1A12" opacity="0.12"></rect><rect x="22" y="97" width="18" height="11" rx="5" fill="white" opacity="0.92"></rect><rect x="38" y="93" width="16" height="10" rx="5" fill="white" opacity="0.92"></rect><rect x="52" y="95" width="18" height="11" rx="5" fill="white" opacity="0.92"></rect><rect x="66" y="93" width="16" height="10" rx="5" fill="white" opacity="0.92"></rect><rect x="80" y="96" width="18" height="11" rx="5" fill="white" opacity="0.92"></rect><rect x="20" y="102" width="84" height="3" rx="1" fill="#1C1A12" opacity="0.1"></rect><g style="animation: arm-l-swing 1.6s ease-in-out 0.1s infinite; transform-origin: 22px 108px;"><rect x="2" y="102" width="22" height="14" rx="5" fill="#3B6D11"></rect><rect x="4" y="104" width="18" height="10" rx="4" fill="#639922"></rect><rect x="0" y="112" width="16" height="12" rx="5" fill="#A8885A"></rect><rect x="2" y="114" width="12" height="9" rx="4" fill="#C8A87A"></rect></g><g style="animation: arm-r-swing 1.6s ease-in-out 0.9s infinite; transform-origin: 100px 108px;"><rect x="100" y="102" width="22" height="14" rx="5" fill="#3C3489"></rect><rect x="102" y="104" width="18" height="10" rx="4" fill="#7F77DD"></rect><rect x="108" y="112" width="16" height="12" rx="5" fill="#A8885A"></rect><rect x="110" y="114" width="12" height="9" rx="4" fill="#C8A87A"></rect><rect x="116" y="98" width="16" height="20" rx="3" fill="white"></rect><rect x="117" y="99" width="14" height="18" rx="2" fill="#FCDE5A"></rect><rect x="121" y="101" width="6" height="2" rx="1" fill="#BA7517"></rect><rect x="124" y="103" width="2" height="3" rx="1" fill="#BA7517"></rect><rect x="121" y="106" width="4" height="2" rx="1" fill="#BA7517"></rect><rect x="121" y="110" width="3" height="3" rx="1" fill="#BA7517"></rect></g><rect x="52" y="88" width="20" height="16" rx="4" fill="#A8885A"></rect><rect x="54" y="88" width="16" height="14" rx="3" fill="#C8A87A"></rect><rect x="20" y="36" width="84" height="60" rx="14" fill="#A8885A"></rect><rect x="22" y="38" width="80" height="58" rx="12" fill="#C8A87A"></rect><path d="M22,54 Q16,36 28,24 Q40,14 56,20 Q44,24 34,40Z" fill="#27500A"></path><path d="M22,54 Q20,40 32,28 Q44,22 56,20 Q42,26 32,44Z" fill="#3B6D11"></path><path d="M84,44 Q100,38 102,52 Q102,62 96,64 Q96,52 84,44Z" fill="#27500A"></path><path d="M34,42 Q26,22 36,4 Q40,-4 46,4 Q52,22 48,42Z" fill="#3B6D11"></path><path d="M36,42 Q30,24 38,8 Q41,2 45,8 Q49,24 46,42Z" fill="#639922"></path><circle cx="41" cy="3" r="6" fill="#FCDE5A" style="animation: jester-bell 1.6s ease-in-out 0s infinite; transform-origin: 41px 9px;"></circle><circle cx="41" cy="3" r="2" fill="#BA7517"></circle><path d="M68,42 Q64,26 70,14 Q74,6 80,14 Q86,26 84,42Z" fill="#3C3489"></path><path d="M70,42 Q66,28 72,16 Q75,10 80,16 Q85,28 82,42Z" fill="#7F77DD"></path><circle cx="77" cy="12" r="5" fill="#FCDE5A" style="animation: jester-bell 1.6s ease-in-out 0.3s infinite; transform-origin: 77px 17px;"></circle><circle cx="77" cy="12" r="2" fill="#BA7517"></circle><rect x="20" y="38" width="84" height="10" rx="5" fill="#27500A"></rect><rect x="22" y="40" width="80" height="6" rx="3" fill="#3B6D11"></rect><circle cx="30" cy="43" r="2" fill="#FCDE5A" opacity="0.85"></circle><circle cx="46" cy="43" r="2" fill="#FCDE5A" opacity="0.85"></circle><circle cx="62" cy="43" r="2" fill="#FCDE5A" opacity="0.85"></circle><circle cx="78" cy="43" r="2" fill="#FCDE5A" opacity="0.85"></circle><circle cx="94" cy="43" r="2" fill="#FCDE5A" opacity="0.85"></circle><rect x="28" y="54" width="24" height="18" rx="4" fill="white" opacity="0.95"></rect><rect x="70" y="56" width="22" height="16" rx="4" fill="white" opacity="0.95"></rect><rect x="29" y="54" width="22" height="9" rx="3" fill="#1C1A12"></rect><rect x="32" y="56" width="16" height="14" fill="#1C1A12"></rect><rect x="71" y="56" width="20" height="8" rx="3" fill="#1C1A12"></rect><rect x="74" y="58" width="14" height="12" fill="#1C1A12"></rect><g style="animation: q-bounce 1.6s ease-in-out 0.1s infinite; transform-origin: 40px 63px;"><rect x="35" y="57" width="8" height="2.5" rx="1" fill="#27500A"></rect><rect x="41" y="59.5" width="2.5" height="3" rx="1" fill="#27500A"></rect><rect x="35" y="62.5" width="5" height="2.5" rx="1" fill="#27500A"></rect><rect x="35" y="66.5" width="3" height="3" rx="1" fill="#27500A"></rect></g><g style="animation: q-bounce 1.6s ease-in-out 0.5s infinite; transform-origin: 81px 64px;"><rect x="75" y="59" width="7" height="2" rx="1" fill="#27500A"></rect><rect x="80" y="61" width="2" height="2.5" rx="1" fill="#27500A"></rect><rect x="75" y="63.5" width="4" height="2" rx="1" fill="#27500A"></rect><rect x="75" y="67" width="2.5" height="2.5" rx="1" fill="#27500A"></rect></g><rect x="30" y="55" width="5" height="4" rx="2" fill="white" opacity="0.7"></rect><rect x="72" y="57" width="4" height="3" rx="2" fill="white" opacity="0.7"></rect><path d="M28 52 Q38 46 52 52" fill="none" stroke="#1C1A12" stroke-width="2.5" stroke-linecap="round"></path><rect x="70" y="53" width="22" height="3" rx="1.5" fill="#1C1A12"></rect><path d="M30 80 Q62 96 90 78" fill="none" stroke="#1C1A12" stroke-width="2.5" stroke-linecap="round"></path><ellipse cx="30" cy="76" rx="9" ry="6" fill="#F09595" opacity="0.35"></ellipse><ellipse cx="24" cy="106" rx="7" ry="7" fill="#FCDE5A" style="animation: jester-coin 0.8s linear 0s infinite; transform-origin: 24px 106px;"></ellipse><circle cx="24" cy="106" r="3" fill="#BA7517"></circle><circle cx="6" cy="78" r="3.5" fill="#639922" opacity="0.4" style="animation: null-idle 1.6s ease-in-out 0s infinite; transform-origin: center;"></circle><circle cx="120" cy="68" r="3" fill="#7F77DD" opacity="0.4" style="animation: null-idle 1.6s ease-in-out 0.6s infinite; transform-origin: center;"></circle><circle cx="4" cy="128" r="3" fill="#FCDE5A" opacity="0.4" style="animation: null-idle 1.6s ease-in-out 1.2s infinite; transform-origin: center;"></circle><circle cx="118" cy="108" r="3.5" fill="#639922" opacity="0.4" style="animation: null-idle 1.6s ease-in-out 1.8s infinite; transform-origin: center;"></circle><circle cx="7" cy="48" r="2.5" fill="#7F77DD" opacity="0.4" style="animation: null-idle 1.6s ease-in-out 0.9s infinite; transform-origin: center;"></circle></g></svg>