<?xml version="1.0" encoding="UTF-8"?>
<svg xmlns="http://www.w3.org/2000/svg" viewBox="0 0 140 240" fill="none"><ellipse cx="62" cy="222" rx="36" ry="6" fill="#2C2C2A" opacity="0.12"></ellipse><g style="animation: zero-float 3.2s ease-in-out 0s infinite; transform-origin: 62px 160px;"><g style="animation: zero-sway 5s ease-in-out 0s infinite; transform-origin: 62px 130px;"><path d="M22,130 Q16,175 24,208 Q38,216 62,214 Q86,216 100,208 Q108,175 102,130 Z" fill="#444441"></path><path d="M40,208 Q42,215 62,214 Q82,215 84,208 Z" fill="#2C2C2A" opacity="0.4"></path><line x1="44" y1="140" x2="40" y2="208" stroke="#2C2C2A" stroke-width="1" opacity="0.3"></line><line x1="62" y1="138" x2="62" y2="210" stroke="#2C2C2A" stroke-width="1" opacity="0.3"></line><line x1="80" y1="140" x2="84" y2="208" stroke="#2C2C2A" stroke-width="1" opacity="0.3"></line><rect x="52" y="112" width="20" height="16" rx="3" fill="#D3D1C7"></rect><rect x="16" y="40" width="92" height="76" rx="12" fill="#D3D1C7"></rect><path d="M16,68 Q14,40 30,28 Q46,16 62,14 Q78,16 94,28 Q110,40 108,68 Q100,52 62,50 Q24,52 16,68Z" fill="#2C2C2A"></path><rect x="24" y="56" width="28" height="22" rx="5" fill="#2C2C2A"></rect><rect x="72" y="56" width="28" height="22" rx="5" fill="#2C2C2A"></rect><rect x="27" y="59" width="22" height="16" rx="3" fill="#378ADD" opacity="0.7"></rect><rect x="75" y="59" width="22" height="16" rx="3" fill="#378ADD" opacity="0.7"></rect><rect x="31" y="62" width="14" height="10" rx="2" fill="#B5D4F4" opacity="0.9"></rect><rect x="79" y="62" width="14" height="10" rx="2" fill="#B5D4F4" opacity="0.9"></rect><rect x="35" y="64" width="6" height="5" rx="1" fill="white" opacity="0.95" style="animation: eye-pulse 2s ease-in-out 0s infinite; transform-origin: center;"></rect><rect x="83" y="64" width="6" height="5" rx="1" fill="white" opacity="0.95" style="animation: eye-pulse 2s ease-in-out 0.4s infinite; transform-origin: center;"></rect><path d="M42 96 Q62 100 82 96" fill="none" stroke="#888780" stroke-width="1.5" stroke-linecap="round" opacity="0.6"></path></g></g><g style="animation: hand-float 2.8s ease-in-out 0.4s infinite; transform-origin: 10px 154px;"><rect x="0" y="144" width="20" height="20" rx="6" fill="#444441"></rect><rect x="2" y="128" width="22" height="18" rx="5" fill="#444441"></rect></g><g style="animation: hand-float 2.8s ease-in-out 1.4s infinite; transform-origin: 114px 154px;"><rect x="104" y="144" width="20" height="20" rx="6" fill="#444441"></rect><rect x="100" y="128" width="22" height="18" rx="5" fill="#444441"></rect></g><rect x="2" y="48" width="10" height="4" rx="2" fill="#378ADD" opacity="0.45" style="animation: particle-l 2.4s linear 0s infinite; transform-origin: center;"></rect><rect x="112" y="60" width="10" height="4" rx="2" fill="#378ADD" opacity="0.35" style="animation: particle-r 2.4s linear 0.6s infinite; transform-origin: center;"></rect><rect x="4" y="72" width="8" height="4" rx="2" fill="#85B7EB" opacity="0.4" style="animation: particle-l 2.4s linear 1.2s infinite; transform-origin: center;"></rect><rect x="110" y="90" width="12" height="4" rx="2" fill="#B5D4F4" opacity="0.35" style="animation: particle-r 2.4s linear 1.8s infinite; transform-origin: center;"></rect></svg>