<svg width="272" height="336" viewBox="0 0 272 336" fill="none" xmlns="http://www.w3.org/2000/svg">
<g clip-path="url(#clip0_17_6890)">
<path d="M64 16H48V32H64V16Z" fill="#FCBE1D"/>
<path d="M224 16H208V32H224V16Z" fill="#FCBE1D"/>
<path d="M48 32H32V48H48V32Z" fill="#FCBE1D"/>
<path d="M64 32H48V48H64V32Z" fill="#FCBE1D"/>
<path d="M80 32H64V48H80V32Z" fill="#FCBE1D"/>
<path d="M208 32H192V48H208V32Z" fill="#FCBE1D"/>
<path d="M224 32H208V48H224V32Z" fill="#FCBE1D"/>
<path d="M240 32H224V48H240V32Z" fill="#FCBE1D"/>
<path d="M32 48H16V64H32V48Z" fill="#FCBE1D"/>
<path d="M96 48H80V64H96V48Z" fill="#FCBE1D"/>
<path d="M192 48H176V64H192V48Z" fill="#FCBE1D"/>
<path d="M256 48H240V64H256V48Z" fill="#FCBE1D"/>
<path d="M32 64H16V80H32V64Z" fill="#FCBE1D"/>
<path d="M96 64H80V80H96V64Z" fill="#FCBE1D"/>
<path d="M192 64H176V80H192V64Z" fill="#FCBE1D"/>
<path d="M256 64H240V80H256V64Z" fill="#FCBE1D"/>
<path d="M48 80H32V96H48V80Z" fill="#FCBE1D"/>
<path d="M64 80H48V96H64V80Z" fill="#FCBE1D"/>
<path d="M80 80H64V96H80V80Z" fill="#FCBE1D"/>
<path d="M96 80H80V96H96V80Z" fill="#FCBE1D"/>
<path d="M192 80H176V96H192V80Z" fill="#FCBE1D"/>
<path d="M208 80H192V96H208V80Z" fill="#FCBE1D"/>
<path d="M224 80H208V96H224V80Z" fill="#FCBE1D"/>
<path d="M240 80H224V96H240V80Z" fill="#FCBE1D"/>
<path d="M48 96H32V112H48V96Z" fill="#FCBE1D"/>
<path d="M64 96H48V112H64V96Z" fill="#FCBE1D"/>
<path d="M80 96H64V112H80V96Z" fill="#FCBE1D"/>
<path d="M96 96H80V112H96V96Z" fill="#FCBE1D"/>
<path d="M112 96H96V112H112V96Z" fill="#FCBE1D"/>
<path d="M128 96H112V112H128V96Z" fill="#FCBE1D"/>
<path d="M144 96H128V112H144V96Z" fill="#FCBE1D"/>
<path d="M160 96H144V112H160V96Z" fill="#FCBE1D"/>
<path d="M176 96H160V112H176V96Z" fill="#FCBE1D"/>
<path d="M192 96H176V112H192V96Z" fill="#FCBE1D"/>
<path d="M208 96H192V112H208V96Z" fill="#FCBE1D"/>
<path d="M224 96H208V112H224V96Z" fill="#FCBE1D"/>
<path d="M240 96H224V112H240V96Z" fill="#FCBE1D"/>
<path d="M48 112H32V128H48V112Z" fill="#FCBE1D"/>
<path d="M96 112H80V128H96V112Z" fill="#FCBE1D"/>
<path d="M96 112H80V128H96V112Z" fill="white"/>
<path d="M96 128H80V144H96V128Z" fill="white"/>
<path d="M112 112H96V128H112V112Z" fill="#FCBE1D"/>
<path d="M128 112H112V128H128V112Z" fill="#FCBE1D"/>
<path d="M144 112H128V128H144V112Z" fill="#FCBE1D"/>
<path d="M160 112H144V128H160V112Z" fill="#FCBE1D"/>
<path d="M176 112H160V128H176V112Z" fill="#FCBE1D"/>
<path d="M224 112H208V128H224V112Z" fill="#FCBE1D"/>
<path d="M240 112H224V128H240V112Z" fill="#FCBE1D"/>
<path d="M48 128H32V144H48V128Z" fill="#FCBE1D"/>
<path d="M112 128H96V144H112V128Z" fill="#FCBE1D"/>
<path d="M128 128H112V144H128V128Z" fill="#FCBE1D"/>
<path d="M144 128H128V144H144V128Z" fill="#FCBE1D"/>
<path d="M160 128H144V144H160V128Z" fill="#FCBE1D"/>
<path d="M176 128H160V144H176V128Z" fill="#FCBE1D"/>
<path d="M224 128H208V144H224V128Z" fill="#FCBE1D"/>
<path d="M240 128H224V144H240V128Z" fill="#FCBE1D"/>
<path d="M48 144H32V160H48V144Z" fill="#FCBE1D"/>
<path d="M64 144H48V160H64V144Z" fill="#FCBE1D"/>
<path d="M80 144H64V160H80V144Z" fill="#FCBE1D"/>
<path d="M96 144H80V160H96V144Z" fill="#FCBE1D"/>
<path d="M112 144H96V160H112V144Z" fill="#FCBE1D"/>
<path d="M128 144H112V160H128V144Z" fill="#FCBE1D"/>
<path d="M160 144H144V160H160V144Z" fill="#FCBE1D"/>
<path d="M176 144H160V160H176V144Z" fill="#FCBE1D"/>
<path d="M192 144H176V160H192V144Z" fill="#FCBE1D"/>
<path d="M208 144H192V160H208V144Z" fill="#FCBE1D"/>
<path d="M224 144H208V160H224V144Z" fill="#FCBE1D"/>
<path d="M240 144H224V160H240V144Z" fill="#FCBE1D"/>
<path d="M48 160H32V176H48V160Z" fill="#FCBE1D"/>
<path d="M64 160H48V176H64V160Z" fill="#FCBE1D"/>
<path d="M208 160H192V176H208V160Z" fill="#FCBE1D"/>
<path d="M192 160H176V176H192V160Z" fill="#FCBE1D"/>
<path d="M192 176H176V192H192V176Z" fill="#FCBE1D"/>
<path d="M224 160H208V176H224V160Z" fill="#FCBE1D"/>
<path d="M240 160H224V176H240V160Z" fill="#FCBE1D"/>
<path d="M64 176H48V192H64V176Z" fill="#FCBE1D"/>
<path d="M208 176H192V192H208V176Z" fill="#FCBE1D"/>
<path d="M224 176H208V192H224V176Z" fill="#FCBE1D"/>
<path d="M80 192H64V208H80V192Z" fill="#FCBE1D"/>
<path d="M96 192H80V208H96V192Z" fill="#FCBE1D"/>
<path d="M112 192H96V208H112V192Z" fill="#FCBE1D"/>
<path d="M128 192H112V208H128V192Z" fill="#FCBE1D"/>
<path d="M144 192H128V208H144V192Z" fill="#FCBE1D"/>
<path d="M160 192H144V208H160V192Z" fill="#FCBE1D"/>
<path d="M176 192H160V208H176V192Z" fill="#FCBE1D"/>
<path d="M192 192H176V208H192V192Z" fill="#FCBE1D"/>
<path d="M208 192H192V208H208V192Z" fill="#FCBE1D"/>
<path d="M80 208H64V224H80V208Z" fill="#FCBE1D"/>
<path d="M208 208H192V224H208V208Z" fill="#FCBE1D"/>
<path d="M80 224H64V240H80V224Z" fill="#FCBE1D"/>
<path d="M208 224H192V240H208V224Z" fill="#FCBE1D"/>
<path d="M80 240H64V256H80V240Z" fill="#FCBE1D"/>
<path d="M208 240H192V256H208V240Z" fill="#FCBE1D"/>
<path d="M80 256H64V272H80V256Z" fill="#FCBE1D"/>
<path d="M96 256H80V272H96V256Z" fill="#FCBE1D"/>
<path d="M112 256H96V272H112V256Z" fill="#FCBE1D"/>
<path d="M128 256H112V272H128V256Z" fill="#FCBE1D"/>
<path d="M144 256H128V272H144V256Z" fill="#FCBE1D"/>
<path d="M160 256H144V272H160V256Z" fill="#FCBE1D"/>
<path d="M176 256H160V272H176V256Z" fill="#FCBE1D"/>
<path d="M192 256H176V272H192V256Z" fill="#FCBE1D"/>
<path d="M208 256H192V272H208V256Z" fill="#FCBE1D"/>
<path d="M48 48H32V64H48V48Z" fill="#B88200"/>
<path d="M64 48H48V64H64V48Z" fill="#B88200"/>
<path d="M80 48H64V64H80V48Z" fill="#B88200"/>
<path d="M208 48H192V64H208V48Z" fill="#B88200"/>
<path d="M224 48H208V64H224V48Z" fill="#B88200"/>
<path d="M240 48H224V64H240V48Z" fill="#B88200"/>
<path d="M48 64H32V80H48V64Z" fill="#B88200"/>
<path d="M80 64H64V80H80V64Z" fill="#B88200"/>
<path d="M208 64H192V80H208V64Z" fill="#B88200"/>
<path d="M240 64H224V80H240V64Z" fill="#B88200"/>
<path d="M80 160H64V176H80V160Z" fill="#FCBE1D"/>
<path d="M96 160H80V176H96V160Z" fill="#FCBE1D"/>
<path d="M96 176H80V192H96V176Z" fill="#FCBE1D"/>
<path d="M112 160H96V176H112V160Z" fill="#B88200"/>
<path d="M128 160H112V176H128V160Z" fill="#B88200"/>
<path d="M160 160H144V176H160V160Z" fill="#B88200"/>
<path d="M176 160H160V176H176V160Z" fill="#B88200"/>
<path d="M80 176H64V192H80V176Z" fill="#FCBE1D"/>
<path d="M112 176H96V192H112V176Z" fill="#B88200"/>
<path d="M176 176H160V192H176V176Z" fill="#B88200"/>
<path d="M80 272H64V288H80V272Z" fill="#B88200"/>
<path d="M80 288H64V304H80V288Z" fill="#B88200"/>
<path d="M96 272H80V288H96V272Z" fill="#B88200"/>
<path d="M192 272H176V288H192V272Z" fill="#B88200"/>
<path d="M208 272H192V288H208V272Z" fill="#B88200"/>
<path d="M208 288H192V304H208V288Z" fill="#B88200"/>
<path d="M32 80H16V96H32V80Z" fill="black"/>
<path d="M112 80H96V96H112V80Z" fill="black"/>
<path d="M128 80H112V96H128V80Z" fill="black"/>
<path d="M144 80H128V96H144V80Z" fill="black"/>
<path d="M160 80H144V96H160V80Z" fill="black"/>
<path d="M176 80H160V96H176V80Z" fill="black"/>
<path d="M256 80H240V96H256V80Z" fill="black"/>
<path d="M32 96H16V112H32V96Z" fill="black"/>
<path d="M256 96H240V112H256V96Z" fill="black"/>
<path d="M32 112H16V128H32V112Z" fill="black"/>
<path d="M80 112H64V128H80V112Z" fill="black"/>
<path d="M224 112H208V128H224V112Z" fill="white"/>
<path d="M256 112H240V128H256V112Z" fill="black"/>
<path d="M32 128H16V144H32V128Z" fill="black"/>
<path d="M80 128H64V144H80V128Z" fill="black"/>
<path d="M224 128H208V144H224V128Z" fill="white"/>
<path d="M256 128H240V144H256V128Z" fill="black"/>
<path d="M32 144H16V160H32V144Z" fill="black"/>
<path d="M144 144H128V160H144V144Z" fill="black"/>
<path d="M256 144H240V160H256V144Z" fill="black"/>
<path d="M32 160H16V176H32V160Z" fill="black"/>
<path d="M144 160H128V176H144V160Z" fill="black"/>
<path d="M256 160H240V176H256V160Z" fill="black"/>
<path d="M48 176H32V192H48V176Z" fill="black"/>
<path d="M128 176H112V192H128V176Z" fill="black"/>
<path d="M144 176H128V192H144V176Z" fill="black"/>
<path d="M160 176H144V192H160V176Z" fill="black"/>
<path d="M240 176H224V192H240V176Z" fill="black"/>
<path d="M64 192H48V208H64V192Z" fill="black"/>
<path d="M224 192H208V208H224V192Z" fill="black"/>
<path d="M64 208H48V224H64V208Z" fill="black"/>
<path d="M224 208H208V224H224V208Z" fill="black"/>
<path d="M64 224H48V240H64V224Z" fill="black"/>
<path d="M224 224H208V240H224V224Z" fill="black"/>
<path d="M64 240H48V256H64V240Z" fill="black"/>
<path d="M224 240H208V256H224V240Z" fill="black"/>
<path d="M64 256H48V272H64V256Z" fill="black"/>
<path d="M224 256H208V272H224V256Z" fill="black"/>
<path d="M64 272H48V288H64V272Z" fill="black"/>
<path d="M112 272H96V288H112V272Z" fill="black"/>
<path d="M128 272H112V288H128V272Z" fill="black"/>
<path d="M144 272H128V288H144V272Z" fill="black"/>
<path d="M160 272H144V288H160V272Z" fill="black"/>
<path d="M176 272H160V288H176V272Z" fill="black"/>
<path d="M224 272H208V288H224V272Z" fill="black"/>
<path d="M64 288H48V304H64V288Z" fill="black"/>
<path d="M96 288H80V304H96V288Z" fill="black"/>
<path d="M192 288H176V304H192V288Z" fill="black"/>
<path d="M224 288H208V304H224V288Z" fill="black"/>
<path d="M64 304H48V320H64V304Z" fill="black"/>
<path d="M96 304H80V320H96V304Z" fill="black"/>
<path d="M192 304H176V320H192V304Z" fill="black"/>
<path d="M224 304H208V320H224V304Z" fill="black"/>
<path d="M64 320H48V336H64V320Z" fill="black"/>
<path d="M80 320H64V336H80V320Z" fill="black"/>
<path d="M96 320H80V336H96V320Z" fill="black"/>
<path d="M192 320H176V336H192V320Z" fill="black"/>
<path d="M208 320H192V336H208V320Z" fill="black"/>
<path d="M224 320H208V336H224V320Z" fill="black"/>
<path d="M64 112H48V128H64V112Z" fill="white"/>
<path d="M192 112H176V128H192V112Z" fill="white"/>
<path d="M208 112H192V128H208V112Z" fill="black"/>
<path d="M64 128H48V144H64V128Z" fill="white"/>
<path d="M192 128H176V144H192V128Z" fill="white"/>
<path d="M208 128H192V144H208V128Z" fill="black"/>
<path d="M96 208H80V224H96V208Z" fill="white"/>
<path d="M112 208H96V224H112V208Z" fill="white"/>
<path d="M128 208H112V224H128V208Z" fill="white"/>
<path d="M160 208H144V224H160V208Z" fill="white"/>
<path d="M144 208H128V224H144V208Z" fill="white"/>
<path d="M128 224H112V240H128V224Z" fill="white"/>
<path d="M144 224H128V240H144V224Z" fill="white"/>
<path d="M160 224H144V240H160V224Z" fill="white"/>
<path d="M144 240H128V256H144V240Z" fill="white"/>
<path d="M176 208H160V224H176V208Z" fill="white"/>
<path d="M192 208H176V224H192V208Z" fill="white"/>
<path d="M96 224H80V240H96V224Z" fill="#FCBE1D"/>
<path d="M112 224H96V240H112V224Z" fill="white"/>
<path d="M176 224H160V240H176V224Z" fill="white"/>
<path d="M192 224H176V240H192V224Z" fill="#FCBE1D"/>
<path d="M96 240H80V256H96V240Z" fill="#FCBE1D"/>
<path d="M112 240H96V256H112V240Z" fill="#FCBE1D"/>
<path d="M128 240H112V256H128V240Z" fill="white"/>
<path d="M160 240H144V256H160V240Z" fill="white"/>
<path d="M176 240H160V256H176V240Z" fill="#FCBE1D"/>
<path d="M192 240H176V256H192V240Z" fill="#FCBE1D"/>
<path d="M80 304H64V320H80V304Z" fill="#5C4024"/>
<path d="M208 304H192V320H208V304Z" fill="#5C4024"/>
<path d="M32 32H16V48H32V32Z" fill="black"/>
<path d="M48 16H32V32H48V16Z" fill="black"/>
<path d="M48 16H32V32H48V16Z" fill="black"/>
<path d="M80 16H64V32H80V16Z" fill="black"/>
<path d="M96 32H80V48H96V32Z" fill="black"/>
<path d="M112 48H96V64H112V48Z" fill="black"/>
<path d="M112 64H96V80H112V64Z" fill="black"/>
<path d="M176 64H160V80H176V64Z" fill="black"/>
<path d="M176 48H160V64H176V48Z" fill="black"/>
<path d="M192 32H176V48H192V32Z" fill="black"/>
<path d="M208 16H192V32H208V16Z" fill="black"/>
<path d="M240 16H224V32H240V16Z" fill="black"/>
<path d="M256 32H240V48H256V32Z" fill="black"/>
<path d="M64 64H48V80H64V64Z" fill="white"/>
<path d="M224 64H208V80H224V64Z" fill="white"/>
</g>
<path d="M272 48H256V64H272V48Z" fill="black"/>
<path d="M272 64H256V80H272V64Z" fill="black"/>
<path d="M224 0H208V16H224V0Z" fill="black"/>
<path d="M63 0H47V16H63V0Z" fill="black"/>
<path d="M16 64H0V80H16V64Z" fill="black"/>
<path d="M16 48H0V64H16V48Z" fill="black"/>
<defs>
<clipPath id="clip0_17_6890">
<rect width="240" height="320" fill="white" transform="translate(16 16)"/>
</clipPath>
</defs>
</svg>
