<svg xmlns="http://www.w3.org/2000/svg" viewBox="0 0 784 224" shape-rendering="crispEdges">
<rect x="64" y="0" width="16" height="16" fill="#000000"/>
<rect x="80" y="0" width="16" height="16" fill="#000000"/>
<rect x="96" y="0" width="16" height="16" fill="#000000"/>
<rect x="112" y="0" width="16" height="16" fill="#000000"/>
<rect x="128" y="0" width="16" height="16" fill="#000000"/>
<rect x="144" y="0" width="16" height="16" fill="#000000"/>
<rect x="160" y="0" width="16" height="16" fill="#000000"/>
<rect x="176" y="0" width="16" height="16" fill="#000000"/>
<rect x="192" y="0" width="16" height="16" fill="#000000"/>
<rect x="208" y="0" width="16" height="16" fill="#000000"/>
<rect x="224" y="0" width="16" height="16" fill="#000000"/>
<rect x="240" y="0" width="16" height="16" fill="#000000"/>
<rect x="256" y="0" width="16" height="16" fill="#000000"/>
<rect x="272" y="0" width="16" height="16" fill="#000000"/>
<rect x="288" y="0" width="16" height="16" fill="#000000"/>
<rect x="304" y="0" width="16" height="16" fill="#000000"/>
<rect x="320" y="0" width="16" height="16" fill="#000000"/>
<rect x="336" y="0" width="16" height="16" fill="#000000"/>
<rect x="352" y="0" width="16" height="16" fill="#000000"/>
<rect x="368" y="0" width="16" height="16" fill="#000000"/>
<rect x="384" y="0" width="16" height="16" fill="#000000"/>
<rect x="400" y="0" width="16" height="16" fill="#000000"/>
<rect x="416" y="0" width="16" height="16" fill="#000000"/>
<rect x="432" y="0" width="16" height="16" fill="#000000"/>
<rect x="448" y="0" width="16" height="16" fill="#000000"/>
<rect x="464" y="0" width="16" height="16" fill="#000000"/>
<rect x="480" y="0" width="16" height="16" fill="#000000"/>
<rect x="496" y="0" width="16" height="16" fill="#000000"/>
<rect x="512" y="0" width="16" height="16" fill="#000000"/>
<rect x="528" y="0" width="16" height="16" fill="#000000"/>
<rect x="544" y="0" width="16" height="16" fill="#000000"/>
<rect x="560" y="0" width="16" height="16" fill="#000000"/>
<rect x="576" y="0" width="16" height="16" fill="#000000"/>
<rect x="592" y="0" width="16" height="16" fill="#000000"/>
<rect x="608" y="0" width="16" height="16" fill="#000000"/>
<rect x="624" y="0" width="16" height="16" fill="#000000"/>
<rect x="640" y="0" width="16" height="16" fill="#000000"/>
<rect x="656" y="0" width="16" height="16" fill="#000000"/>
<rect x="672" y="0" width="16" height="16" fill="#000000"/>
<rect x="688" y="0" width="16" height="16" fill="#000000"/>
<rect x="704" y="0" width="16" height="16" fill="#000000"/>
<rect x="48" y="16" width="16" height="16" fill="#000000"/>
<rect x="64" y="16" width="16" height="16" fill="#FFE98F"/>
<rect x="80" y="16" width="16" height="16" fill="#FFE98F"/>
<rect x="96" y="16" width="16" height="16" fill="#FFE98F"/>
<rect x="112" y="16" width="16" height="16" fill="#FFE98F"/>
<rect x="128" y="16" width="16" height="16" fill="#FFE98F"/>
<rect x="144" y="16" width="16" height="16" fill="#FFE98F"/>
<rect x="160" y="16" width="16" height="16" fill="#FFE98F"/>
<rect x="176" y="16" width="16" height="16" fill="#FFE98F"/>
<rect x="192" y="16" width="16" height="16" fill="#FFE98F"/>
<rect x="208" y="16" width="16" height="16" fill="#FFE98F"/>
<rect x="224" y="16" width="16" height="16" fill="#FFE98F"/>
<rect x="240" y="16" width="16" height="16" fill="#FFE98F"/>
<rect x="256" y="16" width="16" height="16" fill="#FFE98F"/>
<rect x="272" y="16" width="16" height="16" fill="#FFE98F"/>
<rect x="288" y="16" width="16" height="16" fill="#FFE98F"/>
<rect x="304" y="16" width="16" height="16" fill="#FFE98F"/>
<rect x="320" y="16" width="16" height="16" fill="#FFE98F"/>
<rect x="336" y="16" width="16" height="16" fill="#FFE98F"/>
<rect x="352" y="16" width="16" height="16" fill="#FFE98F"/>
<rect x="368" y="16" width="16" height="16" fill="#FFE98F"/>
<rect x="384" y="16" width="16" height="16" fill="#FFE98F"/>
<rect x="400" y="16" width="16" height="16" fill="#FFE98F"/>
<rect x="416" y="16" width="16" height="16" fill="#FFE98F"/>
<rect x="432" y="16" width="16" height="16" fill="#FFE98F"/>
<rect x="448" y="16" width="16" height="16" fill="#FFE98F"/>
<rect x="464" y="16" width="16" height="16" fill="#FFE98F"/>
<rect x="480" y="16" width="16" height="16" fill="#FFE98F"/>
<rect x="496" y="16" width="16" height="16" fill="#FFE98F"/>
<rect x="512" y="16" width="16" height="16" fill="#FFE98F"/>
<rect x="528" y="16" width="16" height="16" fill="#FFE98F"/>
<rect x="544" y="16" width="16" height="16" fill="#FFE98F"/>
<rect x="560" y="16" width="16" height="16" fill="#FFE98F"/>
<rect x="576" y="16" width="16" height="16" fill="#FFE98F"/>
<rect x="592" y="16" width="16" height="16" fill="#FFE98F"/>
<rect x="608" y="16" width="16" height="16" fill="#FFE98F"/>
<rect x="624" y="16" width="16" height="16" fill="#FFE98F"/>
<rect x="640" y="16" width="16" height="16" fill="#FFE98F"/>
<rect x="656" y="16" width="16" height="16" fill="#FFE98F"/>
<rect x="672" y="16" width="16" height="16" fill="#FFE98F"/>
<rect x="688" y="16" width="16" height="16" fill="#FFE98F"/>
<rect x="704" y="16" width="16" height="16" fill="#FFE98F"/>
<rect x="720" y="16" width="16" height="16" fill="#000000"/>
<rect x="32" y="32" width="16" height="16" fill="#000000"/>
<rect x="48" y="32" width="16" height="16" fill="#FFE98F"/>
<rect x="64" y="32" width="16" height="16" fill="#F5C518"/>
<rect x="80" y="32" width="16" height="16" fill="#F5C518"/>
<rect x="96" y="32" width="16" height="16" fill="#F5C518"/>
<rect x="112" y="32" width="16" height="16" fill="#F5C518"/>
<rect x="128" y="32" width="16" height="16" fill="#F5C518"/>
<rect x="144" y="32" width="16" height="16" fill="#F5C518"/>
<rect x="160" y="32" width="16" height="16" fill="#F5C518"/>
<rect x="176" y="32" width="16" height="16" fill="#F5C518"/>
<rect x="192" y="32" width="16" height="16" fill="#F5C518"/>
<rect x="208" y="32" width="16" height="16" fill="#F5C518"/>
<rect x="224" y="32" width="16" height="16" fill="#F5C518"/>
<rect x="240" y="32" width="16" height="16" fill="#F5C518"/>
<rect x="256" y="32" width="16" height="16" fill="#F5C518"/>
<rect x="272" y="32" width="16" height="16" fill="#F5C518"/>
<rect x="288" y="32" width="16" height="16" fill="#F5C518"/>
<rect x="304" y="32" width="16" height="16" fill="#F5C518"/>
<rect x="320" y="32" width="16" height="16" fill="#F5C518"/>
<rect x="336" y="32" width="16" height="16" fill="#F5C518"/>
<rect x="352" y="32" width="16" height="16" fill="#F5C518"/>
<rect x="368" y="32" width="16" height="16" fill="#F5C518"/>
<rect x="384" y="32" width="16" height="16" fill="#F5C518"/>
<rect x="400" y="32" width="16" height="16" fill="#F5C518"/>
<rect x="416" y="32" width="16" height="16" fill="#F5C518"/>
<rect x="432" y="32" width="16" height="16" fill="#F5C518"/>
<rect x="448" y="32" width="16" height="16" fill="#F5C518"/>
<rect x="464" y="32" width="16" height="16" fill="#F5C518"/>
<rect x="480" y="32" width="16" height="16" fill="#F5C518"/>
<rect x="496" y="32" width="16" height="16" fill="#F5C518"/>
<rect x="512" y="32" width="16" height="16" fill="#F5C518"/>
<rect x="528" y="32" width="16" height="16" fill="#F5C518"/>
<rect x="544" y="32" width="16" height="16" fill="#F5C518"/>
<rect x="560" y="32" width="16" height="16" fill="#F5C518"/>
<rect x="576" y="32" width="16" height="16" fill="#F5C518"/>
<rect x="592" y="32" width="16" height="16" fill="#F5C518"/>
<rect x="608" y="32" width="16" height="16" fill="#F5C518"/>
<rect x="624" y="32" width="16" height="16" fill="#F5C518"/>
<rect x="640" y="32" width="16" height="16" fill="#F5C518"/>
<rect x="656" y="32" width="16" height="16" fill="#F5C518"/>
<rect x="672" y="32" width="16" height="16" fill="#F5C518"/>
<rect x="688" y="32" width="16" height="16" fill="#F5C518"/>
<rect x="704" y="32" width="16" height="16" fill="#F5C518"/>
<rect x="720" y="32" width="16" height="16" fill="#FFE98F"/>
<rect x="736" y="32" width="16" height="16" fill="#000000"/>
<rect x="16" y="48" width="16" height="16" fill="#000000"/>
<rect x="32" y="48" width="16" height="16" fill="#FFE98F"/>
<rect x="48" y="48" width="16" height="16" fill="#F5C518"/>
<rect x="64" y="48" width="16" height="16" fill="#F5C518"/>
<rect x="80" y="48" width="16" height="16" fill="#F5C518"/>
<rect x="96" y="48" width="16" height="16" fill="#F5C518"/>
<rect x="112" y="48" width="16" height="16" fill="#F5C518"/>
<rect x="128" y="48" width="16" height="16" fill="#F5C518"/>
<rect x="144" y="48" width="16" height="16" fill="#F5C518"/>
<rect x="160" y="48" width="16" height="16" fill="#F5C518"/>
<rect x="176" y="48" width="16" height="16" fill="#F5C518"/>
<rect x="192" y="48" width="16" height="16" fill="#F5C518"/>
<rect x="208" y="48" width="16" height="16" fill="#F5C518"/>
<rect x="224" y="48" width="16" height="16" fill="#F5C518"/>
<rect x="240" y="48" width="16" height="16" fill="#F5C518"/>
<rect x="256" y="48" width="16" height="16" fill="#F5C518"/>
<rect x="272" y="48" width="16" height="16" fill="#F5C518"/>
<rect x="288" y="48" width="16" height="16" fill="#F5C518"/>
<rect x="304" y="48" width="16" height="16" fill="#F5C518"/>
<rect x="320" y="48" width="16" height="16" fill="#F5C518"/>
<rect x="336" y="48" width="16" height="16" fill="#F5C518"/>
<rect x="352" y="48" width="16" height="16" fill="#F5C518"/>
<rect x="368" y="48" width="16" height="16" fill="#F5C518"/>
<rect x="384" y="48" width="16" height="16" fill="#F5C518"/>
<rect x="400" y="48" width="16" height="16" fill="#F5C518"/>
<rect x="416" y="48" width="16" height="16" fill="#F5C518"/>
<rect x="432" y="48" width="16" height="16" fill="#F5C518"/>
<rect x="448" y="48" width="16" height="16" fill="#F5C518"/>
<rect x="464" y="48" width="16" height="16" fill="#F5C518"/>
<rect x="480" y="48" width="16" height="16" fill="#F5C518"/>
<rect x="496" y="48" width="16" height="16" fill="#F5C518"/>
<rect x="512" y="48" width="16" height="16" fill="#F5C518"/>
<rect x="528" y="48" width="16" height="16" fill="#F5C518"/>
<rect x="544" y="48" width="16" height="16" fill="#F5C518"/>
<rect x="560" y="48" width="16" height="16" fill="#F5C518"/>
<rect x="576" y="48" width="16" height="16" fill="#F5C518"/>
<rect x="592" y="48" width="16" height="16" fill="#F5C518"/>
<rect x="608" y="48" width="16" height="16" fill="#F5C518"/>
<rect x="624" y="48" width="16" height="16" fill="#F5C518"/>
<rect x="640" y="48" width="16" height="16" fill="#F5C518"/>
<rect x="656" y="48" width="16" height="16" fill="#F5C518"/>
<rect x="672" y="48" width="16" height="16" fill="#F5C518"/>
<rect x="688" y="48" width="16" height="16" fill="#F5C518"/>
<rect x="704" y="48" width="16" height="16" fill="#F5C518"/>
<rect x="720" y="48" width="16" height="16" fill="#F5C518"/>
<rect x="736" y="48" width="16" height="16" fill="#FFE98F"/>
<rect x="752" y="48" width="16" height="16" fill="#000000"/>
<rect x="0" y="64" width="16" height="16" fill="#000000"/>
<rect x="16" y="64" width="16" height="16" fill="#FFE98F"/>
<rect x="32" y="64" width="16" height="16" fill="#F5C518"/>
<rect x="48" y="64" width="16" height="16" fill="#F5C518"/>
<rect x="64" y="64" width="16" height="16" fill="#F5C518"/>
<rect x="80" y="64" width="16" height="16" fill="#F5C518"/>
<rect x="96" y="64" width="16" height="16" fill="#F5C518"/>
<rect x="112" y="64" width="16" height="16" fill="#F5C518"/>
<rect x="128" y="64" width="16" height="16" fill="#F5C518"/>
<rect x="144" y="64" width="16" height="16" fill="#F5C518"/>
<rect x="160" y="64" width="16" height="16" fill="#F5C518"/>
<rect x="176" y="64" width="16" height="16" fill="#FFFFFF"/>
<rect x="192" y="64" width="16" height="16" fill="#F5C518"/>
<rect x="208" y="64" width="16" height="16" fill="#FFFFFF"/>
<rect x="224" y="64" width="16" height="16" fill="#F5C518"/>
<rect x="240" y="64" width="16" height="16" fill="#FFFFFF"/>
<rect x="256" y="64" width="16" height="16" fill="#FFFFFF"/>
<rect x="272" y="64" width="16" height="16" fill="#FFFFFF"/>
<rect x="288" y="64" width="16" height="16" fill="#F5C518"/>
<rect x="304" y="64" width="16" height="16" fill="#FFFFFF"/>
<rect x="320" y="64" width="16" height="16" fill="#FFFFFF"/>
<rect x="336" y="64" width="16" height="16" fill="#FFFFFF"/>
<rect x="352" y="64" width="16" height="16" fill="#F5C518"/>
<rect x="368" y="64" width="16" height="16" fill="#FFFFFF"/>
<rect x="384" y="64" width="16" height="16" fill="#FFFFFF"/>
<rect x="400" y="64" width="16" height="16" fill="#FFFFFF"/>
<rect x="416" y="64" width="16" height="16" fill="#F5C518"/>
<rect x="432" y="64" width="16" height="16" fill="#FFFFFF"/>
<rect x="448" y="64" width="16" height="16" fill="#FFFFFF"/>
<rect x="464" y="64" width="16" height="16" fill="#FFFFFF"/>
<rect x="480" y="64" width="16" height="16" fill="#F5C518"/>
<rect x="496" y="64" width="16" height="16" fill="#FFFFFF"/>
<rect x="512" y="64" width="16" height="16" fill="#FFFFFF"/>
<rect x="528" y="64" width="16" height="16" fill="#F5C518"/>
<rect x="544" y="64" width="16" height="16" fill="#F5C518"/>
<rect x="560" y="64" width="16" height="16" fill="#FFFFFF"/>
<rect x="576" y="64" width="16" height="16" fill="#F5C518"/>
<rect x="592" y="64" width="16" height="16" fill="#FFFFFF"/>
<rect x="608" y="64" width="16" height="16" fill="#F5C518"/>
<rect x="624" y="64" width="16" height="16" fill="#F5C518"/>
<rect x="640" y="64" width="16" height="16" fill="#F5C518"/>
<rect x="656" y="64" width="16" height="16" fill="#F5C518"/>
<rect x="672" y="64" width="16" height="16" fill="#F5C518"/>
<rect x="688" y="64" width="16" height="16" fill="#F5C518"/>
<rect x="704" y="64" width="16" height="16" fill="#F5C518"/>
<rect x="720" y="64" width="16" height="16" fill="#F5C518"/>
<rect x="736" y="64" width="16" height="16" fill="#F5C518"/>
<rect x="752" y="64" width="16" height="16" fill="#FFE98F"/>
<rect x="768" y="64" width="16" height="16" fill="#000000"/>
<rect x="0" y="80" width="16" height="16" fill="#000000"/>
<rect x="16" y="80" width="16" height="16" fill="#F5C518"/>
<rect x="32" y="80" width="16" height="16" fill="#F5C518"/>
<rect x="48" y="80" width="16" height="16" fill="#F5C518"/>
<rect x="64" y="80" width="16" height="16" fill="#F5C518"/>
<rect x="80" y="80" width="16" height="16" fill="#F5C518"/>
<rect x="96" y="80" width="16" height="16" fill="#F5C518"/>
<rect x="112" y="80" width="16" height="16" fill="#F5C518"/>
<rect x="128" y="80" width="16" height="16" fill="#F5C518"/>
<rect x="144" y="80" width="16" height="16" fill="#F5C518"/>
<rect x="160" y="80" width="16" height="16" fill="#F5C518"/>
<rect x="176" y="80" width="16" height="16" fill="#FFFFFF"/>
<rect x="192" y="80" width="16" height="16" fill="#F5C518"/>
<rect x="208" y="80" width="16" height="16" fill="#FFFFFF"/>
<rect x="224" y="80" width="16" height="16" fill="#F5C518"/>
<rect x="240" y="80" width="16" height="16" fill="#F5C518"/>
<rect x="256" y="80" width="16" height="16" fill="#FFFFFF"/>
<rect x="272" y="80" width="16" height="16" fill="#F5C518"/>
<rect x="288" y="80" width="16" height="16" fill="#F5C518"/>
<rect x="304" y="80" width="16" height="16" fill="#FFFFFF"/>
<rect x="320" y="80" width="16" height="16" fill="#F5C518"/>
<rect x="336" y="80" width="16" height="16" fill="#F5C518"/>
<rect x="352" y="80" width="16" height="16" fill="#F5C518"/>
<rect x="368" y="80" width="16" height="16" fill="#F5C518"/>
<rect x="384" y="80" width="16" height="16" fill="#FFFFFF"/>
<rect x="400" y="80" width="16" height="16" fill="#F5C518"/>
<rect x="416" y="80" width="16" height="16" fill="#F5C518"/>
<rect x="432" y="80" width="16" height="16" fill="#FFFFFF"/>
<rect x="448" y="80" width="16" height="16" fill="#F5C518"/>
<rect x="464" y="80" width="16" height="16" fill="#FFFFFF"/>
<rect x="480" y="80" width="16" height="16" fill="#F5C518"/>
<rect x="496" y="80" width="16" height="16" fill="#FFFFFF"/>
<rect x="512" y="80" width="16" height="16" fill="#F5C518"/>
<rect x="528" y="80" width="16" height="16" fill="#FFFFFF"/>
<rect x="544" y="80" width="16" height="16" fill="#F5C518"/>
<rect x="560" y="80" width="16" height="16" fill="#FFFFFF"/>
<rect x="576" y="80" width="16" height="16" fill="#F5C518"/>
<rect x="592" y="80" width="16" height="16" fill="#FFFFFF"/>
<rect x="608" y="80" width="16" height="16" fill="#F5C518"/>
<rect x="624" y="80" width="16" height="16" fill="#F5C518"/>
<rect x="640" y="80" width="16" height="16" fill="#F5C518"/>
<rect x="656" y="80" width="16" height="16" fill="#F5C518"/>
<rect x="672" y="80" width="16" height="16" fill="#F5C518"/>
<rect x="688" y="80" width="16" height="16" fill="#F5C518"/>
<rect x="704" y="80" width="16" height="16" fill="#F5C518"/>
<rect x="720" y="80" width="16" height="16" fill="#F5C518"/>
<rect x="736" y="80" width="16" height="16" fill="#F5C518"/>
<rect x="752" y="80" width="16" height="16" fill="#F5C518"/>
<rect x="768" y="80" width="16" height="16" fill="#000000"/>
<rect x="0" y="96" width="16" height="16" fill="#000000"/>
<rect x="16" y="96" width="16" height="16" fill="#F5C518"/>
<rect x="32" y="96" width="16" height="16" fill="#F5C518"/>
<rect x="48" y="96" width="16" height="16" fill="#F5C518"/>
<rect x="64" y="96" width="16" height="16" fill="#F5C518"/>
<rect x="80" y="96" width="16" height="16" fill="#F5C518"/>
<rect x="96" y="96" width="16" height="16" fill="#F5C518"/>
<rect x="112" y="96" width="16" height="16" fill="#F5C518"/>
<rect x="128" y="96" width="16" height="16" fill="#F5C518"/>
<rect x="144" y="96" width="16" height="16" fill="#F5C518"/>
<rect x="160" y="96" width="16" height="16" fill="#F5C518"/>
<rect x="176" y="96" width="16" height="16" fill="#FFFFFF"/>
<rect x="192" y="96" width="16" height="16" fill="#F5C518"/>
<rect x="208" y="96" width="16" height="16" fill="#FFFFFF"/>
<rect x="224" y="96" width="16" height="16" fill="#F5C518"/>
<rect x="240" y="96" width="16" height="16" fill="#F5C518"/>
<rect x="256" y="96" width="16" height="16" fill="#FFFFFF"/>
<rect x="272" y="96" width="16" height="16" fill="#F5C518"/>
<rect x="288" y="96" width="16" height="16" fill="#F5C518"/>
<rect x="304" y="96" width="16" height="16" fill="#FFFFFF"/>
<rect x="320" y="96" width="16" height="16" fill="#F5C518"/>
<rect x="336" y="96" width="16" height="16" fill="#F5C518"/>
<rect x="352" y="96" width="16" height="16" fill="#F5C518"/>
<rect x="368" y="96" width="16" height="16" fill="#F5C518"/>
<rect x="384" y="96" width="16" height="16" fill="#FFFFFF"/>
<rect x="400" y="96" width="16" height="16" fill="#F5C518"/>
<rect x="416" y="96" width="16" height="16" fill="#F5C518"/>
<rect x="432" y="96" width="16" height="16" fill="#FFFFFF"/>
<rect x="448" y="96" width="16" height="16" fill="#F5C518"/>
<rect x="464" y="96" width="16" height="16" fill="#FFFFFF"/>
<rect x="480" y="96" width="16" height="16" fill="#F5C518"/>
<rect x="496" y="96" width="16" height="16" fill="#FFFFFF"/>
<rect x="512" y="96" width="16" height="16" fill="#FFFFFF"/>
<rect x="528" y="96" width="16" height="16" fill="#F5C518"/>
<rect x="544" y="96" width="16" height="16" fill="#F5C518"/>
<rect x="560" y="96" width="16" height="16" fill="#F5C518"/>
<rect x="576" y="96" width="16" height="16" fill="#FFFFFF"/>
<rect x="592" y="96" width="16" height="16" fill="#F5C518"/>
<rect x="608" y="96" width="16" height="16" fill="#F5C518"/>
<rect x="624" y="96" width="16" height="16" fill="#F5C518"/>
<rect x="640" y="96" width="16" height="16" fill="#F5C518"/>
<rect x="656" y="96" width="16" height="16" fill="#F5C518"/>
<rect x="672" y="96" width="16" height="16" fill="#F5C518"/>
<rect x="688" y="96" width="16" height="16" fill="#F5C518"/>
<rect x="704" y="96" width="16" height="16" fill="#F5C518"/>
<rect x="720" y="96" width="16" height="16" fill="#F5C518"/>
<rect x="736" y="96" width="16" height="16" fill="#F5C518"/>
<rect x="752" y="96" width="16" height="16" fill="#F5C518"/>
<rect x="768" y="96" width="16" height="16" fill="#000000"/>
<rect x="0" y="112" width="16" height="16" fill="#000000"/>
<rect x="16" y="112" width="16" height="16" fill="#F5C518"/>
<rect x="32" y="112" width="16" height="16" fill="#F5C518"/>
<rect x="48" y="112" width="16" height="16" fill="#F5C518"/>
<rect x="64" y="112" width="16" height="16" fill="#F5C518"/>
<rect x="80" y="112" width="16" height="16" fill="#F5C518"/>
<rect x="96" y="112" width="16" height="16" fill="#F5C518"/>
<rect x="112" y="112" width="16" height="16" fill="#F5C518"/>
<rect x="128" y="112" width="16" height="16" fill="#F5C518"/>
<rect x="144" y="112" width="16" height="16" fill="#F5C518"/>
<rect x="160" y="112" width="16" height="16" fill="#F5C518"/>
<rect x="176" y="112" width="16" height="16" fill="#FFFFFF"/>
<rect x="192" y="112" width="16" height="16" fill="#F5C518"/>
<rect x="208" y="112" width="16" height="16" fill="#FFFFFF"/>
<rect x="224" y="112" width="16" height="16" fill="#F5C518"/>
<rect x="240" y="112" width="16" height="16" fill="#F5C518"/>
<rect x="256" y="112" width="16" height="16" fill="#FFFFFF"/>
<rect x="272" y="112" width="16" height="16" fill="#F5C518"/>
<rect x="288" y="112" width="16" height="16" fill="#F5C518"/>
<rect x="304" y="112" width="16" height="16" fill="#FFFFFF"/>
<rect x="320" y="112" width="16" height="16" fill="#F5C518"/>
<rect x="336" y="112" width="16" height="16" fill="#F5C518"/>
<rect x="352" y="112" width="16" height="16" fill="#F5C518"/>
<rect x="368" y="112" width="16" height="16" fill="#F5C518"/>
<rect x="384" y="112" width="16" height="16" fill="#FFFFFF"/>
<rect x="400" y="112" width="16" height="16" fill="#F5C518"/>
<rect x="416" y="112" width="16" height="16" fill="#F5C518"/>
<rect x="432" y="112" width="16" height="16" fill="#FFFFFF"/>
<rect x="448" y="112" width="16" height="16" fill="#F5C518"/>
<rect x="464" y="112" width="16" height="16" fill="#FFFFFF"/>
<rect x="480" y="112" width="16" height="16" fill="#F5C518"/>
<rect x="496" y="112" width="16" height="16" fill="#FFFFFF"/>
<rect x="512" y="112" width="16" height="16" fill="#F5C518"/>
<rect x="528" y="112" width="16" height="16" fill="#FFFFFF"/>
<rect x="544" y="112" width="16" height="16" fill="#F5C518"/>
<rect x="560" y="112" width="16" height="16" fill="#F5C518"/>
<rect x="576" y="112" width="16" height="16" fill="#FFFFFF"/>
<rect x="592" y="112" width="16" height="16" fill="#F5C518"/>
<rect x="608" y="112" width="16" height="16" fill="#F5C518"/>
<rect x="624" y="112" width="16" height="16" fill="#F5C518"/>
<rect x="640" y="112" width="16" height="16" fill="#F5C518"/>
<rect x="656" y="112" width="16" height="16" fill="#F5C518"/>
<rect x="672" y="112" width="16" height="16" fill="#F5C518"/>
<rect x="688" y="112" width="16" height="16" fill="#F5C518"/>
<rect x="704" y="112" width="16" height="16" fill="#F5C518"/>
<rect x="720" y="112" width="16" height="16" fill="#F5C518"/>
<rect x="736" y="112" width="16" height="16" fill="#F5C518"/>
<rect x="752" y="112" width="16" height="16" fill="#F5C518"/>
<rect x="768" y="112" width="16" height="16" fill="#000000"/>
<rect x="0" y="128" width="16" height="16" fill="#000000"/>
<rect x="16" y="128" width="16" height="16" fill="#F5C518"/>
<rect x="32" y="128" width="16" height="16" fill="#F5C518"/>
<rect x="48" y="128" width="16" height="16" fill="#F5C518"/>
<rect x="64" y="128" width="16" height="16" fill="#F5C518"/>
<rect x="80" y="128" width="16" height="16" fill="#F5C518"/>
<rect x="96" y="128" width="16" height="16" fill="#F5C518"/>
<rect x="112" y="128" width="16" height="16" fill="#F5C518"/>
<rect x="128" y="128" width="16" height="16" fill="#F5C518"/>
<rect x="144" y="128" width="16" height="16" fill="#F5C518"/>
<rect x="160" y="128" width="16" height="16" fill="#F5C518"/>
<rect x="176" y="128" width="16" height="16" fill="#F5C518"/>
<rect x="192" y="128" width="16" height="16" fill="#FFFFFF"/>
<rect x="208" y="128" width="16" height="16" fill="#F5C518"/>
<rect x="224" y="128" width="16" height="16" fill="#F5C518"/>
<rect x="240" y="128" width="16" height="16" fill="#FFFFFF"/>
<rect x="256" y="128" width="16" height="16" fill="#FFFFFF"/>
<rect x="272" y="128" width="16" height="16" fill="#FFFFFF"/>
<rect x="288" y="128" width="16" height="16" fill="#F5C518"/>
<rect x="304" y="128" width="16" height="16" fill="#FFFFFF"/>
<rect x="320" y="128" width="16" height="16" fill="#FFFFFF"/>
<rect x="336" y="128" width="16" height="16" fill="#FFFFFF"/>
<rect x="352" y="128" width="16" height="16" fill="#F5C518"/>
<rect x="368" y="128" width="16" height="16" fill="#F5C518"/>
<rect x="384" y="128" width="16" height="16" fill="#FFFFFF"/>
<rect x="400" y="128" width="16" height="16" fill="#F5C518"/>
<rect x="416" y="128" width="16" height="16" fill="#F5C518"/>
<rect x="432" y="128" width="16" height="16" fill="#FFFFFF"/>
<rect x="448" y="128" width="16" height="16" fill="#FFFFFF"/>
<rect x="464" y="128" width="16" height="16" fill="#FFFFFF"/>
<rect x="480" y="128" width="16" height="16" fill="#F5C518"/>
<rect x="496" y="128" width="16" height="16" fill="#FFFFFF"/>
<rect x="512" y="128" width="16" height="16" fill="#F5C518"/>
<rect x="528" y="128" width="16" height="16" fill="#FFFFFF"/>
<rect x="544" y="128" width="16" height="16" fill="#F5C518"/>
<rect x="560" y="128" width="16" height="16" fill="#F5C518"/>
<rect x="576" y="128" width="16" height="16" fill="#FFFFFF"/>
<rect x="592" y="128" width="16" height="16" fill="#F5C518"/>
<rect x="608" y="128" width="16" height="16" fill="#F5C518"/>
<rect x="624" y="128" width="16" height="16" fill="#F5C518"/>
<rect x="640" y="128" width="16" height="16" fill="#F5C518"/>
<rect x="656" y="128" width="16" height="16" fill="#F5C518"/>
<rect x="672" y="128" width="16" height="16" fill="#F5C518"/>
<rect x="688" y="128" width="16" height="16" fill="#F5C518"/>
<rect x="704" y="128" width="16" height="16" fill="#F5C518"/>
<rect x="720" y="128" width="16" height="16" fill="#F5C518"/>
<rect x="736" y="128" width="16" height="16" fill="#F5C518"/>
<rect x="752" y="128" width="16" height="16" fill="#F5C518"/>
<rect x="768" y="128" width="16" height="16" fill="#000000"/>
<rect x="0" y="144" width="16" height="16" fill="#000000"/>
<rect x="16" y="144" width="16" height="16" fill="#8A6A00"/>
<rect x="32" y="144" width="16" height="16" fill="#F5C518"/>
<rect x="48" y="144" width="16" height="16" fill="#F5C518"/>
<rect x="64" y="144" width="16" height="16" fill="#F5C518"/>
<rect x="80" y="144" width="16" height="16" fill="#F5C518"/>
<rect x="96" y="144" width="16" height="16" fill="#F5C518"/>
<rect x="112" y="144" width="16" height="16" fill="#F5C518"/>
<rect x="128" y="144" width="16" height="16" fill="#F5C518"/>
<rect x="144" y="144" width="16" height="16" fill="#F5C518"/>
<rect x="160" y="144" width="16" height="16" fill="#F5C518"/>
<rect x="176" y="144" width="16" height="16" fill="#F5C518"/>
<rect x="192" y="144" width="16" height="16" fill="#F5C518"/>
<rect x="208" y="144" width="16" height="16" fill="#F5C518"/>
<rect x="224" y="144" width="16" height="16" fill="#F5C518"/>
<rect x="240" y="144" width="16" height="16" fill="#F5C518"/>
<rect x="256" y="144" width="16" height="16" fill="#F5C518"/>
<rect x="272" y="144" width="16" height="16" fill="#F5C518"/>
<rect x="288" y="144" width="16" height="16" fill="#F5C518"/>
<rect x="304" y="144" width="16" height="16" fill="#F5C518"/>
<rect x="320" y="144" width="16" height="16" fill="#F5C518"/>
<rect x="336" y="144" width="16" height="16" fill="#F5C518"/>
<rect x="352" y="144" width="16" height="16" fill="#F5C518"/>
<rect x="368" y="144" width="16" height="16" fill="#F5C518"/>
<rect x="384" y="144" width="16" height="16" fill="#F5C518"/>
<rect x="400" y="144" width="16" height="16" fill="#F5C518"/>
<rect x="416" y="144" width="16" height="16" fill="#F5C518"/>
<rect x="432" y="144" width="16" height="16" fill="#F5C518"/>
<rect x="448" y="144" width="16" height="16" fill="#F5C518"/>
<rect x="464" y="144" width="16" height="16" fill="#F5C518"/>
<rect x="480" y="144" width="16" height="16" fill="#F5C518"/>
<rect x="496" y="144" width="16" height="16" fill="#F5C518"/>
<rect x="512" y="144" width="16" height="16" fill="#F5C518"/>
<rect x="528" y="144" width="16" height="16" fill="#F5C518"/>
<rect x="544" y="144" width="16" height="16" fill="#F5C518"/>
<rect x="560" y="144" width="16" height="16" fill="#F5C518"/>
<rect x="576" y="144" width="16" height="16" fill="#F5C518"/>
<rect x="592" y="144" width="16" height="16" fill="#F5C518"/>
<rect x="608" y="144" width="16" height="16" fill="#F5C518"/>
<rect x="624" y="144" width="16" height="16" fill="#F5C518"/>
<rect x="640" y="144" width="16" height="16" fill="#F5C518"/>
<rect x="656" y="144" width="16" height="16" fill="#F5C518"/>
<rect x="672" y="144" width="16" height="16" fill="#F5C518"/>
<rect x="688" y="144" width="16" height="16" fill="#F5C518"/>
<rect x="704" y="144" width="16" height="16" fill="#F5C518"/>
<rect x="720" y="144" width="16" height="16" fill="#F5C518"/>
<rect x="736" y="144" width="16" height="16" fill="#F5C518"/>
<rect x="752" y="144" width="16" height="16" fill="#8A6A00"/>
<rect x="768" y="144" width="16" height="16" fill="#000000"/>
<rect x="16" y="160" width="16" height="16" fill="#000000"/>
<rect x="32" y="160" width="16" height="16" fill="#8A6A00"/>
<rect x="48" y="160" width="16" height="16" fill="#F5C518"/>
<rect x="64" y="160" width="16" height="16" fill="#F5C518"/>
<rect x="80" y="160" width="16" height="16" fill="#F5C518"/>
<rect x="96" y="160" width="16" height="16" fill="#F5C518"/>
<rect x="112" y="160" width="16" height="16" fill="#F5C518"/>
<rect x="128" y="160" width="16" height="16" fill="#F5C518"/>
<rect x="144" y="160" width="16" height="16" fill="#F5C518"/>
<rect x="160" y="160" width="16" height="16" fill="#F5C518"/>
<rect x="176" y="160" width="16" height="16" fill="#F5C518"/>
<rect x="192" y="160" width="16" height="16" fill="#F5C518"/>
<rect x="208" y="160" width="16" height="16" fill="#F5C518"/>
<rect x="224" y="160" width="16" height="16" fill="#F5C518"/>
<rect x="240" y="160" width="16" height="16" fill="#F5C518"/>
<rect x="256" y="160" width="16" height="16" fill="#F5C518"/>
<rect x="272" y="160" width="16" height="16" fill="#F5C518"/>
<rect x="288" y="160" width="16" height="16" fill="#F5C518"/>
<rect x="304" y="160" width="16" height="16" fill="#F5C518"/>
<rect x="320" y="160" width="16" height="16" fill="#F5C518"/>
<rect x="336" y="160" width="16" height="16" fill="#F5C518"/>
<rect x="352" y="160" width="16" height="16" fill="#F5C518"/>
<rect x="368" y="160" width="16" height="16" fill="#F5C518"/>
<rect x="384" y="160" width="16" height="16" fill="#F5C518"/>
<rect x="400" y="160" width="16" height="16" fill="#F5C518"/>
<rect x="416" y="160" width="16" height="16" fill="#F5C518"/>
<rect x="432" y="160" width="16" height="16" fill="#F5C518"/>
<rect x="448" y="160" width="16" height="16" fill="#F5C518"/>
<rect x="464" y="160" width="16" height="16" fill="#F5C518"/>
<rect x="480" y="160" width="16" height="16" fill="#F5C518"/>
<rect x="496" y="160" width="16" height="16" fill="#F5C518"/>
<rect x="512" y="160" width="16" height="16" fill="#F5C518"/>
<rect x="528" y="160" width="16" height="16" fill="#F5C518"/>
<rect x="544" y="160" width="16" height="16" fill="#F5C518"/>
<rect x="560" y="160" width="16" height="16" fill="#F5C518"/>
<rect x="576" y="160" width="16" height="16" fill="#F5C518"/>
<rect x="592" y="160" width="16" height="16" fill="#F5C518"/>
<rect x="608" y="160" width="16" height="16" fill="#F5C518"/>
<rect x="624" y="160" width="16" height="16" fill="#F5C518"/>
<rect x="640" y="160" width="16" height="16" fill="#F5C518"/>
<rect x="656" y="160" width="16" height="16" fill="#F5C518"/>
<rect x="672" y="160" width="16" height="16" fill="#F5C518"/>
<rect x="688" y="160" width="16" height="16" fill="#F5C518"/>
<rect x="704" y="160" width="16" height="16" fill="#F5C518"/>
<rect x="720" y="160" width="16" height="16" fill="#F5C518"/>
<rect x="736" y="160" width="16" height="16" fill="#8A6A00"/>
<rect x="752" y="160" width="16" height="16" fill="#000000"/>
<rect x="32" y="176" width="16" height="16" fill="#000000"/>
<rect x="48" y="176" width="16" height="16" fill="#8A6A00"/>
<rect x="64" y="176" width="16" height="16" fill="#F5C518"/>
<rect x="80" y="176" width="16" height="16" fill="#F5C518"/>
<rect x="96" y="176" width="16" height="16" fill="#F5C518"/>
<rect x="112" y="176" width="16" height="16" fill="#F5C518"/>
<rect x="128" y="176" width="16" height="16" fill="#F5C518"/>
<rect x="144" y="176" width="16" height="16" fill="#F5C518"/>
<rect x="160" y="176" width="16" height="16" fill="#F5C518"/>
<rect x="176" y="176" width="16" height="16" fill="#F5C518"/>
<rect x="192" y="176" width="16" height="16" fill="#F5C518"/>
<rect x="208" y="176" width="16" height="16" fill="#F5C518"/>
<rect x="224" y="176" width="16" height="16" fill="#F5C518"/>
<rect x="240" y="176" width="16" height="16" fill="#F5C518"/>
<rect x="256" y="176" width="16" height="16" fill="#F5C518"/>
<rect x="272" y="176" width="16" height="16" fill="#F5C518"/>
<rect x="288" y="176" width="16" height="16" fill="#F5C518"/>
<rect x="304" y="176" width="16" height="16" fill="#F5C518"/>
<rect x="320" y="176" width="16" height="16" fill="#F5C518"/>
<rect x="336" y="176" width="16" height="16" fill="#F5C518"/>
<rect x="352" y="176" width="16" height="16" fill="#F5C518"/>
<rect x="368" y="176" width="16" height="16" fill="#F5C518"/>
<rect x="384" y="176" width="16" height="16" fill="#F5C518"/>
<rect x="400" y="176" width="16" height="16" fill="#F5C518"/>
<rect x="416" y="176" width="16" height="16" fill="#F5C518"/>
<rect x="432" y="176" width="16" height="16" fill="#F5C518"/>
<rect x="448" y="176" width="16" height="16" fill="#F5C518"/>
<rect x="464" y="176" width="16" height="16" fill="#F5C518"/>
<rect x="480" y="176" width="16" height="16" fill="#F5C518"/>
<rect x="496" y="176" width="16" height="16" fill="#F5C518"/>
<rect x="512" y="176" width="16" height="16" fill="#F5C518"/>
<rect x="528" y="176" width="16" height="16" fill="#F5C518"/>
<rect x="544" y="176" width="16" height="16" fill="#F5C518"/>
<rect x="560" y="176" width="16" height="16" fill="#F5C518"/>
<rect x="576" y="176" width="16" height="16" fill="#F5C518"/>
<rect x="592" y="176" width="16" height="16" fill="#F5C518"/>
<rect x="608" y="176" width="16" height="16" fill="#F5C518"/>
<rect x="624" y="176" width="16" height="16" fill="#F5C518"/>
<rect x="640" y="176" width="16" height="16" fill="#F5C518"/>
<rect x="656" y="176" width="16" height="16" fill="#F5C518"/>
<rect x="672" y="176" width="16" height="16" fill="#F5C518"/>
<rect x="688" y="176" width="16" height="16" fill="#F5C518"/>
<rect x="704" y="176" width="16" height="16" fill="#F5C518"/>
<rect x="720" y="176" width="16" height="16" fill="#8A6A00"/>
<rect x="736" y="176" width="16" height="16" fill="#000000"/>
<rect x="48" y="192" width="16" height="16" fill="#000000"/>
<rect x="64" y="192" width="16" height="16" fill="#8A6A00"/>
<rect x="80" y="192" width="16" height="16" fill="#8A6A00"/>
<rect x="96" y="192" width="16" height="16" fill="#8A6A00"/>
<rect x="112" y="192" width="16" height="16" fill="#8A6A00"/>
<rect x="128" y="192" width="16" height="16" fill="#8A6A00"/>
<rect x="144" y="192" width="16" height="16" fill="#8A6A00"/>
<rect x="160" y="192" width="16" height="16" fill="#8A6A00"/>
<rect x="176" y="192" width="16" height="16" fill="#8A6A00"/>
<rect x="192" y="192" width="16" height="16" fill="#8A6A00"/>
<rect x="208" y="192" width="16" height="16" fill="#8A6A00"/>
<rect x="224" y="192" width="16" height="16" fill="#8A6A00"/>
<rect x="240" y="192" width="16" height="16" fill="#8A6A00"/>
<rect x="256" y="192" width="16" height="16" fill="#8A6A00"/>
<rect x="272" y="192" width="16" height="16" fill="#8A6A00"/>
<rect x="288" y="192" width="16" height="16" fill="#8A6A00"/>
<rect x="304" y="192" width="16" height="16" fill="#8A6A00"/>
<rect x="320" y="192" width="16" height="16" fill="#8A6A00"/>
<rect x="336" y="192" width="16" height="16" fill="#8A6A00"/>
<rect x="352" y="192" width="16" height="16" fill="#8A6A00"/>
<rect x="368" y="192" width="16" height="16" fill="#8A6A00"/>
<rect x="384" y="192" width="16" height="16" fill="#8A6A00"/>
<rect x="400" y="192" width="16" height="16" fill="#8A6A00"/>
<rect x="416" y="192" width="16" height="16" fill="#8A6A00"/>
<rect x="432" y="192" width="16" height="16" fill="#8A6A00"/>
<rect x="448" y="192" width="16" height="16" fill="#8A6A00"/>
<rect x="464" y="192" width="16" height="16" fill="#8A6A00"/>
<rect x="480" y="192" width="16" height="16" fill="#8A6A00"/>
<rect x="496" y="192" width="16" height="16" fill="#8A6A00"/>
<rect x="512" y="192" width="16" height="16" fill="#8A6A00"/>
<rect x="528" y="192" width="16" height="16" fill="#8A6A00"/>
<rect x="544" y="192" width="16" height="16" fill="#8A6A00"/>
<rect x="560" y="192" width="16" height="16" fill="#8A6A00"/>
<rect x="576" y="192" width="16" height="16" fill="#8A6A00"/>
<rect x="592" y="192" width="16" height="16" fill="#8A6A00"/>
<rect x="608" y="192" width="16" height="16" fill="#8A6A00"/>
<rect x="624" y="192" width="16" height="16" fill="#8A6A00"/>
<rect x="640" y="192" width="16" height="16" fill="#8A6A00"/>
<rect x="656" y="192" width="16" height="16" fill="#8A6A00"/>
<rect x="672" y="192" width="16" height="16" fill="#8A6A00"/>
<rect x="688" y="192" width="16" height="16" fill="#8A6A00"/>
<rect x="704" y="192" width="16" height="16" fill="#8A6A00"/>
<rect x="720" y="192" width="16" height="16" fill="#000000"/>
<rect x="64" y="208" width="16" height="16" fill="#000000"/>
<rect x="80" y="208" width="16" height="16" fill="#000000"/>
<rect x="96" y="208" width="16" height="16" fill="#000000"/>
<rect x="112" y="208" width="16" height="16" fill="#000000"/>
<rect x="128" y="208" width="16" height="16" fill="#000000"/>
<rect x="144" y="208" width="16" height="16" fill="#000000"/>
<rect x="160" y="208" width="16" height="16" fill="#000000"/>
<rect x="176" y="208" width="16" height="16" fill="#000000"/>
<rect x="192" y="208" width="16" height="16" fill="#000000"/>
<rect x="208" y="208" width="16" height="16" fill="#000000"/>
<rect x="224" y="208" width="16" height="16" fill="#000000"/>
<rect x="240" y="208" width="16" height="16" fill="#000000"/>
<rect x="256" y="208" width="16" height="16" fill="#000000"/>
<rect x="272" y="208" width="16" height="16" fill="#000000"/>
<rect x="288" y="208" width="16" height="16" fill="#000000"/>
<rect x="304" y="208" width="16" height="16" fill="#000000"/>
<rect x="320" y="208" width="16" height="16" fill="#000000"/>
<rect x="336" y="208" width="16" height="16" fill="#000000"/>
<rect x="352" y="208" width="16" height="16" fill="#000000"/>
<rect x="368" y="208" width="16" height="16" fill="#000000"/>
<rect x="384" y="208" width="16" height="16" fill="#000000"/>
<rect x="400" y="208" width="16" height="16" fill="#000000"/>
<rect x="416" y="208" width="16" height="16" fill="#000000"/>
<rect x="432" y="208" width="16" height="16" fill="#000000"/>
<rect x="448" y="208" width="16" height="16" fill="#000000"/>
<rect x="464" y="208" width="16" height="16" fill="#000000"/>
<rect x="480" y="208" width="16" height="16" fill="#000000"/>
<rect x="496" y="208" width="16" height="16" fill="#000000"/>
<rect x="512" y="208" width="16" height="16" fill="#000000"/>
<rect x="528" y="208" width="16" height="16" fill="#000000"/>
<rect x="544" y="208" width="16" height="16" fill="#000000"/>
<rect x="560" y="208" width="16" height="16" fill="#000000"/>
<rect x="576" y="208" width="16" height="16" fill="#000000"/>
<rect x="592" y="208" width="16" height="16" fill="#000000"/>
<rect x="608" y="208" width="16" height="16" fill="#000000"/>
<rect x="624" y="208" width="16" height="16" fill="#000000"/>
<rect x="640" y="208" width="16" height="16" fill="#000000"/>
<rect x="656" y="208" width="16" height="16" fill="#000000"/>
<rect x="672" y="208" width="16" height="16" fill="#000000"/>
<rect x="688" y="208" width="16" height="16" fill="#000000"/>
<rect x="704" y="208" width="16" height="16" fill="#000000"/>
</svg>
