<svg xmlns="http://www.w3.org/2000/svg" viewBox="0 0 288 352" shape-rendering="crispEdges">
<rect x="224" y="0" width="16" height="16" fill="#EC2828"/>
<rect x="240" y="0" width="16" height="16" fill="#EC2828"/>
<rect x="208" y="16" width="16" height="16" fill="#EC2828"/>
<rect x="224" y="16" width="16" height="16" fill="#EC2828"/>
<rect x="240" y="16" width="16" height="16" fill="#EC2828"/>
<rect x="256" y="16" width="16" height="16" fill="#EC2828"/>
<rect x="192" y="32" width="16" height="16" fill="#EC2828"/>
<rect x="208" y="32" width="16" height="16" fill="#EC2828"/>
<rect x="224" y="32" width="16" height="16" fill="#FF8120"/>
<rect x="240" y="32" width="16" height="16" fill="#FF8120"/>
<rect x="256" y="32" width="16" height="16" fill="#EC2828"/>
<rect x="192" y="48" width="16" height="16" fill="#EC2828"/>
<rect x="208" y="48" width="16" height="16" fill="#EC2828"/>
<rect x="224" y="48" width="16" height="16" fill="#FF8120"/>
<rect x="240" y="48" width="16" height="16" fill="#FF8120"/>
<rect x="256" y="48" width="16" height="16" fill="#EC2828"/>
<rect x="176" y="64" width="16" height="16" fill="#EC2828"/>
<rect x="192" y="64" width="16" height="16" fill="#EC2828"/>
<rect x="208" y="64" width="16" height="16" fill="#FF8120"/>
<rect x="224" y="64" width="16" height="16" fill="#FF8120"/>
<rect x="240" y="64" width="16" height="16" fill="#FF8120"/>
<rect x="256" y="64" width="16" height="16" fill="#EC2828"/>
<rect x="160" y="80" width="16" height="16" fill="#EC2828"/>
<rect x="176" y="80" width="16" height="16" fill="#EC2828"/>
<rect x="192" y="80" width="16" height="16" fill="#FF8120"/>
<rect x="208" y="80" width="16" height="16" fill="#FF8120"/>
<rect x="224" y="80" width="16" height="16" fill="#FF8120"/>
<rect x="240" y="80" width="16" height="16" fill="#FF8120"/>
<rect x="256" y="80" width="16" height="16" fill="#EC2828"/>
<rect x="32" y="96" width="16" height="16" fill="#EC2828"/>
<rect x="160" y="96" width="16" height="16" fill="#EC2828"/>
<rect x="176" y="96" width="16" height="16" fill="#FF8120"/>
<rect x="192" y="96" width="16" height="16" fill="#FF8120"/>
<rect x="208" y="96" width="16" height="16" fill="#FF8120"/>
<rect x="224" y="96" width="16" height="16" fill="#FF8120"/>
<rect x="240" y="96" width="16" height="16" fill="#FF8120"/>
<rect x="256" y="96" width="16" height="16" fill="#EC2828"/>
<rect x="16" y="112" width="16" height="16" fill="#EC2828"/>
<rect x="32" y="112" width="16" height="16" fill="#EC2828"/>
<rect x="144" y="112" width="16" height="16" fill="#EC2828"/>
<rect x="160" y="112" width="16" height="16" fill="#EC2828"/>
<rect x="176" y="112" width="16" height="16" fill="#FF8120"/>
<rect x="192" y="112" width="16" height="16" fill="#FF8120"/>
<rect x="208" y="112" width="16" height="16" fill="#FFCA28"/>
<rect x="224" y="112" width="16" height="16" fill="#FF8120"/>
<rect x="240" y="112" width="16" height="16" fill="#FF8120"/>
<rect x="256" y="112" width="16" height="16" fill="#EC2828"/>
<rect x="32" y="128" width="16" height="16" fill="#EC2828"/>
<rect x="144" y="128" width="16" height="16" fill="#EC2828"/>
<rect x="160" y="128" width="16" height="16" fill="#FF8120"/>
<rect x="176" y="128" width="16" height="16" fill="#FF8120"/>
<rect x="192" y="128" width="16" height="16" fill="#FFCA28"/>
<rect x="208" y="128" width="16" height="16" fill="#FFCA28"/>
<rect x="224" y="128" width="16" height="16" fill="#FFCA28"/>
<rect x="240" y="128" width="16" height="16" fill="#FF8120"/>
<rect x="256" y="128" width="16" height="16" fill="#EC2828"/>
<rect x="128" y="144" width="16" height="16" fill="#EC2828"/>
<rect x="144" y="144" width="16" height="16" fill="#EC2828"/>
<rect x="160" y="144" width="16" height="16" fill="#FF8120"/>
<rect x="176" y="144" width="16" height="16" fill="#FF8120"/>
<rect x="192" y="144" width="16" height="16" fill="#FFCA28"/>
<rect x="208" y="144" width="16" height="16" fill="#FFCA28"/>
<rect x="224" y="144" width="16" height="16" fill="#FFCA28"/>
<rect x="240" y="144" width="16" height="16" fill="#FF8120"/>
<rect x="256" y="144" width="16" height="16" fill="#EC2828"/>
<rect x="112" y="160" width="16" height="16" fill="#EC2828"/>
<rect x="128" y="160" width="16" height="16" fill="#EC2828"/>
<rect x="144" y="160" width="16" height="16" fill="#FF8120"/>
<rect x="160" y="160" width="16" height="16" fill="#FF8120"/>
<rect x="176" y="160" width="16" height="16" fill="#FFCA28"/>
<rect x="192" y="160" width="16" height="16" fill="#FFCA28"/>
<rect x="208" y="160" width="16" height="16" fill="#FFCA28"/>
<rect x="224" y="160" width="16" height="16" fill="#FFCA28"/>
<rect x="240" y="160" width="16" height="16" fill="#FF8120"/>
<rect x="256" y="160" width="16" height="16" fill="#EC2828"/>
<rect x="96" y="176" width="16" height="16" fill="#EC2828"/>
<rect x="112" y="176" width="16" height="16" fill="#EC2828"/>
<rect x="128" y="176" width="16" height="16" fill="#FF8120"/>
<rect x="144" y="176" width="16" height="16" fill="#FFCA28"/>
<rect x="160" y="176" width="16" height="16" fill="#FFCA28"/>
<rect x="176" y="176" width="16" height="16" fill="#FFCA28"/>
<rect x="192" y="176" width="16" height="16" fill="#FFCA28"/>
<rect x="208" y="176" width="16" height="16" fill="#FFCA28"/>
<rect x="224" y="176" width="16" height="16" fill="#FFCA28"/>
<rect x="240" y="176" width="16" height="16" fill="#FF8120"/>
<rect x="256" y="176" width="16" height="16" fill="#EC2828"/>
<rect x="80" y="192" width="16" height="16" fill="#EC2828"/>
<rect x="96" y="192" width="16" height="16" fill="#EC2828"/>
<rect x="112" y="192" width="16" height="16" fill="#FF8120"/>
<rect x="128" y="192" width="16" height="16" fill="#FFCA28"/>
<rect x="144" y="192" width="16" height="16" fill="#FFCA28"/>
<rect x="160" y="192" width="16" height="16" fill="#FFCA28"/>
<rect x="176" y="192" width="16" height="16" fill="#FFCA28"/>
<rect x="192" y="192" width="16" height="16" fill="#FFCA28"/>
<rect x="208" y="192" width="16" height="16" fill="#FFCA28"/>
<rect x="224" y="192" width="16" height="16" fill="#FFCA28"/>
<rect x="240" y="192" width="16" height="16" fill="#FF8120"/>
<rect x="256" y="192" width="16" height="16" fill="#EC2828"/>
<rect x="64" y="208" width="16" height="16" fill="#EC2828"/>
<rect x="80" y="208" width="16" height="16" fill="#EC2828"/>
<rect x="96" y="208" width="16" height="16" fill="#FF8120"/>
<rect x="112" y="208" width="16" height="16" fill="#FFCA28"/>
<rect x="128" y="208" width="16" height="16" fill="#FFCA28"/>
<rect x="144" y="208" width="16" height="16" fill="#FFCA28"/>
<rect x="160" y="208" width="16" height="16" fill="#FFCA28"/>
<rect x="176" y="208" width="16" height="16" fill="#FFE98A"/>
<rect x="192" y="208" width="16" height="16" fill="#FFCA28"/>
<rect x="208" y="208" width="16" height="16" fill="#FFCA28"/>
<rect x="224" y="208" width="16" height="16" fill="#FFCA28"/>
<rect x="240" y="208" width="16" height="16" fill="#FF8120"/>
<rect x="256" y="208" width="16" height="16" fill="#EC2828"/>
<rect x="64" y="224" width="16" height="16" fill="#EC2828"/>
<rect x="80" y="224" width="16" height="16" fill="#FF8120"/>
<rect x="96" y="224" width="16" height="16" fill="#FFCA28"/>
<rect x="112" y="224" width="16" height="16" fill="#FFCA28"/>
<rect x="128" y="224" width="16" height="16" fill="#FFCA28"/>
<rect x="144" y="224" width="16" height="16" fill="#FFCA28"/>
<rect x="160" y="224" width="16" height="16" fill="#FFE98A"/>
<rect x="176" y="224" width="16" height="16" fill="#FFE98A"/>
<rect x="192" y="224" width="16" height="16" fill="#FFE98A"/>
<rect x="208" y="224" width="16" height="16" fill="#FFCA28"/>
<rect x="224" y="224" width="16" height="16" fill="#FFCA28"/>
<rect x="240" y="224" width="16" height="16" fill="#FF8120"/>
<rect x="256" y="224" width="16" height="16" fill="#EC2828"/>
<rect x="64" y="240" width="16" height="16" fill="#EC2828"/>
<rect x="80" y="240" width="16" height="16" fill="#FF8120"/>
<rect x="96" y="240" width="16" height="16" fill="#FFCA28"/>
<rect x="112" y="240" width="16" height="16" fill="#FFCA28"/>
<rect x="128" y="240" width="16" height="16" fill="#FFCA28"/>
<rect x="144" y="240" width="16" height="16" fill="#FFE98A"/>
<rect x="160" y="240" width="16" height="16" fill="#FFE98A"/>
<rect x="176" y="240" width="16" height="16" fill="#FFE98A"/>
<rect x="192" y="240" width="16" height="16" fill="#FFE98A"/>
<rect x="208" y="240" width="16" height="16" fill="#FFE98A"/>
<rect x="224" y="240" width="16" height="16" fill="#FFCA28"/>
<rect x="240" y="240" width="16" height="16" fill="#FF8120"/>
<rect x="256" y="240" width="16" height="16" fill="#EC2828"/>
<rect x="64" y="256" width="16" height="16" fill="#EC2828"/>
<rect x="80" y="256" width="16" height="16" fill="#FF8120"/>
<rect x="96" y="256" width="16" height="16" fill="#FFCA28"/>
<rect x="112" y="256" width="16" height="16" fill="#FFCA28"/>
<rect x="128" y="256" width="16" height="16" fill="#FFCA28"/>
<rect x="144" y="256" width="16" height="16" fill="#FFE98A"/>
<rect x="160" y="256" width="16" height="16" fill="#FFE98A"/>
<rect x="176" y="256" width="16" height="16" fill="#FFE98A"/>
<rect x="192" y="256" width="16" height="16" fill="#FFE98A"/>
<rect x="208" y="256" width="16" height="16" fill="#FFE98A"/>
<rect x="224" y="256" width="16" height="16" fill="#FFCA28"/>
<rect x="240" y="256" width="16" height="16" fill="#FF8120"/>
<rect x="256" y="256" width="16" height="16" fill="#EC2828"/>
<rect x="64" y="272" width="16" height="16" fill="#EC2828"/>
<rect x="80" y="272" width="16" height="16" fill="#FF8120"/>
<rect x="96" y="272" width="16" height="16" fill="#FFCA28"/>
<rect x="112" y="272" width="16" height="16" fill="#FFCA28"/>
<rect x="128" y="272" width="16" height="16" fill="#FFCA28"/>
<rect x="144" y="272" width="16" height="16" fill="#FFE98A"/>
<rect x="160" y="272" width="16" height="16" fill="#FFE98A"/>
<rect x="176" y="272" width="16" height="16" fill="#FFE98A"/>
<rect x="192" y="272" width="16" height="16" fill="#FFE98A"/>
<rect x="208" y="272" width="16" height="16" fill="#FFE98A"/>
<rect x="224" y="272" width="16" height="16" fill="#FFCA28"/>
<rect x="240" y="272" width="16" height="16" fill="#FF8120"/>
<rect x="256" y="272" width="16" height="16" fill="#EC2828"/>
<rect x="64" y="288" width="16" height="16" fill="#EC2828"/>
<rect x="80" y="288" width="16" height="16" fill="#FF8120"/>
<rect x="96" y="288" width="16" height="16" fill="#FFCA28"/>
<rect x="112" y="288" width="16" height="16" fill="#FFCA28"/>
<rect x="128" y="288" width="16" height="16" fill="#FFCA28"/>
<rect x="144" y="288" width="16" height="16" fill="#FFCA28"/>
<rect x="160" y="288" width="16" height="16" fill="#FFE98A"/>
<rect x="176" y="288" width="16" height="16" fill="#FFE98A"/>
<rect x="192" y="288" width="16" height="16" fill="#FFE98A"/>
<rect x="208" y="288" width="16" height="16" fill="#FFCA28"/>
<rect x="224" y="288" width="16" height="16" fill="#FFCA28"/>
<rect x="240" y="288" width="16" height="16" fill="#FF8120"/>
<rect x="256" y="288" width="16" height="16" fill="#EC2828"/>
<rect x="64" y="304" width="16" height="16" fill="#EC2828"/>
<rect x="80" y="304" width="16" height="16" fill="#EC2828"/>
<rect x="96" y="304" width="16" height="16" fill="#FF8120"/>
<rect x="112" y="304" width="16" height="16" fill="#FFCA28"/>
<rect x="128" y="304" width="16" height="16" fill="#FFCA28"/>
<rect x="144" y="304" width="16" height="16" fill="#FFCA28"/>
<rect x="160" y="304" width="16" height="16" fill="#FFCA28"/>
<rect x="176" y="304" width="16" height="16" fill="#FFCA28"/>
<rect x="192" y="304" width="16" height="16" fill="#FFCA28"/>
<rect x="208" y="304" width="16" height="16" fill="#FFCA28"/>
<rect x="224" y="304" width="16" height="16" fill="#FFCA28"/>
<rect x="240" y="304" width="16" height="16" fill="#FF8120"/>
<rect x="256" y="304" width="16" height="16" fill="#EC2828"/>
<rect x="80" y="320" width="16" height="16" fill="#EC2828"/>
<rect x="96" y="320" width="16" height="16" fill="#EC2828"/>
<rect x="112" y="320" width="16" height="16" fill="#FF8120"/>
<rect x="128" y="320" width="16" height="16" fill="#FF8120"/>
<rect x="144" y="320" width="16" height="16" fill="#FFCA28"/>
<rect x="160" y="320" width="16" height="16" fill="#FFCA28"/>
<rect x="176" y="320" width="16" height="16" fill="#FFCA28"/>
<rect x="192" y="320" width="16" height="16" fill="#FFCA28"/>
<rect x="208" y="320" width="16" height="16" fill="#FFCA28"/>
<rect x="224" y="320" width="16" height="16" fill="#FF8120"/>
<rect x="240" y="320" width="16" height="16" fill="#EC2828"/>
<rect x="256" y="320" width="16" height="16" fill="#EC2828"/>
<rect x="96" y="336" width="16" height="16" fill="#EC2828"/>
<rect x="112" y="336" width="16" height="16" fill="#EC2828"/>
<rect x="128" y="336" width="16" height="16" fill="#EC2828"/>
<rect x="144" y="336" width="16" height="16" fill="#FF8120"/>
<rect x="160" y="336" width="16" height="16" fill="#FF8120"/>
<rect x="176" y="336" width="16" height="16" fill="#FF8120"/>
<rect x="192" y="336" width="16" height="16" fill="#FF8120"/>
<rect x="208" y="336" width="16" height="16" fill="#FF8120"/>
<rect x="224" y="336" width="16" height="16" fill="#EC2828"/>
<rect x="240" y="336" width="16" height="16" fill="#EC2828"/>
</svg>
