<svg xmlns="http://www.w3.org/2000/svg" viewBox="0 0 432 240" shape-rendering="crispEdges">
<rect x="32" y="0" width="16" height="16" fill="#000000"/>
<rect x="48" y="0" width="16" height="16" fill="#000000"/>
<rect x="64" y="0" width="16" height="16" fill="#000000"/>
<rect x="80" y="0" width="16" height="16" fill="#000000"/>
<rect x="96" y="0" width="16" height="16" fill="#000000"/>
<rect x="112" y="0" width="16" height="16" fill="#000000"/>
<rect x="128" y="0" width="16" height="16" fill="#000000"/>
<rect x="144" y="0" width="16" height="16" fill="#000000"/>
<rect x="160" y="0" width="16" height="16" fill="#000000"/>
<rect x="176" y="0" width="16" height="16" fill="#000000"/>
<rect x="192" y="0" width="16" height="16" fill="#000000"/>
<rect x="208" y="0" width="16" height="16" fill="#000000"/>
<rect x="224" y="0" width="16" height="16" fill="#000000"/>
<rect x="240" y="0" width="16" height="16" fill="#000000"/>
<rect x="256" y="0" width="16" height="16" fill="#000000"/>
<rect x="272" y="0" width="16" height="16" fill="#000000"/>
<rect x="288" y="0" width="16" height="16" fill="#000000"/>
<rect x="304" y="0" width="16" height="16" fill="#000000"/>
<rect x="320" y="0" width="16" height="16" fill="#000000"/>
<rect x="336" y="0" width="16" height="16" fill="#000000"/>
<rect x="352" y="0" width="16" height="16" fill="#000000"/>
<rect x="368" y="0" width="16" height="16" fill="#000000"/>
<rect x="384" y="0" width="16" height="16" fill="#000000"/>
<rect x="16" y="16" width="16" height="16" fill="#000000"/>
<rect x="32" y="16" width="16" height="16" fill="#6B6B6B"/>
<rect x="48" y="16" width="16" height="16" fill="#6B6B6B"/>
<rect x="64" y="16" width="16" height="16" fill="#000000"/>
<rect x="80" y="16" width="16" height="16" fill="#EDE4CE"/>
<rect x="96" y="16" width="16" height="16" fill="#EDE4CE"/>
<rect x="112" y="16" width="16" height="16" fill="#EDE4CE"/>
<rect x="128" y="16" width="16" height="16" fill="#EDE4CE"/>
<rect x="144" y="16" width="16" height="16" fill="#EDE4CE"/>
<rect x="160" y="16" width="16" height="16" fill="#EDE4CE"/>
<rect x="176" y="16" width="16" height="16" fill="#EDE4CE"/>
<rect x="192" y="16" width="16" height="16" fill="#EDE4CE"/>
<rect x="208" y="16" width="16" height="16" fill="#EDE4CE"/>
<rect x="224" y="16" width="16" height="16" fill="#EDE4CE"/>
<rect x="240" y="16" width="16" height="16" fill="#EDE4CE"/>
<rect x="256" y="16" width="16" height="16" fill="#EDE4CE"/>
<rect x="272" y="16" width="16" height="16" fill="#EDE4CE"/>
<rect x="288" y="16" width="16" height="16" fill="#EDE4CE"/>
<rect x="304" y="16" width="16" height="16" fill="#EDE4CE"/>
<rect x="320" y="16" width="16" height="16" fill="#EDE4CE"/>
<rect x="336" y="16" width="16" height="16" fill="#EDE4CE"/>
<rect x="352" y="16" width="16" height="16" fill="#000000"/>
<rect x="368" y="16" width="16" height="16" fill="#6B6B6B"/>
<rect x="384" y="16" width="16" height="16" fill="#6B6B6B"/>
<rect x="400" y="16" width="16" height="16" fill="#000000"/>
<rect x="0" y="32" width="16" height="16" fill="#000000"/>
<rect x="16" y="32" width="16" height="16" fill="#EDE4CE"/>
<rect x="32" y="32" width="16" height="16" fill="#EDE4CE"/>
<rect x="48" y="32" width="16" height="16" fill="#EDE4CE"/>
<rect x="64" y="32" width="16" height="16" fill="#EDE4CE"/>
<rect x="80" y="32" width="16" height="16" fill="#EDE4CE"/>
<rect x="96" y="32" width="16" height="16" fill="#000000"/>
<rect x="112" y="32" width="16" height="16" fill="#000000"/>
<rect x="128" y="32" width="16" height="16" fill="#000000"/>
<rect x="144" y="32" width="16" height="16" fill="#000000"/>
<rect x="160" y="32" width="16" height="16" fill="#000000"/>
<rect x="176" y="32" width="16" height="16" fill="#000000"/>
<rect x="192" y="32" width="16" height="16" fill="#000000"/>
<rect x="208" y="32" width="16" height="16" fill="#000000"/>
<rect x="224" y="32" width="16" height="16" fill="#000000"/>
<rect x="240" y="32" width="16" height="16" fill="#000000"/>
<rect x="256" y="32" width="16" height="16" fill="#000000"/>
<rect x="272" y="32" width="16" height="16" fill="#000000"/>
<rect x="288" y="32" width="16" height="16" fill="#000000"/>
<rect x="304" y="32" width="16" height="16" fill="#000000"/>
<rect x="320" y="32" width="16" height="16" fill="#000000"/>
<rect x="336" y="32" width="16" height="16" fill="#EDE4CE"/>
<rect x="352" y="32" width="16" height="16" fill="#EDE4CE"/>
<rect x="368" y="32" width="16" height="16" fill="#EDE4CE"/>
<rect x="384" y="32" width="16" height="16" fill="#EDE4CE"/>
<rect x="400" y="32" width="16" height="16" fill="#EDE4CE"/>
<rect x="416" y="32" width="16" height="16" fill="#000000"/>
<rect x="0" y="48" width="16" height="16" fill="#000000"/>
<rect x="16" y="48" width="16" height="16" fill="#EDE4CE"/>
<rect x="32" y="48" width="16" height="16" fill="#EDE4CE"/>
<rect x="48" y="48" width="16" height="16" fill="#EDE4CE"/>
<rect x="64" y="48" width="16" height="16" fill="#EDE4CE"/>
<rect x="80" y="48" width="16" height="16" fill="#EDE4CE"/>
<rect x="96" y="48" width="16" height="16" fill="#000000"/>
<rect x="112" y="48" width="16" height="16" fill="#FF6FA8"/>
<rect x="128" y="48" width="16" height="16" fill="#FF6FA8"/>
<rect x="144" y="48" width="16" height="16" fill="#FF6FA8"/>
<rect x="160" y="48" width="16" height="16" fill="#FF6FA8"/>
<rect x="176" y="48" width="16" height="16" fill="#FF6FA8"/>
<rect x="192" y="48" width="16" height="16" fill="#FF6FA8"/>
<rect x="208" y="48" width="16" height="16" fill="#FF6FA8"/>
<rect x="224" y="48" width="16" height="16" fill="#FF6FA8"/>
<rect x="240" y="48" width="16" height="16" fill="#FF6FA8"/>
<rect x="256" y="48" width="16" height="16" fill="#FF6FA8"/>
<rect x="272" y="48" width="16" height="16" fill="#FF6FA8"/>
<rect x="288" y="48" width="16" height="16" fill="#FF6FA8"/>
<rect x="304" y="48" width="16" height="16" fill="#FF6FA8"/>
<rect x="320" y="48" width="16" height="16" fill="#000000"/>
<rect x="336" y="48" width="16" height="16" fill="#EDE4CE"/>
<rect x="352" y="48" width="16" height="16" fill="#EDE4CE"/>
<rect x="368" y="48" width="16" height="16" fill="#EDE4CE"/>
<rect x="384" y="48" width="16" height="16" fill="#EDE4CE"/>
<rect x="400" y="48" width="16" height="16" fill="#EDE4CE"/>
<rect x="416" y="48" width="16" height="16" fill="#000000"/>
<rect x="0" y="64" width="16" height="16" fill="#000000"/>
<rect x="16" y="64" width="16" height="16" fill="#EDE4CE"/>
<rect x="32" y="64" width="16" height="16" fill="#EDE4CE"/>
<rect x="48" y="64" width="16" height="16" fill="#000000"/>
<rect x="64" y="64" width="16" height="16" fill="#EDE4CE"/>
<rect x="80" y="64" width="16" height="16" fill="#EDE4CE"/>
<rect x="96" y="64" width="16" height="16" fill="#000000"/>
<rect x="112" y="64" width="16" height="16" fill="#FF6FA8"/>
<rect x="128" y="64" width="16" height="16" fill="#FF6FA8"/>
<rect x="144" y="64" width="16" height="16" fill="#FF6FA8"/>
<rect x="160" y="64" width="16" height="16" fill="#FF6FA8"/>
<rect x="176" y="64" width="16" height="16" fill="#FF6FA8"/>
<rect x="192" y="64" width="16" height="16" fill="#FFD04A"/>
<rect x="208" y="64" width="16" height="16" fill="#FFD04A"/>
<rect x="224" y="64" width="16" height="16" fill="#FFD04A"/>
<rect x="240" y="64" width="16" height="16" fill="#FF6FA8"/>
<rect x="256" y="64" width="16" height="16" fill="#FF6FA8"/>
<rect x="272" y="64" width="16" height="16" fill="#FF6FA8"/>
<rect x="288" y="64" width="16" height="16" fill="#FF6FA8"/>
<rect x="304" y="64" width="16" height="16" fill="#FF6FA8"/>
<rect x="320" y="64" width="16" height="16" fill="#000000"/>
<rect x="336" y="64" width="16" height="16" fill="#EDE4CE"/>
<rect x="352" y="64" width="16" height="16" fill="#EDE4CE"/>
<rect x="368" y="64" width="16" height="16" fill="#D84545"/>
<rect x="384" y="64" width="16" height="16" fill="#EDE4CE"/>
<rect x="400" y="64" width="16" height="16" fill="#EDE4CE"/>
<rect x="416" y="64" width="16" height="16" fill="#000000"/>
<rect x="0" y="80" width="16" height="16" fill="#000000"/>
<rect x="16" y="80" width="16" height="16" fill="#EDE4CE"/>
<rect x="32" y="80" width="16" height="16" fill="#000000"/>
<rect x="48" y="80" width="16" height="16" fill="#000000"/>
<rect x="64" y="80" width="16" height="16" fill="#000000"/>
<rect x="80" y="80" width="16" height="16" fill="#EDE4CE"/>
<rect x="96" y="80" width="16" height="16" fill="#000000"/>
<rect x="112" y="80" width="16" height="16" fill="#FF8C3D"/>
<rect x="128" y="80" width="16" height="16" fill="#FF8C3D"/>
<rect x="144" y="80" width="16" height="16" fill="#FF8C3D"/>
<rect x="160" y="80" width="16" height="16" fill="#FF8C3D"/>
<rect x="176" y="80" width="16" height="16" fill="#FF8C3D"/>
<rect x="192" y="80" width="16" height="16" fill="#FF8C3D"/>
<rect x="208" y="80" width="16" height="16" fill="#FF8C3D"/>
<rect x="224" y="80" width="16" height="16" fill="#FF8C3D"/>
<rect x="240" y="80" width="16" height="16" fill="#FF8C3D"/>
<rect x="256" y="80" width="16" height="16" fill="#FF8C3D"/>
<rect x="272" y="80" width="16" height="16" fill="#FF8C3D"/>
<rect x="288" y="80" width="16" height="16" fill="#FF8C3D"/>
<rect x="304" y="80" width="16" height="16" fill="#FF8C3D"/>
<rect x="320" y="80" width="16" height="16" fill="#000000"/>
<rect x="336" y="80" width="16" height="16" fill="#D84545"/>
<rect x="352" y="80" width="16" height="16" fill="#EDE4CE"/>
<rect x="368" y="80" width="16" height="16" fill="#000000"/>
<rect x="384" y="80" width="16" height="16" fill="#EDE4CE"/>
<rect x="400" y="80" width="16" height="16" fill="#D84545"/>
<rect x="416" y="80" width="16" height="16" fill="#000000"/>
<rect x="0" y="96" width="16" height="16" fill="#000000"/>
<rect x="16" y="96" width="16" height="16" fill="#EDE4CE"/>
<rect x="32" y="96" width="16" height="16" fill="#EDE4CE"/>
<rect x="48" y="96" width="16" height="16" fill="#000000"/>
<rect x="64" y="96" width="16" height="16" fill="#EDE4CE"/>
<rect x="80" y="96" width="16" height="16" fill="#EDE4CE"/>
<rect x="96" y="96" width="16" height="16" fill="#000000"/>
<rect x="112" y="96" width="16" height="16" fill="#FF8C3D"/>
<rect x="128" y="96" width="16" height="16" fill="#FF8C3D"/>
<rect x="144" y="96" width="16" height="16" fill="#FF8C3D"/>
<rect x="160" y="96" width="16" height="16" fill="#FF8C3D"/>
<rect x="176" y="96" width="16" height="16" fill="#FF8C3D"/>
<rect x="192" y="96" width="16" height="16" fill="#FF8C3D"/>
<rect x="208" y="96" width="16" height="16" fill="#FF8C3D"/>
<rect x="224" y="96" width="16" height="16" fill="#FF8C3D"/>
<rect x="240" y="96" width="16" height="16" fill="#FF8C3D"/>
<rect x="256" y="96" width="16" height="16" fill="#FF8C3D"/>
<rect x="272" y="96" width="16" height="16" fill="#FF8C3D"/>
<rect x="288" y="96" width="16" height="16" fill="#FF8C3D"/>
<rect x="304" y="96" width="16" height="16" fill="#FF8C3D"/>
<rect x="320" y="96" width="16" height="16" fill="#000000"/>
<rect x="336" y="96" width="16" height="16" fill="#EDE4CE"/>
<rect x="352" y="96" width="16" height="16" fill="#EDE4CE"/>
<rect x="368" y="96" width="16" height="16" fill="#D84545"/>
<rect x="384" y="96" width="16" height="16" fill="#EDE4CE"/>
<rect x="400" y="96" width="16" height="16" fill="#EDE4CE"/>
<rect x="416" y="96" width="16" height="16" fill="#000000"/>
<rect x="0" y="112" width="16" height="16" fill="#000000"/>
<rect x="16" y="112" width="16" height="16" fill="#EDE4CE"/>
<rect x="32" y="112" width="16" height="16" fill="#EDE4CE"/>
<rect x="48" y="112" width="16" height="16" fill="#EDE4CE"/>
<rect x="64" y="112" width="16" height="16" fill="#EDE4CE"/>
<rect x="80" y="112" width="16" height="16" fill="#EDE4CE"/>
<rect x="96" y="112" width="16" height="16" fill="#000000"/>
<rect x="112" y="112" width="16" height="16" fill="#2D1F3A"/>
<rect x="128" y="112" width="16" height="16" fill="#2D1F3A"/>
<rect x="144" y="112" width="16" height="16" fill="#2D1F3A"/>
<rect x="160" y="112" width="16" height="16" fill="#FFB5D0"/>
<rect x="176" y="112" width="16" height="16" fill="#2D1F3A"/>
<rect x="192" y="112" width="16" height="16" fill="#2D1F3A"/>
<rect x="208" y="112" width="16" height="16" fill="#2D1F3A"/>
<rect x="224" y="112" width="16" height="16" fill="#2D1F3A"/>
<rect x="240" y="112" width="16" height="16" fill="#5CCB5F"/>
<rect x="256" y="112" width="16" height="16" fill="#2D1F3A"/>
<rect x="272" y="112" width="16" height="16" fill="#2D1F3A"/>
<rect x="288" y="112" width="16" height="16" fill="#2D1F3A"/>
<rect x="304" y="112" width="16" height="16" fill="#2D1F3A"/>
<rect x="320" y="112" width="16" height="16" fill="#000000"/>
<rect x="336" y="112" width="16" height="16" fill="#EDE4CE"/>
<rect x="352" y="112" width="16" height="16" fill="#EDE4CE"/>
<rect x="368" y="112" width="16" height="16" fill="#EDE4CE"/>
<rect x="384" y="112" width="16" height="16" fill="#EDE4CE"/>
<rect x="400" y="112" width="16" height="16" fill="#EDE4CE"/>
<rect x="416" y="112" width="16" height="16" fill="#000000"/>
<rect x="0" y="128" width="16" height="16" fill="#000000"/>
<rect x="16" y="128" width="16" height="16" fill="#EDE4CE"/>
<rect x="32" y="128" width="16" height="16" fill="#EDE4CE"/>
<rect x="48" y="128" width="16" height="16" fill="#EDE4CE"/>
<rect x="64" y="128" width="16" height="16" fill="#EDE4CE"/>
<rect x="80" y="128" width="16" height="16" fill="#EDE4CE"/>
<rect x="96" y="128" width="16" height="16" fill="#000000"/>
<rect x="112" y="128" width="16" height="16" fill="#2D1F3A"/>
<rect x="128" y="128" width="16" height="16" fill="#2D1F3A"/>
<rect x="144" y="128" width="16" height="16" fill="#2D1F3A"/>
<rect x="160" y="128" width="16" height="16" fill="#2D1F3A"/>
<rect x="176" y="128" width="16" height="16" fill="#2D1F3A"/>
<rect x="192" y="128" width="16" height="16" fill="#2D1F3A"/>
<rect x="208" y="128" width="16" height="16" fill="#2D1F3A"/>
<rect x="224" y="128" width="16" height="16" fill="#2D1F3A"/>
<rect x="240" y="128" width="16" height="16" fill="#2D1F3A"/>
<rect x="256" y="128" width="16" height="16" fill="#2D1F3A"/>
<rect x="272" y="128" width="16" height="16" fill="#2D1F3A"/>
<rect x="288" y="128" width="16" height="16" fill="#2D1F3A"/>
<rect x="304" y="128" width="16" height="16" fill="#2D1F3A"/>
<rect x="320" y="128" width="16" height="16" fill="#000000"/>
<rect x="336" y="128" width="16" height="16" fill="#EDE4CE"/>
<rect x="352" y="128" width="16" height="16" fill="#EDE4CE"/>
<rect x="368" y="128" width="16" height="16" fill="#EDE4CE"/>
<rect x="384" y="128" width="16" height="16" fill="#EDE4CE"/>
<rect x="400" y="128" width="16" height="16" fill="#EDE4CE"/>
<rect x="416" y="128" width="16" height="16" fill="#000000"/>
<rect x="0" y="144" width="16" height="16" fill="#000000"/>
<rect x="16" y="144" width="16" height="16" fill="#EDE4CE"/>
<rect x="32" y="144" width="16" height="16" fill="#EDE4CE"/>
<rect x="48" y="144" width="16" height="16" fill="#EDE4CE"/>
<rect x="64" y="144" width="16" height="16" fill="#EDE4CE"/>
<rect x="80" y="144" width="16" height="16" fill="#EDE4CE"/>
<rect x="96" y="144" width="16" height="16" fill="#000000"/>
<rect x="112" y="144" width="16" height="16" fill="#000000"/>
<rect x="128" y="144" width="16" height="16" fill="#000000"/>
<rect x="144" y="144" width="16" height="16" fill="#000000"/>
<rect x="160" y="144" width="16" height="16" fill="#000000"/>
<rect x="176" y="144" width="16" height="16" fill="#000000"/>
<rect x="192" y="144" width="16" height="16" fill="#000000"/>
<rect x="208" y="144" width="16" height="16" fill="#000000"/>
<rect x="224" y="144" width="16" height="16" fill="#000000"/>
<rect x="240" y="144" width="16" height="16" fill="#000000"/>
<rect x="256" y="144" width="16" height="16" fill="#000000"/>
<rect x="272" y="144" width="16" height="16" fill="#000000"/>
<rect x="288" y="144" width="16" height="16" fill="#000000"/>
<rect x="304" y="144" width="16" height="16" fill="#000000"/>
<rect x="320" y="144" width="16" height="16" fill="#000000"/>
<rect x="336" y="144" width="16" height="16" fill="#EDE4CE"/>
<rect x="352" y="144" width="16" height="16" fill="#EDE4CE"/>
<rect x="368" y="144" width="16" height="16" fill="#EDE4CE"/>
<rect x="384" y="144" width="16" height="16" fill="#EDE4CE"/>
<rect x="400" y="144" width="16" height="16" fill="#EDE4CE"/>
<rect x="416" y="144" width="16" height="16" fill="#000000"/>
<rect x="0" y="160" width="16" height="16" fill="#000000"/>
<rect x="16" y="160" width="16" height="16" fill="#EDE4CE"/>
<rect x="32" y="160" width="16" height="16" fill="#FF4B7D"/>
<rect x="48" y="160" width="16" height="16" fill="#000000"/>
<rect x="64" y="160" width="16" height="16" fill="#FF4B7D"/>
<rect x="80" y="160" width="16" height="16" fill="#EDE4CE"/>
<rect x="96" y="160" width="16" height="16" fill="#000000"/>
<rect x="112" y="160" width="16" height="16" fill="#EDE4CE"/>
<rect x="128" y="160" width="16" height="16" fill="#EDE4CE"/>
<rect x="144" y="160" width="16" height="16" fill="#EDE4CE"/>
<rect x="160" y="160" width="16" height="16" fill="#000000"/>
<rect x="176" y="160" width="16" height="16" fill="#6B6B6B"/>
<rect x="192" y="160" width="16" height="16" fill="#000000"/>
<rect x="208" y="160" width="16" height="16" fill="#EDE4CE"/>
<rect x="224" y="160" width="16" height="16" fill="#000000"/>
<rect x="240" y="160" width="16" height="16" fill="#6B6B6B"/>
<rect x="256" y="160" width="16" height="16" fill="#000000"/>
<rect x="272" y="160" width="16" height="16" fill="#EDE4CE"/>
<rect x="288" y="160" width="16" height="16" fill="#EDE4CE"/>
<rect x="304" y="160" width="16" height="16" fill="#EDE4CE"/>
<rect x="320" y="160" width="16" height="16" fill="#000000"/>
<rect x="336" y="160" width="16" height="16" fill="#EDE4CE"/>
<rect x="352" y="160" width="16" height="16" fill="#FF4B7D"/>
<rect x="368" y="160" width="16" height="16" fill="#000000"/>
<rect x="384" y="160" width="16" height="16" fill="#FF4B7D"/>
<rect x="400" y="160" width="16" height="16" fill="#EDE4CE"/>
<rect x="416" y="160" width="16" height="16" fill="#000000"/>
<rect x="0" y="176" width="16" height="16" fill="#000000"/>
<rect x="16" y="176" width="16" height="16" fill="#EDE4CE"/>
<rect x="32" y="176" width="16" height="16" fill="#EDE4CE"/>
<rect x="48" y="176" width="16" height="16" fill="#EDE4CE"/>
<rect x="64" y="176" width="16" height="16" fill="#EDE4CE"/>
<rect x="80" y="176" width="16" height="16" fill="#EDE4CE"/>
<rect x="96" y="176" width="16" height="16" fill="#EDE4CE"/>
<rect x="112" y="176" width="16" height="16" fill="#EDE4CE"/>
<rect x="128" y="176" width="16" height="16" fill="#EDE4CE"/>
<rect x="144" y="176" width="16" height="16" fill="#EDE4CE"/>
<rect x="160" y="176" width="16" height="16" fill="#EDE4CE"/>
<rect x="176" y="176" width="16" height="16" fill="#EDE4CE"/>
<rect x="192" y="176" width="16" height="16" fill="#EDE4CE"/>
<rect x="208" y="176" width="16" height="16" fill="#EDE4CE"/>
<rect x="224" y="176" width="16" height="16" fill="#EDE4CE"/>
<rect x="240" y="176" width="16" height="16" fill="#EDE4CE"/>
<rect x="256" y="176" width="16" height="16" fill="#EDE4CE"/>
<rect x="272" y="176" width="16" height="16" fill="#EDE4CE"/>
<rect x="288" y="176" width="16" height="16" fill="#EDE4CE"/>
<rect x="304" y="176" width="16" height="16" fill="#EDE4CE"/>
<rect x="320" y="176" width="16" height="16" fill="#EDE4CE"/>
<rect x="336" y="176" width="16" height="16" fill="#EDE4CE"/>
<rect x="352" y="176" width="16" height="16" fill="#EDE4CE"/>
<rect x="368" y="176" width="16" height="16" fill="#EDE4CE"/>
<rect x="384" y="176" width="16" height="16" fill="#EDE4CE"/>
<rect x="400" y="176" width="16" height="16" fill="#EDE4CE"/>
<rect x="416" y="176" width="16" height="16" fill="#000000"/>
<rect x="0" y="192" width="16" height="16" fill="#000000"/>
<rect x="16" y="192" width="16" height="16" fill="#EDE4CE"/>
<rect x="32" y="192" width="16" height="16" fill="#EDE4CE"/>
<rect x="48" y="192" width="16" height="16" fill="#EDE4CE"/>
<rect x="64" y="192" width="16" height="16" fill="#EDE4CE"/>
<rect x="80" y="192" width="16" height="16" fill="#EDE4CE"/>
<rect x="96" y="192" width="16" height="16" fill="#EDE4CE"/>
<rect x="112" y="192" width="16" height="16" fill="#EDE4CE"/>
<rect x="128" y="192" width="16" height="16" fill="#EDE4CE"/>
<rect x="144" y="192" width="16" height="16" fill="#EDE4CE"/>
<rect x="160" y="192" width="16" height="16" fill="#EDE4CE"/>
<rect x="176" y="192" width="16" height="16" fill="#EDE4CE"/>
<rect x="192" y="192" width="16" height="16" fill="#EDE4CE"/>
<rect x="208" y="192" width="16" height="16" fill="#EDE4CE"/>
<rect x="224" y="192" width="16" height="16" fill="#EDE4CE"/>
<rect x="240" y="192" width="16" height="16" fill="#EDE4CE"/>
<rect x="256" y="192" width="16" height="16" fill="#EDE4CE"/>
<rect x="272" y="192" width="16" height="16" fill="#EDE4CE"/>
<rect x="288" y="192" width="16" height="16" fill="#EDE4CE"/>
<rect x="304" y="192" width="16" height="16" fill="#EDE4CE"/>
<rect x="320" y="192" width="16" height="16" fill="#EDE4CE"/>
<rect x="336" y="192" width="16" height="16" fill="#EDE4CE"/>
<rect x="352" y="192" width="16" height="16" fill="#EDE4CE"/>
<rect x="368" y="192" width="16" height="16" fill="#EDE4CE"/>
<rect x="384" y="192" width="16" height="16" fill="#EDE4CE"/>
<rect x="400" y="192" width="16" height="16" fill="#EDE4CE"/>
<rect x="416" y="192" width="16" height="16" fill="#000000"/>
<rect x="16" y="208" width="16" height="16" fill="#000000"/>
<rect x="32" y="208" width="16" height="16" fill="#EDE4CE"/>
<rect x="48" y="208" width="16" height="16" fill="#EDE4CE"/>
<rect x="64" y="208" width="16" height="16" fill="#EDE4CE"/>
<rect x="80" y="208" width="16" height="16" fill="#EDE4CE"/>
<rect x="96" y="208" width="16" height="16" fill="#EDE4CE"/>
<rect x="112" y="208" width="16" height="16" fill="#EDE4CE"/>
<rect x="128" y="208" width="16" height="16" fill="#EDE4CE"/>
<rect x="144" y="208" width="16" height="16" fill="#EDE4CE"/>
<rect x="160" y="208" width="16" height="16" fill="#EDE4CE"/>
<rect x="176" y="208" width="16" height="16" fill="#EDE4CE"/>
<rect x="192" y="208" width="16" height="16" fill="#EDE4CE"/>
<rect x="208" y="208" width="16" height="16" fill="#EDE4CE"/>
<rect x="224" y="208" width="16" height="16" fill="#EDE4CE"/>
<rect x="240" y="208" width="16" height="16" fill="#EDE4CE"/>
<rect x="256" y="208" width="16" height="16" fill="#EDE4CE"/>
<rect x="272" y="208" width="16" height="16" fill="#EDE4CE"/>
<rect x="288" y="208" width="16" height="16" fill="#EDE4CE"/>
<rect x="304" y="208" width="16" height="16" fill="#EDE4CE"/>
<rect x="320" y="208" width="16" height="16" fill="#EDE4CE"/>
<rect x="336" y="208" width="16" height="16" fill="#EDE4CE"/>
<rect x="352" y="208" width="16" height="16" fill="#EDE4CE"/>
<rect x="368" y="208" width="16" height="16" fill="#EDE4CE"/>
<rect x="384" y="208" width="16" height="16" fill="#EDE4CE"/>
<rect x="400" y="208" width="16" height="16" fill="#000000"/>
<rect x="32" y="224" width="16" height="16" fill="#000000"/>
<rect x="48" y="224" width="16" height="16" fill="#000000"/>
<rect x="64" y="224" width="16" height="16" fill="#000000"/>
<rect x="80" y="224" width="16" height="16" fill="#000000"/>
<rect x="96" y="224" width="16" height="16" fill="#000000"/>
<rect x="112" y="224" width="16" height="16" fill="#000000"/>
<rect x="128" y="224" width="16" height="16" fill="#000000"/>
<rect x="144" y="224" width="16" height="16" fill="#000000"/>
<rect x="160" y="224" width="16" height="16" fill="#000000"/>
<rect x="176" y="224" width="16" height="16" fill="#000000"/>
<rect x="192" y="224" width="16" height="16" fill="#000000"/>
<rect x="208" y="224" width="16" height="16" fill="#000000"/>
<rect x="224" y="224" width="16" height="16" fill="#000000"/>
<rect x="240" y="224" width="16" height="16" fill="#000000"/>
<rect x="256" y="224" width="16" height="16" fill="#000000"/>
<rect x="272" y="224" width="16" height="16" fill="#000000"/>
<rect x="288" y="224" width="16" height="16" fill="#000000"/>
<rect x="304" y="224" width="16" height="16" fill="#000000"/>
<rect x="320" y="224" width="16" height="16" fill="#000000"/>
<rect x="336" y="224" width="16" height="16" fill="#000000"/>
<rect x="352" y="224" width="16" height="16" fill="#000000"/>
<rect x="368" y="224" width="16" height="16" fill="#000000"/>
<rect x="384" y="224" width="16" height="16" fill="#000000"/>
</svg>
