<svg width="1008" height="160" viewBox="0 0 1008 160" xmlns="http://www.w3.org/2000/svg" shape-rendering="crispEdges">
<rect x="32" y="0" width="16" height="16" fill="#000000"/>
<rect x="48" y="0" width="16" height="16" fill="#000000"/>
<rect x="112" y="0" width="16" height="16" fill="#000000"/>
<rect x="128" y="0" width="16" height="16" fill="#000000"/>
<rect x="16" y="16" width="16" height="16" fill="#000000"/>
<rect x="32" y="16" width="16" height="16" fill="#FF4B7D"/>
<rect x="48" y="16" width="16" height="16" fill="#FF4B7D"/>
<rect x="64" y="16" width="16" height="16" fill="#000000"/>
<rect x="96" y="16" width="16" height="16" fill="#000000"/>
<rect x="112" y="16" width="16" height="16" fill="#FF4B7D"/>
<rect x="128" y="16" width="16" height="16" fill="#FF4B7D"/>
<rect x="144" y="16" width="16" height="16" fill="#000000"/>
<rect x="0" y="32" width="16" height="16" fill="#000000"/>
<rect x="16" y="32" width="16" height="16" fill="#FF4B7D"/>
<rect x="32" y="32" width="16" height="16" fill="#FFFFFF"/>
<rect x="48" y="32" width="16" height="16" fill="#FF4B7D"/>
<rect x="64" y="32" width="16" height="16" fill="#FF4B7D"/>
<rect x="80" y="32" width="16" height="16" fill="#FF4B7D"/>
<rect x="96" y="32" width="16" height="16" fill="#FF4B7D"/>
<rect x="112" y="32" width="16" height="16" fill="#FF4B7D"/>
<rect x="128" y="32" width="16" height="16" fill="#FF4B7D"/>
<rect x="144" y="32" width="16" height="16" fill="#FF4B7D"/>
<rect x="160" y="32" width="16" height="16" fill="#000000"/>
<rect x="0" y="48" width="16" height="16" fill="#000000"/>
<rect x="16" y="48" width="16" height="16" fill="#FF4B7D"/>
<rect x="32" y="48" width="16" height="16" fill="#FFFFFF"/>
<rect x="48" y="48" width="16" height="16" fill="#FF4B7D"/>
<rect x="64" y="48" width="16" height="16" fill="#FF4B7D"/>
<rect x="80" y="48" width="16" height="16" fill="#FF4B7D"/>
<rect x="96" y="48" width="16" height="16" fill="#FF4B7D"/>
<rect x="112" y="48" width="16" height="16" fill="#FF4B7D"/>
<rect x="128" y="48" width="16" height="16" fill="#FF4B7D"/>
<rect x="144" y="48" width="16" height="16" fill="#B01E4B"/>
<rect x="160" y="48" width="16" height="16" fill="#000000"/>
<rect x="0" y="64" width="16" height="16" fill="#000000"/>
<rect x="16" y="64" width="16" height="16" fill="#FF4B7D"/>
<rect x="32" y="64" width="16" height="16" fill="#FF4B7D"/>
<rect x="48" y="64" width="16" height="16" fill="#FF4B7D"/>
<rect x="64" y="64" width="16" height="16" fill="#FF4B7D"/>
<rect x="80" y="64" width="16" height="16" fill="#FF4B7D"/>
<rect x="96" y="64" width="16" height="16" fill="#FF4B7D"/>
<rect x="112" y="64" width="16" height="16" fill="#FF4B7D"/>
<rect x="128" y="64" width="16" height="16" fill="#FF4B7D"/>
<rect x="144" y="64" width="16" height="16" fill="#B01E4B"/>
<rect x="160" y="64" width="16" height="16" fill="#000000"/>
<rect x="0" y="80" width="16" height="16" fill="#000000"/>
<rect x="16" y="80" width="16" height="16" fill="#FF4B7D"/>
<rect x="32" y="80" width="16" height="16" fill="#FF4B7D"/>
<rect x="48" y="80" width="16" height="16" fill="#FF4B7D"/>
<rect x="64" y="80" width="16" height="16" fill="#FF4B7D"/>
<rect x="80" y="80" width="16" height="16" fill="#FF4B7D"/>
<rect x="96" y="80" width="16" height="16" fill="#FF4B7D"/>
<rect x="112" y="80" width="16" height="16" fill="#FF4B7D"/>
<rect x="128" y="80" width="16" height="16" fill="#B01E4B"/>
<rect x="144" y="80" width="16" height="16" fill="#B01E4B"/>
<rect x="160" y="80" width="16" height="16" fill="#000000"/>
<rect x="16" y="96" width="16" height="16" fill="#000000"/>
<rect x="32" y="96" width="16" height="16" fill="#FF4B7D"/>
<rect x="48" y="96" width="16" height="16" fill="#FF4B7D"/>
<rect x="64" y="96" width="16" height="16" fill="#FF4B7D"/>
<rect x="80" y="96" width="16" height="16" fill="#FF4B7D"/>
<rect x="96" y="96" width="16" height="16" fill="#FF4B7D"/>
<rect x="112" y="96" width="16" height="16" fill="#B01E4B"/>
<rect x="128" y="96" width="16" height="16" fill="#B01E4B"/>
<rect x="144" y="96" width="16" height="16" fill="#000000"/>
<rect x="32" y="112" width="16" height="16" fill="#000000"/>
<rect x="48" y="112" width="16" height="16" fill="#FF4B7D"/>
<rect x="64" y="112" width="16" height="16" fill="#FF4B7D"/>
<rect x="80" y="112" width="16" height="16" fill="#FF4B7D"/>
<rect x="96" y="112" width="16" height="16" fill="#B01E4B"/>
<rect x="112" y="112" width="16" height="16" fill="#B01E4B"/>
<rect x="128" y="112" width="16" height="16" fill="#000000"/>
<rect x="48" y="128" width="16" height="16" fill="#000000"/>
<rect x="64" y="128" width="16" height="16" fill="#FF4B7D"/>
<rect x="80" y="128" width="16" height="16" fill="#B01E4B"/>
<rect x="96" y="128" width="16" height="16" fill="#B01E4B"/>
<rect x="112" y="128" width="16" height="16" fill="#000000"/>
<rect x="64" y="144" width="16" height="16" fill="#000000"/>
<rect x="80" y="144" width="16" height="16" fill="#B01E4B"/>
<rect x="96" y="144" width="16" height="16" fill="#000000"/>
<rect x="240" y="0" width="16" height="16" fill="#000000"/>
<rect x="256" y="0" width="16" height="16" fill="#000000"/>
<rect x="320" y="0" width="16" height="16" fill="#000000"/>
<rect x="336" y="0" width="16" height="16" fill="#000000"/>
<rect x="224" y="16" width="16" height="16" fill="#000000"/>
<rect x="240" y="16" width="16" height="16" fill="#FF4B7D"/>
<rect x="256" y="16" width="16" height="16" fill="#FF4B7D"/>
<rect x="272" y="16" width="16" height="16" fill="#000000"/>
<rect x="304" y="16" width="16" height="16" fill="#000000"/>
<rect x="320" y="16" width="16" height="16" fill="#FF4B7D"/>
<rect x="336" y="16" width="16" height="16" fill="#FF4B7D"/>
<rect x="352" y="16" width="16" height="16" fill="#000000"/>
<rect x="208" y="32" width="16" height="16" fill="#000000"/>
<rect x="224" y="32" width="16" height="16" fill="#FF4B7D"/>
<rect x="240" y="32" width="16" height="16" fill="#FFFFFF"/>
<rect x="256" y="32" width="16" height="16" fill="#FF4B7D"/>
<rect x="272" y="32" width="16" height="16" fill="#FF4B7D"/>
<rect x="288" y="32" width="16" height="16" fill="#FF4B7D"/>
<rect x="304" y="32" width="16" height="16" fill="#FF4B7D"/>
<rect x="320" y="32" width="16" height="16" fill="#FF4B7D"/>
<rect x="336" y="32" width="16" height="16" fill="#FF4B7D"/>
<rect x="352" y="32" width="16" height="16" fill="#FF4B7D"/>
<rect x="368" y="32" width="16" height="16" fill="#000000"/>
<rect x="208" y="48" width="16" height="16" fill="#000000"/>
<rect x="224" y="48" width="16" height="16" fill="#FF4B7D"/>
<rect x="240" y="48" width="16" height="16" fill="#FFFFFF"/>
<rect x="256" y="48" width="16" height="16" fill="#FF4B7D"/>
<rect x="272" y="48" width="16" height="16" fill="#FF4B7D"/>
<rect x="288" y="48" width="16" height="16" fill="#FF4B7D"/>
<rect x="304" y="48" width="16" height="16" fill="#FF4B7D"/>
<rect x="320" y="48" width="16" height="16" fill="#FF4B7D"/>
<rect x="336" y="48" width="16" height="16" fill="#FF4B7D"/>
<rect x="352" y="48" width="16" height="16" fill="#B01E4B"/>
<rect x="368" y="48" width="16" height="16" fill="#000000"/>
<rect x="208" y="64" width="16" height="16" fill="#000000"/>
<rect x="224" y="64" width="16" height="16" fill="#FF4B7D"/>
<rect x="240" y="64" width="16" height="16" fill="#FF4B7D"/>
<rect x="256" y="64" width="16" height="16" fill="#FF4B7D"/>
<rect x="272" y="64" width="16" height="16" fill="#FF4B7D"/>
<rect x="288" y="64" width="16" height="16" fill="#FF4B7D"/>
<rect x="304" y="64" width="16" height="16" fill="#FF4B7D"/>
<rect x="320" y="64" width="16" height="16" fill="#FF4B7D"/>
<rect x="336" y="64" width="16" height="16" fill="#FF4B7D"/>
<rect x="352" y="64" width="16" height="16" fill="#B01E4B"/>
<rect x="368" y="64" width="16" height="16" fill="#000000"/>
<rect x="208" y="80" width="16" height="16" fill="#000000"/>
<rect x="224" y="80" width="16" height="16" fill="#FF4B7D"/>
<rect x="240" y="80" width="16" height="16" fill="#FF4B7D"/>
<rect x="256" y="80" width="16" height="16" fill="#FF4B7D"/>
<rect x="272" y="80" width="16" height="16" fill="#FF4B7D"/>
<rect x="288" y="80" width="16" height="16" fill="#FF4B7D"/>
<rect x="304" y="80" width="16" height="16" fill="#FF4B7D"/>
<rect x="320" y="80" width="16" height="16" fill="#FF4B7D"/>
<rect x="336" y="80" width="16" height="16" fill="#B01E4B"/>
<rect x="352" y="80" width="16" height="16" fill="#B01E4B"/>
<rect x="368" y="80" width="16" height="16" fill="#000000"/>
<rect x="224" y="96" width="16" height="16" fill="#000000"/>
<rect x="240" y="96" width="16" height="16" fill="#FF4B7D"/>
<rect x="256" y="96" width="16" height="16" fill="#FF4B7D"/>
<rect x="272" y="96" width="16" height="16" fill="#FF4B7D"/>
<rect x="288" y="96" width="16" height="16" fill="#FF4B7D"/>
<rect x="304" y="96" width="16" height="16" fill="#FF4B7D"/>
<rect x="320" y="96" width="16" height="16" fill="#B01E4B"/>
<rect x="336" y="96" width="16" height="16" fill="#B01E4B"/>
<rect x="352" y="96" width="16" height="16" fill="#000000"/>
<rect x="240" y="112" width="16" height="16" fill="#000000"/>
<rect x="256" y="112" width="16" height="16" fill="#FF4B7D"/>
<rect x="272" y="112" width="16" height="16" fill="#FF4B7D"/>
<rect x="288" y="112" width="16" height="16" fill="#FF4B7D"/>
<rect x="304" y="112" width="16" height="16" fill="#B01E4B"/>
<rect x="320" y="112" width="16" height="16" fill="#B01E4B"/>
<rect x="336" y="112" width="16" height="16" fill="#000000"/>
<rect x="256" y="128" width="16" height="16" fill="#000000"/>
<rect x="272" y="128" width="16" height="16" fill="#FF4B7D"/>
<rect x="288" y="128" width="16" height="16" fill="#B01E4B"/>
<rect x="304" y="128" width="16" height="16" fill="#B01E4B"/>
<rect x="320" y="128" width="16" height="16" fill="#000000"/>
<rect x="272" y="144" width="16" height="16" fill="#000000"/>
<rect x="288" y="144" width="16" height="16" fill="#B01E4B"/>
<rect x="304" y="144" width="16" height="16" fill="#000000"/>
<rect x="448" y="0" width="16" height="16" fill="#000000"/>
<rect x="464" y="0" width="16" height="16" fill="#000000"/>
<rect x="528" y="0" width="16" height="16" fill="#000000"/>
<rect x="544" y="0" width="16" height="16" fill="#000000"/>
<rect x="432" y="16" width="16" height="16" fill="#000000"/>
<rect x="448" y="16" width="16" height="16" fill="#FF4B7D"/>
<rect x="464" y="16" width="16" height="16" fill="#FF4B7D"/>
<rect x="480" y="16" width="16" height="16" fill="#000000"/>
<rect x="512" y="16" width="16" height="16" fill="#000000"/>
<rect x="528" y="16" width="16" height="16" fill="#FF4B7D"/>
<rect x="544" y="16" width="16" height="16" fill="#FF4B7D"/>
<rect x="560" y="16" width="16" height="16" fill="#000000"/>
<rect x="416" y="32" width="16" height="16" fill="#000000"/>
<rect x="432" y="32" width="16" height="16" fill="#FF4B7D"/>
<rect x="448" y="32" width="16" height="16" fill="#FFFFFF"/>
<rect x="464" y="32" width="16" height="16" fill="#FF4B7D"/>
<rect x="480" y="32" width="16" height="16" fill="#FF4B7D"/>
<rect x="496" y="32" width="16" height="16" fill="#FF4B7D"/>
<rect x="512" y="32" width="16" height="16" fill="#FF4B7D"/>
<rect x="528" y="32" width="16" height="16" fill="#FF4B7D"/>
<rect x="544" y="32" width="16" height="16" fill="#FF4B7D"/>
<rect x="560" y="32" width="16" height="16" fill="#FF4B7D"/>
<rect x="576" y="32" width="16" height="16" fill="#000000"/>
<rect x="416" y="48" width="16" height="16" fill="#000000"/>
<rect x="432" y="48" width="16" height="16" fill="#FF4B7D"/>
<rect x="448" y="48" width="16" height="16" fill="#FFFFFF"/>
<rect x="464" y="48" width="16" height="16" fill="#FF4B7D"/>
<rect x="480" y="48" width="16" height="16" fill="#FF4B7D"/>
<rect x="496" y="48" width="16" height="16" fill="#FF4B7D"/>
<rect x="512" y="48" width="16" height="16" fill="#FF4B7D"/>
<rect x="528" y="48" width="16" height="16" fill="#FF4B7D"/>
<rect x="544" y="48" width="16" height="16" fill="#FF4B7D"/>
<rect x="560" y="48" width="16" height="16" fill="#B01E4B"/>
<rect x="576" y="48" width="16" height="16" fill="#000000"/>
<rect x="416" y="64" width="16" height="16" fill="#000000"/>
<rect x="432" y="64" width="16" height="16" fill="#FF4B7D"/>
<rect x="448" y="64" width="16" height="16" fill="#FF4B7D"/>
<rect x="464" y="64" width="16" height="16" fill="#FF4B7D"/>
<rect x="480" y="64" width="16" height="16" fill="#FF4B7D"/>
<rect x="496" y="64" width="16" height="16" fill="#FF4B7D"/>
<rect x="512" y="64" width="16" height="16" fill="#FF4B7D"/>
<rect x="528" y="64" width="16" height="16" fill="#FF4B7D"/>
<rect x="544" y="64" width="16" height="16" fill="#FF4B7D"/>
<rect x="560" y="64" width="16" height="16" fill="#B01E4B"/>
<rect x="576" y="64" width="16" height="16" fill="#000000"/>
<rect x="416" y="80" width="16" height="16" fill="#000000"/>
<rect x="432" y="80" width="16" height="16" fill="#FF4B7D"/>
<rect x="448" y="80" width="16" height="16" fill="#FF4B7D"/>
<rect x="464" y="80" width="16" height="16" fill="#FF4B7D"/>
<rect x="480" y="80" width="16" height="16" fill="#FF4B7D"/>
<rect x="496" y="80" width="16" height="16" fill="#FF4B7D"/>
<rect x="512" y="80" width="16" height="16" fill="#FF4B7D"/>
<rect x="528" y="80" width="16" height="16" fill="#FF4B7D"/>
<rect x="544" y="80" width="16" height="16" fill="#B01E4B"/>
<rect x="560" y="80" width="16" height="16" fill="#B01E4B"/>
<rect x="576" y="80" width="16" height="16" fill="#000000"/>
<rect x="432" y="96" width="16" height="16" fill="#000000"/>
<rect x="448" y="96" width="16" height="16" fill="#FF4B7D"/>
<rect x="464" y="96" width="16" height="16" fill="#FF4B7D"/>
<rect x="480" y="96" width="16" height="16" fill="#FF4B7D"/>
<rect x="496" y="96" width="16" height="16" fill="#FF4B7D"/>
<rect x="512" y="96" width="16" height="16" fill="#FF4B7D"/>
<rect x="528" y="96" width="16" height="16" fill="#B01E4B"/>
<rect x="544" y="96" width="16" height="16" fill="#B01E4B"/>
<rect x="560" y="96" width="16" height="16" fill="#000000"/>
<rect x="448" y="112" width="16" height="16" fill="#000000"/>
<rect x="464" y="112" width="16" height="16" fill="#FF4B7D"/>
<rect x="480" y="112" width="16" height="16" fill="#FF4B7D"/>
<rect x="496" y="112" width="16" height="16" fill="#FF4B7D"/>
<rect x="512" y="112" width="16" height="16" fill="#B01E4B"/>
<rect x="528" y="112" width="16" height="16" fill="#B01E4B"/>
<rect x="544" y="112" width="16" height="16" fill="#000000"/>
<rect x="464" y="128" width="16" height="16" fill="#000000"/>
<rect x="480" y="128" width="16" height="16" fill="#FF4B7D"/>
<rect x="496" y="128" width="16" height="16" fill="#B01E4B"/>
<rect x="512" y="128" width="16" height="16" fill="#B01E4B"/>
<rect x="528" y="128" width="16" height="16" fill="#000000"/>
<rect x="480" y="144" width="16" height="16" fill="#000000"/>
<rect x="496" y="144" width="16" height="16" fill="#B01E4B"/>
<rect x="512" y="144" width="16" height="16" fill="#000000"/>
<rect x="656" y="0" width="16" height="16" fill="#000000"/>
<rect x="672" y="0" width="16" height="16" fill="#000000"/>
<rect x="736" y="0" width="16" height="16" fill="#000000"/>
<rect x="752" y="0" width="16" height="16" fill="#000000"/>
<rect x="640" y="16" width="16" height="16" fill="#000000"/>
<rect x="656" y="16" width="16" height="16" fill="#FF4B7D"/>
<rect x="672" y="16" width="16" height="16" fill="#FF4B7D"/>
<rect x="688" y="16" width="16" height="16" fill="#000000"/>
<rect x="720" y="16" width="16" height="16" fill="#000000"/>
<rect x="736" y="16" width="16" height="16" fill="#FF4B7D"/>
<rect x="752" y="16" width="16" height="16" fill="#FF4B7D"/>
<rect x="768" y="16" width="16" height="16" fill="#000000"/>
<rect x="624" y="32" width="16" height="16" fill="#000000"/>
<rect x="640" y="32" width="16" height="16" fill="#FF4B7D"/>
<rect x="656" y="32" width="16" height="16" fill="#FFFFFF"/>
<rect x="672" y="32" width="16" height="16" fill="#FF4B7D"/>
<rect x="688" y="32" width="16" height="16" fill="#FF4B7D"/>
<rect x="704" y="32" width="16" height="16" fill="#FF4B7D"/>
<rect x="720" y="32" width="16" height="16" fill="#FF4B7D"/>
<rect x="736" y="32" width="16" height="16" fill="#FF4B7D"/>
<rect x="752" y="32" width="16" height="16" fill="#FF4B7D"/>
<rect x="768" y="32" width="16" height="16" fill="#FF4B7D"/>
<rect x="784" y="32" width="16" height="16" fill="#000000"/>
<rect x="624" y="48" width="16" height="16" fill="#000000"/>
<rect x="640" y="48" width="16" height="16" fill="#FF4B7D"/>
<rect x="656" y="48" width="16" height="16" fill="#FFFFFF"/>
<rect x="672" y="48" width="16" height="16" fill="#FF4B7D"/>
<rect x="688" y="48" width="16" height="16" fill="#FF4B7D"/>
<rect x="704" y="48" width="16" height="16" fill="#FF4B7D"/>
<rect x="720" y="48" width="16" height="16" fill="#FF4B7D"/>
<rect x="736" y="48" width="16" height="16" fill="#FF4B7D"/>
<rect x="752" y="48" width="16" height="16" fill="#FF4B7D"/>
<rect x="768" y="48" width="16" height="16" fill="#B01E4B"/>
<rect x="784" y="48" width="16" height="16" fill="#000000"/>
<rect x="624" y="64" width="16" height="16" fill="#000000"/>
<rect x="640" y="64" width="16" height="16" fill="#FF4B7D"/>
<rect x="656" y="64" width="16" height="16" fill="#FF4B7D"/>
<rect x="672" y="64" width="16" height="16" fill="#FF4B7D"/>
<rect x="688" y="64" width="16" height="16" fill="#FF4B7D"/>
<rect x="704" y="64" width="16" height="16" fill="#FF4B7D"/>
<rect x="720" y="64" width="16" height="16" fill="#FF4B7D"/>
<rect x="736" y="64" width="16" height="16" fill="#FF4B7D"/>
<rect x="752" y="64" width="16" height="16" fill="#FF4B7D"/>
<rect x="768" y="64" width="16" height="16" fill="#B01E4B"/>
<rect x="784" y="64" width="16" height="16" fill="#000000"/>
<rect x="624" y="80" width="16" height="16" fill="#000000"/>
<rect x="640" y="80" width="16" height="16" fill="#FF4B7D"/>
<rect x="656" y="80" width="16" height="16" fill="#FF4B7D"/>
<rect x="672" y="80" width="16" height="16" fill="#FF4B7D"/>
<rect x="688" y="80" width="16" height="16" fill="#FF4B7D"/>
<rect x="704" y="80" width="16" height="16" fill="#FF4B7D"/>
<rect x="720" y="80" width="16" height="16" fill="#FF4B7D"/>
<rect x="736" y="80" width="16" height="16" fill="#FF4B7D"/>
<rect x="752" y="80" width="16" height="16" fill="#B01E4B"/>
<rect x="768" y="80" width="16" height="16" fill="#B01E4B"/>
<rect x="784" y="80" width="16" height="16" fill="#000000"/>
<rect x="640" y="96" width="16" height="16" fill="#000000"/>
<rect x="656" y="96" width="16" height="16" fill="#FF4B7D"/>
<rect x="672" y="96" width="16" height="16" fill="#FF4B7D"/>
<rect x="688" y="96" width="16" height="16" fill="#FF4B7D"/>
<rect x="704" y="96" width="16" height="16" fill="#FF4B7D"/>
<rect x="720" y="96" width="16" height="16" fill="#FF4B7D"/>
<rect x="736" y="96" width="16" height="16" fill="#B01E4B"/>
<rect x="752" y="96" width="16" height="16" fill="#B01E4B"/>
<rect x="768" y="96" width="16" height="16" fill="#000000"/>
<rect x="656" y="112" width="16" height="16" fill="#000000"/>
<rect x="672" y="112" width="16" height="16" fill="#FF4B7D"/>
<rect x="688" y="112" width="16" height="16" fill="#FF4B7D"/>
<rect x="704" y="112" width="16" height="16" fill="#FF4B7D"/>
<rect x="720" y="112" width="16" height="16" fill="#B01E4B"/>
<rect x="736" y="112" width="16" height="16" fill="#B01E4B"/>
<rect x="752" y="112" width="16" height="16" fill="#000000"/>
<rect x="672" y="128" width="16" height="16" fill="#000000"/>
<rect x="688" y="128" width="16" height="16" fill="#FF4B7D"/>
<rect x="704" y="128" width="16" height="16" fill="#B01E4B"/>
<rect x="720" y="128" width="16" height="16" fill="#B01E4B"/>
<rect x="736" y="128" width="16" height="16" fill="#000000"/>
<rect x="688" y="144" width="16" height="16" fill="#000000"/>
<rect x="704" y="144" width="16" height="16" fill="#B01E4B"/>
<rect x="720" y="144" width="16" height="16" fill="#000000"/>
<rect x="864" y="0" width="16" height="16" fill="#000000"/>
<rect x="880" y="0" width="16" height="16" fill="#000000"/>
<rect x="944" y="0" width="16" height="16" fill="#000000"/>
<rect x="960" y="0" width="16" height="16" fill="#000000"/>
<rect x="848" y="16" width="16" height="16" fill="#000000"/>
<rect x="864" y="16" width="16" height="16" fill="#FF4B7D"/>
<rect x="880" y="16" width="16" height="16" fill="#FF4B7D"/>
<rect x="896" y="16" width="16" height="16" fill="#000000"/>
<rect x="928" y="16" width="16" height="16" fill="#000000"/>
<rect x="944" y="16" width="16" height="16" fill="#FF4B7D"/>
<rect x="960" y="16" width="16" height="16" fill="#FF4B7D"/>
<rect x="976" y="16" width="16" height="16" fill="#000000"/>
<rect x="832" y="32" width="16" height="16" fill="#000000"/>
<rect x="848" y="32" width="16" height="16" fill="#FF4B7D"/>
<rect x="864" y="32" width="16" height="16" fill="#FFFFFF"/>
<rect x="880" y="32" width="16" height="16" fill="#FF4B7D"/>
<rect x="896" y="32" width="16" height="16" fill="#FF4B7D"/>
<rect x="912" y="32" width="16" height="16" fill="#FF4B7D"/>
<rect x="928" y="32" width="16" height="16" fill="#FF4B7D"/>
<rect x="944" y="32" width="16" height="16" fill="#FF4B7D"/>
<rect x="960" y="32" width="16" height="16" fill="#FF4B7D"/>
<rect x="976" y="32" width="16" height="16" fill="#FF4B7D"/>
<rect x="992" y="32" width="16" height="16" fill="#000000"/>
<rect x="832" y="48" width="16" height="16" fill="#000000"/>
<rect x="848" y="48" width="16" height="16" fill="#FF4B7D"/>
<rect x="864" y="48" width="16" height="16" fill="#FFFFFF"/>
<rect x="880" y="48" width="16" height="16" fill="#FF4B7D"/>
<rect x="896" y="48" width="16" height="16" fill="#FF4B7D"/>
<rect x="912" y="48" width="16" height="16" fill="#FF4B7D"/>
<rect x="928" y="48" width="16" height="16" fill="#FF4B7D"/>
<rect x="944" y="48" width="16" height="16" fill="#FF4B7D"/>
<rect x="960" y="48" width="16" height="16" fill="#FF4B7D"/>
<rect x="976" y="48" width="16" height="16" fill="#B01E4B"/>
<rect x="992" y="48" width="16" height="16" fill="#000000"/>
<rect x="832" y="64" width="16" height="16" fill="#000000"/>
<rect x="848" y="64" width="16" height="16" fill="#FF4B7D"/>
<rect x="864" y="64" width="16" height="16" fill="#FF4B7D"/>
<rect x="880" y="64" width="16" height="16" fill="#FF4B7D"/>
<rect x="896" y="64" width="16" height="16" fill="#FF4B7D"/>
<rect x="912" y="64" width="16" height="16" fill="#FF4B7D"/>
<rect x="928" y="64" width="16" height="16" fill="#FF4B7D"/>
<rect x="944" y="64" width="16" height="16" fill="#FF4B7D"/>
<rect x="960" y="64" width="16" height="16" fill="#FF4B7D"/>
<rect x="976" y="64" width="16" height="16" fill="#B01E4B"/>
<rect x="992" y="64" width="16" height="16" fill="#000000"/>
<rect x="832" y="80" width="16" height="16" fill="#000000"/>
<rect x="848" y="80" width="16" height="16" fill="#FF4B7D"/>
<rect x="864" y="80" width="16" height="16" fill="#FF4B7D"/>
<rect x="880" y="80" width="16" height="16" fill="#FF4B7D"/>
<rect x="896" y="80" width="16" height="16" fill="#FF4B7D"/>
<rect x="912" y="80" width="16" height="16" fill="#FF4B7D"/>
<rect x="928" y="80" width="16" height="16" fill="#FF4B7D"/>
<rect x="944" y="80" width="16" height="16" fill="#FF4B7D"/>
<rect x="960" y="80" width="16" height="16" fill="#B01E4B"/>
<rect x="976" y="80" width="16" height="16" fill="#B01E4B"/>
<rect x="992" y="80" width="16" height="16" fill="#000000"/>
<rect x="848" y="96" width="16" height="16" fill="#000000"/>
<rect x="864" y="96" width="16" height="16" fill="#FF4B7D"/>
<rect x="880" y="96" width="16" height="16" fill="#FF4B7D"/>
<rect x="896" y="96" width="16" height="16" fill="#FF4B7D"/>
<rect x="912" y="96" width="16" height="16" fill="#FF4B7D"/>
<rect x="928" y="96" width="16" height="16" fill="#FF4B7D"/>
<rect x="944" y="96" width="16" height="16" fill="#B01E4B"/>
<rect x="960" y="96" width="16" height="16" fill="#B01E4B"/>
<rect x="976" y="96" width="16" height="16" fill="#000000"/>
<rect x="864" y="112" width="16" height="16" fill="#000000"/>
<rect x="880" y="112" width="16" height="16" fill="#FF4B7D"/>
<rect x="896" y="112" width="16" height="16" fill="#FF4B7D"/>
<rect x="912" y="112" width="16" height="16" fill="#FF4B7D"/>
<rect x="928" y="112" width="16" height="16" fill="#B01E4B"/>
<rect x="944" y="112" width="16" height="16" fill="#B01E4B"/>
<rect x="960" y="112" width="16" height="16" fill="#000000"/>
<rect x="880" y="128" width="16" height="16" fill="#000000"/>
<rect x="896" y="128" width="16" height="16" fill="#FF4B7D"/>
<rect x="912" y="128" width="16" height="16" fill="#B01E4B"/>
<rect x="928" y="128" width="16" height="16" fill="#B01E4B"/>
<rect x="944" y="128" width="16" height="16" fill="#000000"/>
<rect x="896" y="144" width="16" height="16" fill="#000000"/>
<rect x="912" y="144" width="16" height="16" fill="#B01E4B"/>
<rect x="928" y="144" width="16" height="16" fill="#000000"/>
</svg>