<svg xmlns="http://www.w3.org/2000/svg" viewBox="0 0 768 160" shape-rendering="crispEdges">
  <rect x="16" y="0" width="16" height="16" fill="#E24B4A"/>
  <rect x="32" y="0" width="16" height="16" fill="#E24B4A"/>
  <rect x="48" y="0" width="16" height="16" fill="#E24B4A"/>
  <rect x="64" y="0" width="16" height="16" fill="#E24B4A"/>
  <rect x="80" y="0" width="16" height="16" fill="#E24B4A"/>
  <rect x="96" y="0" width="16" height="16" fill="#E24B4A"/>
  <rect x="176" y="0" width="16" height="16" fill="#E24B4A"/>
  <rect x="192" y="0" width="16" height="16" fill="#E24B4A"/>
  <rect x="208" y="0" width="16" height="16" fill="#E24B4A"/>
  <rect x="224" y="0" width="16" height="16" fill="#E24B4A"/>
  <rect x="240" y="0" width="16" height="16" fill="#E24B4A"/>
  <rect x="256" y="0" width="16" height="16" fill="#E24B4A"/>
  <rect x="336" y="0" width="16" height="16" fill="#E24B4A"/>
  <rect x="352" y="0" width="16" height="16" fill="#E24B4A"/>
  <rect x="368" y="0" width="16" height="16" fill="#E24B4A"/>
  <rect x="384" y="0" width="16" height="16" fill="#E24B4A"/>
  <rect x="400" y="0" width="16" height="16" fill="#E24B4A"/>
  <rect x="416" y="0" width="16" height="16" fill="#E24B4A"/>
  <rect x="496" y="0" width="16" height="16" fill="#E24B4A"/>
  <rect x="512" y="0" width="16" height="16" fill="#E24B4A"/>
  <rect x="528" y="0" width="16" height="16" fill="#E24B4A"/>
  <rect x="544" y="0" width="16" height="16" fill="#E24B4A"/>
  <rect x="560" y="0" width="16" height="16" fill="#E24B4A"/>
  <rect x="576" y="0" width="16" height="16" fill="#E24B4A"/>
  <rect x="656" y="0" width="16" height="16" fill="#E24B4A"/>
  <rect x="672" y="0" width="16" height="16" fill="#E24B4A"/>
  <rect x="688" y="0" width="16" height="16" fill="#E24B4A"/>
  <rect x="704" y="0" width="16" height="16" fill="#E24B4A"/>
  <rect x="720" y="0" width="16" height="16" fill="#E24B4A"/>
  <rect x="736" y="0" width="16" height="16" fill="#E24B4A"/>
  <rect x="0" y="16" width="16" height="16" fill="#E24B4A"/>
  <rect x="16" y="16" width="16" height="16" fill="#E24B4A"/>
  <rect x="32" y="16" width="16" height="16" fill="#E24B4A"/>
  <rect x="48" y="16" width="16" height="16" fill="#E24B4A"/>
  <rect x="64" y="16" width="16" height="16" fill="#E24B4A"/>
  <rect x="80" y="16" width="16" height="16" fill="#E24B4A"/>
  <rect x="96" y="16" width="16" height="16" fill="#E24B4A"/>
  <rect x="112" y="16" width="16" height="16" fill="#E24B4A"/>
  <rect x="160" y="16" width="16" height="16" fill="#E24B4A"/>
  <rect x="176" y="16" width="16" height="16" fill="#E24B4A"/>
  <rect x="192" y="16" width="16" height="16" fill="#E24B4A"/>
  <rect x="208" y="16" width="16" height="16" fill="#E24B4A"/>
  <rect x="224" y="16" width="16" height="16" fill="#E24B4A"/>
  <rect x="240" y="16" width="16" height="16" fill="#E24B4A"/>
  <rect x="256" y="16" width="16" height="16" fill="#E24B4A"/>
  <rect x="272" y="16" width="16" height="16" fill="#E24B4A"/>
  <rect x="320" y="16" width="16" height="16" fill="#E24B4A"/>
  <rect x="336" y="16" width="16" height="16" fill="#E24B4A"/>
  <rect x="352" y="16" width="16" height="16" fill="#E24B4A"/>
  <rect x="368" y="16" width="16" height="16" fill="#E24B4A"/>
  <rect x="384" y="16" width="16" height="16" fill="#E24B4A"/>
  <rect x="400" y="16" width="16" height="16" fill="#E24B4A"/>
  <rect x="416" y="16" width="16" height="16" fill="#E24B4A"/>
  <rect x="432" y="16" width="16" height="16" fill="#E24B4A"/>
  <rect x="480" y="16" width="16" height="16" fill="#E24B4A"/>
  <rect x="496" y="16" width="16" height="16" fill="#E24B4A"/>
  <rect x="512" y="16" width="16" height="16" fill="#E24B4A"/>
  <rect x="528" y="16" width="16" height="16" fill="#E24B4A"/>
  <rect x="544" y="16" width="16" height="16" fill="#E24B4A"/>
  <rect x="560" y="16" width="16" height="16" fill="#E24B4A"/>
  <rect x="576" y="16" width="16" height="16" fill="#E24B4A"/>
  <rect x="592" y="16" width="16" height="16" fill="#E24B4A"/>
  <rect x="640" y="16" width="16" height="16" fill="#E24B4A"/>
  <rect x="656" y="16" width="16" height="16" fill="#E24B4A"/>
  <rect x="672" y="16" width="16" height="16" fill="#E24B4A"/>
  <rect x="688" y="16" width="16" height="16" fill="#E24B4A"/>
  <rect x="704" y="16" width="16" height="16" fill="#E24B4A"/>
  <rect x="720" y="16" width="16" height="16" fill="#E24B4A"/>
  <rect x="736" y="16" width="16" height="16" fill="#E24B4A"/>
  <rect x="752" y="16" width="16" height="16" fill="#E24B4A"/>
  <rect x="0" y="32" width="16" height="16" fill="#E24B4A"/>
  <rect x="16" y="32" width="16" height="16" fill="#E24B4A"/>
  <rect x="160" y="32" width="16" height="16" fill="#E24B4A"/>
  <rect x="176" y="32" width="16" height="16" fill="#E24B4A"/>
  <rect x="256" y="32" width="16" height="16" fill="#E24B4A"/>
  <rect x="272" y="32" width="16" height="16" fill="#E24B4A"/>
  <rect x="320" y="32" width="16" height="16" fill="#E24B4A"/>
  <rect x="336" y="32" width="16" height="16" fill="#E24B4A"/>
  <rect x="416" y="32" width="16" height="16" fill="#E24B4A"/>
  <rect x="432" y="32" width="16" height="16" fill="#E24B4A"/>
  <rect x="480" y="32" width="16" height="16" fill="#E24B4A"/>
  <rect x="496" y="32" width="16" height="16" fill="#E24B4A"/>
  <rect x="576" y="32" width="16" height="16" fill="#E24B4A"/>
  <rect x="592" y="32" width="16" height="16" fill="#E24B4A"/>
  <rect x="640" y="32" width="16" height="16" fill="#E24B4A"/>
  <rect x="656" y="32" width="16" height="16" fill="#E24B4A"/>
  <rect x="736" y="32" width="16" height="16" fill="#E24B4A"/>
  <rect x="752" y="32" width="16" height="16" fill="#E24B4A"/>
  <rect x="0" y="48" width="16" height="16" fill="#E24B4A"/>
  <rect x="16" y="48" width="16" height="16" fill="#E24B4A"/>
  <rect x="160" y="48" width="16" height="16" fill="#E24B4A"/>
  <rect x="176" y="48" width="16" height="16" fill="#E24B4A"/>
  <rect x="256" y="48" width="16" height="16" fill="#E24B4A"/>
  <rect x="272" y="48" width="16" height="16" fill="#E24B4A"/>
  <rect x="320" y="48" width="16" height="16" fill="#E24B4A"/>
  <rect x="336" y="48" width="16" height="16" fill="#E24B4A"/>
  <rect x="416" y="48" width="16" height="16" fill="#E24B4A"/>
  <rect x="432" y="48" width="16" height="16" fill="#E24B4A"/>
  <rect x="480" y="48" width="16" height="16" fill="#E24B4A"/>
  <rect x="496" y="48" width="16" height="16" fill="#E24B4A"/>
  <rect x="576" y="48" width="16" height="16" fill="#E24B4A"/>
  <rect x="592" y="48" width="16" height="16" fill="#E24B4A"/>
  <rect x="640" y="48" width="16" height="16" fill="#E24B4A"/>
  <rect x="656" y="48" width="16" height="16" fill="#E24B4A"/>
  <rect x="736" y="48" width="16" height="16" fill="#E24B4A"/>
  <rect x="752" y="48" width="16" height="16" fill="#E24B4A"/>
  <rect x="0" y="64" width="16" height="16" fill="#E24B4A"/>
  <rect x="16" y="64" width="16" height="16" fill="#E24B4A"/>
  <rect x="32" y="64" width="16" height="16" fill="#E24B4A"/>
  <rect x="48" y="64" width="16" height="16" fill="#E24B4A"/>
  <rect x="64" y="64" width="16" height="16" fill="#E24B4A"/>
  <rect x="80" y="64" width="16" height="16" fill="#E24B4A"/>
  <rect x="160" y="64" width="16" height="16" fill="#E24B4A"/>
  <rect x="176" y="64" width="16" height="16" fill="#E24B4A"/>
  <rect x="256" y="64" width="16" height="16" fill="#E24B4A"/>
  <rect x="272" y="64" width="16" height="16" fill="#E24B4A"/>
  <rect x="320" y="64" width="16" height="16" fill="#E24B4A"/>
  <rect x="336" y="64" width="16" height="16" fill="#E24B4A"/>
  <rect x="416" y="64" width="16" height="16" fill="#E24B4A"/>
  <rect x="432" y="64" width="16" height="16" fill="#E24B4A"/>
  <rect x="480" y="64" width="16" height="16" fill="#E24B4A"/>
  <rect x="496" y="64" width="16" height="16" fill="#E24B4A"/>
  <rect x="576" y="64" width="16" height="16" fill="#E24B4A"/>
  <rect x="592" y="64" width="16" height="16" fill="#E24B4A"/>
  <rect x="640" y="64" width="16" height="16" fill="#E24B4A"/>
  <rect x="656" y="64" width="16" height="16" fill="#E24B4A"/>
  <rect x="736" y="64" width="16" height="16" fill="#E24B4A"/>
  <rect x="752" y="64" width="16" height="16" fill="#E24B4A"/>
  <rect x="0" y="80" width="16" height="16" fill="#E24B4A"/>
  <rect x="16" y="80" width="16" height="16" fill="#E24B4A"/>
  <rect x="32" y="80" width="16" height="16" fill="#E24B4A"/>
  <rect x="48" y="80" width="16" height="16" fill="#E24B4A"/>
  <rect x="64" y="80" width="16" height="16" fill="#E24B4A"/>
  <rect x="80" y="80" width="16" height="16" fill="#E24B4A"/>
  <rect x="160" y="80" width="16" height="16" fill="#E24B4A"/>
  <rect x="176" y="80" width="16" height="16" fill="#E24B4A"/>
  <rect x="192" y="80" width="16" height="16" fill="#E24B4A"/>
  <rect x="208" y="80" width="16" height="16" fill="#E24B4A"/>
  <rect x="224" y="80" width="16" height="16" fill="#E24B4A"/>
  <rect x="240" y="80" width="16" height="16" fill="#E24B4A"/>
  <rect x="256" y="80" width="16" height="16" fill="#E24B4A"/>
  <rect x="272" y="80" width="16" height="16" fill="#E24B4A"/>
  <rect x="320" y="80" width="16" height="16" fill="#E24B4A"/>
  <rect x="336" y="80" width="16" height="16" fill="#E24B4A"/>
  <rect x="352" y="80" width="16" height="16" fill="#E24B4A"/>
  <rect x="368" y="80" width="16" height="16" fill="#E24B4A"/>
  <rect x="384" y="80" width="16" height="16" fill="#E24B4A"/>
  <rect x="400" y="80" width="16" height="16" fill="#E24B4A"/>
  <rect x="416" y="80" width="16" height="16" fill="#E24B4A"/>
  <rect x="432" y="80" width="16" height="16" fill="#E24B4A"/>
  <rect x="480" y="80" width="16" height="16" fill="#E24B4A"/>
  <rect x="496" y="80" width="16" height="16" fill="#E24B4A"/>
  <rect x="576" y="80" width="16" height="16" fill="#E24B4A"/>
  <rect x="592" y="80" width="16" height="16" fill="#E24B4A"/>
  <rect x="640" y="80" width="16" height="16" fill="#E24B4A"/>
  <rect x="656" y="80" width="16" height="16" fill="#E24B4A"/>
  <rect x="672" y="80" width="16" height="16" fill="#E24B4A"/>
  <rect x="688" y="80" width="16" height="16" fill="#E24B4A"/>
  <rect x="704" y="80" width="16" height="16" fill="#E24B4A"/>
  <rect x="720" y="80" width="16" height="16" fill="#E24B4A"/>
  <rect x="736" y="80" width="16" height="16" fill="#E24B4A"/>
  <rect x="752" y="80" width="16" height="16" fill="#E24B4A"/>
  <rect x="0" y="96" width="16" height="16" fill="#E24B4A"/>
  <rect x="16" y="96" width="16" height="16" fill="#E24B4A"/>
  <rect x="160" y="96" width="16" height="16" fill="#E24B4A"/>
  <rect x="176" y="96" width="16" height="16" fill="#E24B4A"/>
  <rect x="208" y="96" width="16" height="16" fill="#E24B4A"/>
  <rect x="224" y="96" width="16" height="16" fill="#E24B4A"/>
  <rect x="320" y="96" width="16" height="16" fill="#E24B4A"/>
  <rect x="336" y="96" width="16" height="16" fill="#E24B4A"/>
  <rect x="368" y="96" width="16" height="16" fill="#E24B4A"/>
  <rect x="384" y="96" width="16" height="16" fill="#E24B4A"/>
  <rect x="480" y="96" width="16" height="16" fill="#E24B4A"/>
  <rect x="496" y="96" width="16" height="16" fill="#E24B4A"/>
  <rect x="576" y="96" width="16" height="16" fill="#E24B4A"/>
  <rect x="592" y="96" width="16" height="16" fill="#E24B4A"/>
  <rect x="640" y="96" width="16" height="16" fill="#E24B4A"/>
  <rect x="656" y="96" width="16" height="16" fill="#E24B4A"/>
  <rect x="688" y="96" width="16" height="16" fill="#E24B4A"/>
  <rect x="704" y="96" width="16" height="16" fill="#E24B4A"/>
  <rect x="0" y="112" width="16" height="16" fill="#E24B4A"/>
  <rect x="16" y="112" width="16" height="16" fill="#E24B4A"/>
  <rect x="160" y="112" width="16" height="16" fill="#E24B4A"/>
  <rect x="176" y="112" width="16" height="16" fill="#E24B4A"/>
  <rect x="224" y="112" width="16" height="16" fill="#E24B4A"/>
  <rect x="240" y="112" width="16" height="16" fill="#E24B4A"/>
  <rect x="320" y="112" width="16" height="16" fill="#E24B4A"/>
  <rect x="336" y="112" width="16" height="16" fill="#E24B4A"/>
  <rect x="384" y="112" width="16" height="16" fill="#E24B4A"/>
  <rect x="400" y="112" width="16" height="16" fill="#E24B4A"/>
  <rect x="480" y="112" width="16" height="16" fill="#E24B4A"/>
  <rect x="496" y="112" width="16" height="16" fill="#E24B4A"/>
  <rect x="576" y="112" width="16" height="16" fill="#E24B4A"/>
  <rect x="592" y="112" width="16" height="16" fill="#E24B4A"/>
  <rect x="640" y="112" width="16" height="16" fill="#E24B4A"/>
  <rect x="656" y="112" width="16" height="16" fill="#E24B4A"/>
  <rect x="704" y="112" width="16" height="16" fill="#E24B4A"/>
  <rect x="720" y="112" width="16" height="16" fill="#E24B4A"/>
  <rect x="0" y="128" width="16" height="16" fill="#E24B4A"/>
  <rect x="16" y="128" width="16" height="16" fill="#E24B4A"/>
  <rect x="32" y="128" width="16" height="16" fill="#E24B4A"/>
  <rect x="48" y="128" width="16" height="16" fill="#E24B4A"/>
  <rect x="64" y="128" width="16" height="16" fill="#E24B4A"/>
  <rect x="80" y="128" width="16" height="16" fill="#E24B4A"/>
  <rect x="96" y="128" width="16" height="16" fill="#E24B4A"/>
  <rect x="112" y="128" width="16" height="16" fill="#E24B4A"/>
  <rect x="160" y="128" width="16" height="16" fill="#E24B4A"/>
  <rect x="176" y="128" width="16" height="16" fill="#E24B4A"/>
  <rect x="240" y="128" width="16" height="16" fill="#E24B4A"/>
  <rect x="256" y="128" width="16" height="16" fill="#E24B4A"/>
  <rect x="320" y="128" width="16" height="16" fill="#E24B4A"/>
  <rect x="336" y="128" width="16" height="16" fill="#E24B4A"/>
  <rect x="400" y="128" width="16" height="16" fill="#E24B4A"/>
  <rect x="416" y="128" width="16" height="16" fill="#E24B4A"/>
  <rect x="480" y="128" width="16" height="16" fill="#E24B4A"/>
  <rect x="496" y="128" width="16" height="16" fill="#E24B4A"/>
  <rect x="512" y="128" width="16" height="16" fill="#E24B4A"/>
  <rect x="528" y="128" width="16" height="16" fill="#E24B4A"/>
  <rect x="544" y="128" width="16" height="16" fill="#E24B4A"/>
  <rect x="560" y="128" width="16" height="16" fill="#E24B4A"/>
  <rect x="576" y="128" width="16" height="16" fill="#E24B4A"/>
  <rect x="592" y="128" width="16" height="16" fill="#E24B4A"/>
  <rect x="640" y="128" width="16" height="16" fill="#E24B4A"/>
  <rect x="656" y="128" width="16" height="16" fill="#E24B4A"/>
  <rect x="720" y="128" width="16" height="16" fill="#E24B4A"/>
  <rect x="736" y="128" width="16" height="16" fill="#E24B4A"/>
  <rect x="16" y="144" width="16" height="16" fill="#E24B4A"/>
  <rect x="32" y="144" width="16" height="16" fill="#E24B4A"/>
  <rect x="48" y="144" width="16" height="16" fill="#E24B4A"/>
  <rect x="64" y="144" width="16" height="16" fill="#E24B4A"/>
  <rect x="80" y="144" width="16" height="16" fill="#E24B4A"/>
  <rect x="96" y="144" width="16" height="16" fill="#E24B4A"/>
  <rect x="160" y="144" width="16" height="16" fill="#E24B4A"/>
  <rect x="176" y="144" width="16" height="16" fill="#E24B4A"/>
  <rect x="256" y="144" width="16" height="16" fill="#E24B4A"/>
  <rect x="272" y="144" width="16" height="16" fill="#E24B4A"/>
  <rect x="320" y="144" width="16" height="16" fill="#E24B4A"/>
  <rect x="336" y="144" width="16" height="16" fill="#E24B4A"/>
  <rect x="416" y="144" width="16" height="16" fill="#E24B4A"/>
  <rect x="432" y="144" width="16" height="16" fill="#E24B4A"/>
  <rect x="496" y="144" width="16" height="16" fill="#E24B4A"/>
  <rect x="512" y="144" width="16" height="16" fill="#E24B4A"/>
  <rect x="528" y="144" width="16" height="16" fill="#E24B4A"/>
  <rect x="544" y="144" width="16" height="16" fill="#E24B4A"/>
  <rect x="560" y="144" width="16" height="16" fill="#E24B4A"/>
  <rect x="576" y="144" width="16" height="16" fill="#E24B4A"/>
  <rect x="640" y="144" width="16" height="16" fill="#E24B4A"/>
  <rect x="656" y="144" width="16" height="16" fill="#E24B4A"/>
  <rect x="736" y="144" width="16" height="16" fill="#E24B4A"/>
  <rect x="752" y="144" width="16" height="16" fill="#E24B4A"/>
</svg>
