<svg width="192" height="240" viewBox="0 0 192 240" fill="none" xmlns="http://www.w3.org/2000/svg">
<path d="M176 64H160V80H176V64Z" fill="#8B7BE8"/>
<path d="M176 48H160V64H176V48Z" fill="#8B7BE8"/>
<path d="M160 48H144V64H160V48Z" fill="#8B7BE8"/>
<path d="M48 48H32V64H48V48Z" fill="#8B7BE8"/>
<path d="M32 64H16V80H32V64Z" fill="#8B7BE8"/>
<path d="M48 80H32V96H48V80Z" fill="#8B7BE8"/>
<path d="M64 80H48V96H64V80Z" fill="#8B7BE8"/>
<path d="M48 96H32V112H48V96Z" fill="#8B7BE8"/>
<path d="M64 96H48V112H64V96Z" fill="#8B7BE8"/>
<path d="M48 112H32V128H48V112Z" fill="#8B7BE8"/>
<path d="M64 112H48V128H64V112Z" fill="#8B7BE8"/>
<path d="M32 160H16V176H32V160Z" fill="#8B7BE8"/>
<path d="M64 160H48V176H64V160Z" fill="#8B7BE8"/>
<path d="M64 176H48V192H64V176Z" fill="#8B7BE8"/>
<path d="M64 192H48V208H64V192Z" fill="#8B7BE8"/>
<path d="M48 176H32V192H48V176Z" fill="#8B7BE8"/>
<path d="M80 176H64V192H80V176Z" fill="#8B7BE8"/>
<path d="M80 160H64V176H80V160Z" fill="#8B7BE8"/>
<path d="M48 144H32V160H48V144Z" fill="#8B7BE8"/>
<path d="M48 160H32V176H48V160Z" fill="#8B7BE8"/>
<path d="M32 80H16V96H32V80Z" fill="#8B7BE8"/>
<path d="M32 96H16V112H32V96Z" fill="#8B7BE8"/>
<path d="M32 112H16V128H32V112Z" fill="#8B7BE8"/>
<path d="M32 144H16V160H32V144Z" fill="#8B7BE8"/>
<path d="M64 144H48V160H64V144Z" fill="#8B7BE8"/>
<path d="M128 208H112V224H128V208Z" fill="#8B7BE8"/>
<path d="M112 208H96V224H112V208Z" fill="#8B7BE8"/>
<path d="M96 208H80V224H96V208Z" fill="#8B7BE8"/>
<path d="M80 208H64V224H80V208Z" fill="#8B7BE8"/>
<path d="M96 176H80V192H96V176Z" fill="#8B7BE8"/>
<path d="M112 176H96V192H112V176Z" fill="#8B7BE8"/>
<path d="M128 176H112V192H128V176Z" fill="#8B7BE8"/>
<path d="M80 192H64V208H80V192Z" fill="#8B7BE8"/>
<path d="M96 192H80V208H96V192Z" fill="#8B7BE8"/>
<path d="M112 192H96V208H112V192Z" fill="#8B7BE8"/>
<path d="M128 192H112V208H128V192Z" fill="#8B7BE8"/>
<path d="M144 192H128V208H144V192Z" fill="#8B7BE8"/>
<path d="M160 192H144V208H160V192Z" fill="#8B7BE8"/>
<path d="M144 208H128V224H144V208Z" fill="#8B7BE8"/>
<path d="M128 48H112V64H128V48Z" fill="#8B7BE8"/>
<path d="M112 48H96V64H112V48Z" fill="#8B7BE8"/>
<path d="M96 48H80V64H96V48Z" fill="#8B7BE8"/>
<path d="M80 64H64V80H80V64Z" fill="#8B7BE8"/>
<path d="M64 64H48V80H64V64Z" fill="#8B7BE8"/>
<path d="M48 64H32V80H48V64Z" fill="#8B7BE8"/>
<path d="M80 48H64V64H80V48Z" fill="#8B7BE8"/>
<path d="M64 48H48V64H64V48Z" fill="#8B7BE8"/>
<path d="M144 48H128V64H144V48Z" fill="#8B7BE8"/>
<path d="M128 64H112V80H128V64Z" fill="#2C2664"/>
<path d="M128 80H112V96H128V80Z" fill="#2C2664"/>
<path d="M192 80H176V96H192V80Z" fill="#2C2664"/>
<path d="M128 144H112V160H128V144Z" fill="#2C2664"/>
<path d="M144 80H128V96H144V80Z" fill="#2C2664"/>
<path d="M160 80H144V96H160V80Z" fill="#2C2664"/>
<path d="M176 80H160V96H176V80Z" fill="#2C2664"/>
<path d="M192 64H176V80H192V64Z" fill="#2C2664"/>
<path d="M192 48H176V64H192V48Z" fill="#2C2664"/>
<path d="M192 32H176V48H192V32Z" fill="#2C2664"/>
<path d="M176 16H160V32H176V16Z" fill="#2C2664"/>
<path d="M160 0H144V16H160V0Z" fill="#2C2664"/>
<path d="M176 32H160V48H176V32Z" fill="#2C2664"/>
<path d="M160 16H144V32H160V16Z" fill="#2C2664"/>
<path d="M144 0H128V16H144V0Z" fill="#2C2664"/>
<path d="M128 0H112V16H128V0Z" fill="#2C2664"/>
<path d="M112 0H96V16H112V0Z" fill="#2C2664"/>
<path d="M96 0H80V16H96V0Z" fill="#2C2664"/>
<path d="M80 0H64V16H80V0Z" fill="#2C2664"/>
<path d="M64 16H48V32H64V16Z" fill="#2C2664"/>
<path d="M48 16H32V32H48V16Z" fill="#2C2664"/>
<path d="M32 32H16V48H32V32Z" fill="#2C2664"/>
<path d="M16 48H0V64H16V48Z" fill="#2C2664"/>
<path d="M64 0H48V16H64V0Z" fill="#2C2664"/>
<path d="M48 32H32V48H48V32Z" fill="#2C2664"/>
<path d="M32 48H16V64H32V48Z" fill="#2C2664"/>
<path d="M16 64H0V80H16V64Z" fill="#2C2664"/>
<path d="M16 80H0V96H16V80Z" fill="#2C2664"/>
<path d="M16 96H0V112H16V96Z" fill="#2C2664"/>
<path d="M16 112H0V128H16V112Z" fill="#2C2664"/>
<path d="M16 144H0V160H16V144Z" fill="#2C2664"/>
<path d="M16 160H0V176H16V160Z" fill="#2C2664"/>
<path d="M16 176H0V192H16V176Z" fill="#2C2664"/>
<path d="M32 192H16V208H32V192Z" fill="#2C2664"/>
<path d="M48 208H32V224H48V208Z" fill="#2C2664"/>
<path d="M64 224H48V240H64V224Z" fill="#2C2664"/>
<path d="M160 224H144V240H160V224Z" fill="#2C2664"/>
<path d="M176 208H160V224H176V208Z" fill="#2C2664"/>
<path d="M192 192H176V208H192V192Z" fill="#2C2664"/>
<path d="M192 144H176V160H192V144Z" fill="#2C2664"/>
<path d="M32 176H16V192H32V176Z" fill="#2C2664"/>
<path d="M48 192H32V208H48V192Z" fill="#2C2664"/>
<path d="M64 208H48V224H64V208Z" fill="#2C2664"/>
<path d="M80 224H64V240H80V224Z" fill="#2C2664"/>
<path d="M96 224H80V240H96V224Z" fill="#2C2664"/>
<path d="M112 224H96V240H112V224Z" fill="#2C2664"/>
<path d="M128 224H112V240H128V224Z" fill="#2C2664"/>
<path d="M144 224H128V240H144V224Z" fill="#2C2664"/>
<path d="M160 208H144V224H160V208Z" fill="#2C2664"/>
<path d="M176 192H160V208H176V192Z" fill="#2C2664"/>
<path d="M192 176H176V192H192V176Z" fill="#2C2664"/>
<path d="M192 160H176V176H192V160Z" fill="#2C2664"/>
<path d="M176 144H160V160H176V144Z" fill="#2C2664"/>
<path d="M160 144H144V160H160V144Z" fill="#2C2664"/>
<path d="M144 144H128V160H144V144Z" fill="#2C2664"/>
<path d="M112 64H96V80H112V64Z" fill="#2C2664"/>
<path d="M96 64H80V80H96V64Z" fill="#2C2664"/>
<path d="M80 64H64V80H80V64Z" fill="#2C2664"/>
<path d="M80 160H64V176H80V160Z" fill="#2C2664"/>
<path d="M80 80H64V96H80V80Z" fill="#2C2664"/>
<path d="M80 96H64V112H80V96Z" fill="#2C2664"/>
<path d="M80 112H64V128H80V112Z" fill="#2C2664"/>
<path d="M48 128H32V144H48V128Z" fill="#8B7BE8"/>
<path d="M64 128H48V144H64V128Z" fill="#8B7BE8"/>
<path d="M32 128H16V144H32V128Z" fill="#8B7BE8"/>
<path d="M16 128H0V144H16V128Z" fill="#2C2664"/>
<path d="M80 128H64V144H80V128Z" fill="#2C2664"/>
<path d="M80 144H64V160H80V144Z" fill="#2C2664"/>
<path d="M80 144H64V160H80V144Z" fill="#2C2664"/>
<path d="M96 160H80V176H96V160Z" fill="#2C2664"/>
<path d="M112 160H96V176H112V160Z" fill="#2C2664"/>
<path d="M128 160H112V176H128V160Z" fill="#2C2664"/>
<path d="M160 32H144V48H160V32Z" fill="#8B7BE8"/>
<path d="M144 16H128V32H144V16Z" fill="#8B7BE8"/>
<path d="M128 16H112V32H128V16Z" fill="#8B7BE8"/>
<path d="M112 16H96V32H112V16Z" fill="#8B7BE8"/>
<path d="M96 16H80V32H96V16Z" fill="#8B7BE8"/>
<path d="M96 16H80V32H96V16Z" fill="#8B7BE8"/>
<path d="M80 16H64V32H80V16Z" fill="#8B7BE8"/>
<path d="M144 32H128V48H144V32Z" fill="#8B7BE8"/>
<path d="M128 32H112V48H128V32Z" fill="#8B7BE8"/>
<path d="M112 32H96V48H112V32Z" fill="#8B7BE8"/>
<path d="M96 32H80V48H96V32Z" fill="#8B7BE8"/>
<path d="M96 32H80V48H96V32Z" fill="#8B7BE8"/>
<path d="M80 32H64V48H80V32Z" fill="#8B7BE8"/>
<path d="M64 32H48V48H64V32Z" fill="#8B7BE8"/>
<path d="M160 64H144V80H160V64Z" fill="#8B7BE8"/>
<path d="M144 64H128V80H144V64Z" fill="#8B7BE8"/>
<path d="M176 160H160V176H176V160Z" fill="#8B7BE8"/>
<path d="M160 160H144V176H160V160Z" fill="#8B7BE8"/>
<path d="M144 160H128V176H144V160Z" fill="#8B7BE8"/>
<path d="M176 176H160V192H176V176Z" fill="#8B7BE8"/>
<path d="M160 176H144V192H160V176Z" fill="#8B7BE8"/>
<path d="M144 176H128V192H144V176Z" fill="#8B7BE8"/>
</svg>
